<mxfile host="Electron" modified="2024-03-06T09:32:49.863Z" agent="Mozilla/5.0 (Windows NT 10.0; Win64; x64) AppleWebKit/537.36 (KHTML, like Gecko) draw.io/22.0.3 Chrome/114.0.5735.289 Electron/25.8.4 Safari/537.36" etag="ECLiX31ZWYCvdq3X7Rxl" version="22.0.3" type="device">
  <diagram name="第 1 页" id="naipP5yu4KR9WeXx8-Vf">
    <mxGraphModel dx="2993" dy="2411" grid="1" gridSize="10" guides="1" tooltips="1" connect="1" arrows="1" fold="1" page="1" pageScale="1" pageWidth="827" pageHeight="1169" math="0" shadow="0">
      <root>
        <mxCell id="0" />
        <mxCell id="1" parent="0" />
        <mxCell id="cDjMF4OTFLS3c3BJaFkV-1" value="URougeGamplayAbility" style="rounded=0;whiteSpace=wrap;html=1;" parent="1" vertex="1">
          <mxGeometry x="450" y="715" width="170" height="60" as="geometry" />
        </mxCell>
        <mxCell id="cDjMF4OTFLS3c3BJaFkV-2" value="UGamplayAbility" style="rounded=0;whiteSpace=wrap;html=1;" parent="1" vertex="1">
          <mxGeometry x="450" y="540" width="170" height="60" as="geometry" />
        </mxCell>
        <mxCell id="cDjMF4OTFLS3c3BJaFkV-3" value="Extends" style="endArrow=block;endSize=16;endFill=0;html=1;rounded=0;exitX=0.5;exitY=0;exitDx=0;exitDy=0;entryX=0.5;entryY=1;entryDx=0;entryDy=0;" parent="1" source="cDjMF4OTFLS3c3BJaFkV-1" target="cDjMF4OTFLS3c3BJaFkV-2" edge="1">
          <mxGeometry width="160" relative="1" as="geometry">
            <mxPoint x="550" y="670" as="sourcePoint" />
            <mxPoint x="710" y="670" as="targetPoint" />
          </mxGeometry>
        </mxCell>
        <mxCell id="cDjMF4OTFLS3c3BJaFkV-4" value="GA_AbilityWithWidget" style="rounded=0;whiteSpace=wrap;html=1;" parent="1" vertex="1">
          <mxGeometry x="450" y="880" width="170" height="60" as="geometry" />
        </mxCell>
        <mxCell id="cDjMF4OTFLS3c3BJaFkV-5" value="Extends" style="endArrow=block;endSize=16;endFill=0;html=1;rounded=0;exitX=0.5;exitY=0;exitDx=0;exitDy=0;entryX=0.5;entryY=1;entryDx=0;entryDy=0;" parent="1" source="cDjMF4OTFLS3c3BJaFkV-4" edge="1">
          <mxGeometry width="160" relative="1" as="geometry">
            <mxPoint x="535" y="900" as="sourcePoint" />
            <mxPoint x="535" y="775" as="targetPoint" />
          </mxGeometry>
        </mxCell>
        <mxCell id="cDjMF4OTFLS3c3BJaFkV-6" value="GA_Hero_Desh" style="rounded=0;whiteSpace=wrap;html=1;" parent="1" vertex="1">
          <mxGeometry x="450" y="1040" width="170" height="60" as="geometry" />
        </mxCell>
        <mxCell id="cDjMF4OTFLS3c3BJaFkV-7" value="Extends" style="endArrow=block;endSize=16;endFill=0;html=1;rounded=0;exitX=0.5;exitY=0;exitDx=0;exitDy=0;entryX=0.5;entryY=1;entryDx=0;entryDy=0;" parent="1" source="cDjMF4OTFLS3c3BJaFkV-6" edge="1">
          <mxGeometry width="160" relative="1" as="geometry">
            <mxPoint x="535" y="1045" as="sourcePoint" />
            <mxPoint x="535" y="940" as="targetPoint" />
          </mxGeometry>
        </mxCell>
        <mxCell id="GC5rKUr2KKgXfRCcTe5S-1" value="从UGameplayAbility类扩展而来，可提供额外的实用程序和与Rouge框架连接的接口" style="text;html=1;align=center;verticalAlign=middle;resizable=0;points=[];autosize=1;strokeColor=none;fillColor=none;" parent="1" vertex="1">
          <mxGeometry x="650" y="730" width="470" height="30" as="geometry" />
        </mxCell>
        <mxCell id="wEf4CcnapFqKi51uISp2-1" value="RougeAbilitySet" style="shape=dataStorage;whiteSpace=wrap;html=1;fixedSize=1;" parent="1" vertex="1">
          <mxGeometry x="1740" y="710" width="200" height="80" as="geometry" />
        </mxCell>
        <mxCell id="wEf4CcnapFqKi51uISp2-2" value="AbilitySet_ShooterHero" style="shape=dataStorage;whiteSpace=wrap;html=1;fixedSize=1;" parent="1" vertex="1">
          <mxGeometry x="1740" y="900" width="200" height="80" as="geometry" />
        </mxCell>
        <mxCell id="wEf4CcnapFqKi51uISp2-3" value="Extends" style="endArrow=block;endSize=16;endFill=0;html=1;rounded=0;exitX=0.5;exitY=0;exitDx=0;exitDy=0;entryX=0.5;entryY=1;entryDx=0;entryDy=0;" parent="1" source="wEf4CcnapFqKi51uISp2-2" target="wEf4CcnapFqKi51uISp2-1" edge="1">
          <mxGeometry width="160" relative="1" as="geometry">
            <mxPoint x="1810" y="880" as="sourcePoint" />
            <mxPoint x="1970" y="880" as="targetPoint" />
          </mxGeometry>
        </mxCell>
        <mxCell id="HBa44vNrwoV7qJLx2Cdn-1" value="" style="shape=image;verticalLabelPosition=bottom;labelBackgroundColor=default;verticalAlign=top;aspect=fixed;imageAspect=0;image=data:image/png,iVBORw0KGgoAAAANSUhEUgAAAhAAAAFqCAYAAABLUWOzAAAgAElEQVR4nOy9eXiU1f33/5o9k2Qm+05IyEZWICEIhE0W2RREULRYFbUWtbXain1ql6v2W9cWlcKD1tYVBRVFVJBVEAOIYRESCJCQlez7OjPJbOf3R7hvZ8Ki9Plaa3/3+7pyQTL3nPvsn/f5bEcFCBQoUKBAgQIFCq4A6u+7AgoUKFCgQIGCHx4UAqFAgQIFChQouGIoBEKBAgUKFChQcMVQCIQCBQoUKFCg4IqhEAgFChQoUKBAwRVDIRAKFChQoECBgiuGQiAUKFCgQIECBVcMhUAoUKBAgQIFCq4YCoFQoECBAgUKFFwxFAKhQIECBQoUKLhiKARCgQIFChQoUHDFUAiEAgUKFChQoOCKoRAIBQoUKFCgQMEVQyEQChQoUKBAgYIrhkIgFChQoECBAgVXDIVAKFCgQIECBQquGAqBUKBAgQIFChRcMRQCoUCBAgUKFCi4YigEQoECBQoUKFBwxVAIhAIFChQoUKDgiqEQCAUKFChQoEDBFUMhEAoUKFCgQIGCK4ZCIBQoUKBAgQIFVwyFQChQoECBAgUKrhgKgVCgQIECBQoUXDEUAqFAgQIFChQouGJov+8K/FChUqkQQnzf1fivwDf1pdLXPxyoVKoL/vafPHY/tPoqUPCfBEUD8S/ih77JXGzj/D7K+Dbl/G+957vAf3Ldvk/80NaHEEL+UaBAwbeDQiD+RXyfgkOlUmEwGC5bB5VKhU6nu+Tn37RRqlQq1Go1arXa628X+//FMPi7/ym40nFTq9VyX1yqPM8ypeek/tdoNHIZg5+XnlGpVPJzP3RI80pq43+6QPasr0IGv4bUH0qfKLgcNMBj33clfkj4vheUpM4XQhAWFkpCQiJWqxW73e71nF6vJzc3l+XLl+Pr68u5c+cYNWoUixYtpLOzk7a2tsu+Q6PRkJ6ezuOPP868efM4efIknZ2dsjDUarXExcVx3/33MW7cOCorK+nt7UWlUuHj44PT6cTHx0cWvm63Wy47Ojqa++67j7Fjx3Lw4EGEEF79qtVqGT58OA/98iHGjRtHaWkpFovlkvXV6/VkZ2fz0C8fIi09jWPHjuFyuS7arsjISO6++26uv/56KirK6ezsvGS5arUanU7HlCmT+dvfVpKdnc3Ro0fp6+uTy/Px8WH06NEsW7aM6OgoysvLLzjJ6vV6uY3Sv1qtFrfbLfcLgEaj+Y8XuN8ESej8UMiQZ30Hr+3ve61/X1Cr1Wg0Gpnc/tDnpILvDj+MVf4fAJVKhdFoJDIyErPZjEaj+V42GCEEarWayMhI7r33Pl577TUWL16MwWDwes7f35/bbruNpUuXkpKSgr+/P9dccw2///0feOSRR4iJibnse8xmMwsWLGDevHmYzSb6+vrQarX4+/vLwiEyMpI5s+cwdepUAgICgIHNx2g0Mnv2bB599FGys7NxOp3yCVutVhMeHs7ChQt5+OGHmTt3LuC9Wet0OlJTU7nu2uvIysrC6XRetq81Gg2xsbHcvPhmZl4zE6324q49KpWKgIAAZs6cyS233EJMzJBvHMOIiAjuuGMpEyZMBKC/vx+dToevr69MtIYPH86NN95IXt4EhBA4nU60Wi0xMTEsXryYZcuWER8fj9vtlslDWFgY06ZNY+nSpSxdupR58+YRHx9/ybr/UCCEwO1243K5cLvd//HCx7O+LpdLJngSofj/4ylc6hOHw3FRIq5AgYQf9m51EahUKiIiIhgzZgxtba0cO3Ycm82GWq2WT4YqlYrAwEDGjBmD0+nkq6++orOz04ttazQaYmJiSElJoauri2PHjpGZmcmTTz7J4cOHeeKJJ7Bard9LG9VqNX19fbS3txMeHs6DDz6IzWZj69atshZg+PDhzJo1i+PHj7N582ba2trYtm0ro0ePZtasWRQUFPDaa695bRBS+w0GA5MnT2bRokWUlJTwl7/8FavVys9+9jPCwsJYvXo1bW1t54Wl4zxBGCA148ePZ9GiRUyZMgW73U5zczOHDh0CvlYXl5WV8eqrr/L4449zzz33sHfvXq++NBj0JCcnodfr+eqro7S3t3ud1AdDCEFfXx9dXV3YbDa5TWq1GoPBgF6vlwWEVquhr6+Pvr4+9Ho9RqNRJjculwun00l/fz9CCMxmMzfddBMzZ85k586dPPfccwQHB7N48WK6urrYsGGDV71UqgHiFhERweTJk1m8eDEjR46kqqqKs2fPUl5eTkBAADfccAMLFy5kxIgRhIeHI4Sgu7ubo0eP8v7777Np06YL5uOVQK/XExISgtVqobu7x0tNr9frCAwMxGQy09/fT21t7bcyZ0n9aTKZ0Gg0dHV14XQ6L3jOx8cHvV6PTqcjJCQEu91OTU3NBc96fkej0eDv74/T6aS3t/eK23ul8CQEQgh0Op1MjKXxl7RD0lz6bz+JS6TJZDLh5+eHy+Wip6eHvr4+eW38N7dfwb+G/zoCoVaryczMZP369VRWVnLzzTdz+vRprw1Aq9UyceJE1q5di81m48Ybb+SLL77wWiA6nY6FCxfym9/8hp07d3LPPfdgMpmYNGkiDocdg8FwWbX6dwmXy0VXVxfvvfceOp2OX/ziF/zmN7/B7Xbx4YcfYTQaWbp0KZGRkezcuRO3201CQgJCCI4cOUJ6ejojRowgJyeHnp5u1GoNDoeD+vp6+vv7SUtL47bbbsPpdLJmzRqOHTtGWFgYkydPYsqUq6mrq2Pt2rXnTyhuIiIiuPHGm0hMTGTKlCkYDAa+/PJLNm/eTH5+PkajkbCwMHx8fM5rbqCqqoojRw7T3d1NVlYWHR0dAHR0dGAymUhNTUOj0dDQ0EBkZKR8opWEvdPpxGazYbPZZO2Q5HMgjV9ycjITJ07EZDJht/fT19dPeHg4CQkJBAYGMmPGDFJTh+PjY0SlUtHf30ddXT379+/HYrEwffp0brnlFk6dOsXKlStpaWkhMzOT2bNnYzKZqK+vJz8/X9YKxccP45577mHChAnk5uZitVrZtWsXW7du5fjxYwAEBwdz7bXXkpSUREFBAbW1tQQEmMnIyGD8+PFERUXR09PDxx9/jMPhuKJ5IQnGuLg4li1bRmlpKevWrZPnqVarJT5+GNdddx05OTkcPHiQNWvWfGOZ0toZMmQIt956K06nk/fee4/Kykqv9/r4+JCVlcWkSZMIDQ0lLS2NgwcP8n//7/+VtUiDhZBWqyU9PZ1rr72WxsZGNm/eTEtLyxW1+0ogtcftdp/vj3jy8vIIDAzA5XKh0+mxWCzU1NRw/PhxGhsbvXxW/huFqEQcpH3Bx8fnvLYMenp6KSws5NixY/+17Vfwr+O/jkC43W5KSko4e7aU4cNTyczM5PTp0xeQgylXTyEgIED2Ffjiiy+8yjEajaSmpuLj40NxcbF8EnE6Xdhsff/WNg2GEAKXy0VrayvvvfcewcHBzJo1C39/E263mzFjclm0aBE6nY7JkyeTnp6OEAMnKj8/f/z8/Jg6dSo5OdmACrvdTl1dHU8//TRCCB544AEyMzN5++23OXr0KOHh4RgMBrZs+YTc3DH85Cc/obS0lN7eXgwGA1lZWQwdOpTOzk4KCgr4+OOP+eKLL4iIiCA0NBSNRsOPf/xjpk2bJtfdYDAQHBxMdHQMzzzzDDqdDovFwq5duzhz5jTZ2dlERERw++13MG/efDQaDS6XC4fDgRCC9vZ2vvjiCzQaDXFxcaSkpBAaGkpycjIPPvggPT09JCUlcd111xESEiJrnyQzDMDdd98tC3/J9HDixAmsVis6nY77778fvV7P66+/Rnl5GdHR0TgcDg4c2M8ddyxlyZIf0dTUiFqtxsfHhylTpnDVVVfR2NjIhx9+yPbt2yktLcXPz4+AgEA6Ojrp7+9ny5YtvPzyy7Lmy9fXd8CH46GHmDBhAmPHjmX37t0yqfo2kASjTqcjLS2VW265hcLCQnbu3CkTCLfbTXd3N1arlYyMDEpLS73afznhoNfrSUtL4+abb6a+vp49e/ZQWVnpRTDcbjc9PT3U1NQghCAvLw+TyXSBT4TnewwGA6mpqdx0002UlZVRUFBAS0vLBcLq29Tx2/aRVEZiYiK33347bW1tHD58GKfTSXp6OtOnT0etVvPcc8/R2Ngof/e7EJ6edfLUFP27BPWANjaA6dNnMH36dCorKzl8+DBut5uxY8cyd+61xMbGUlhYiMvlUkjEv4CLjfF/C743AvFdTUQhBK2trXzxxUEyMjIZP348GzdulFXNarWaoKAgMjMysdls6PV6Zs6cyd///nfsdrs82NHR0SQlJdHa2sqBAwfksqWNUohLq9SvBP+v/dDY2Mgrr7zCrl27KC4uPm/SeIiAgABKSko4ePAgTqcTIQQxMTGkp2fQ0dFBQUEBNpsNrVaL0+mkvb0dg8HADTfcwK233kpvby+TJ08mJycbrVaHTqfDbDZjMpkIDg7m9ttvZ8uWLTidTlpbW/nwww/ZunUrp06doqGhAZPJxLJly8jOzuaVV16hpaWFqqoqEhMTycrKori4mAMHDuDj4yOftG02Ky6Xi7y8CSQkJOB0OklJSZFJQ1hYGEajkY6ODs6ePUtHRwdpaWlMmDBBNjmYzSZ+/vOf09HRwe7du3nllZcJDQ3F6XThFm4CAwK5+uqriYiIYMeOHVRUVMiC1+l00tzchK+vL7fffjtTpkyhsbGRRYtu5IYbFhIQEIAQgqCgIIKDg5k8eQrl5RW0t7djt9s5e/Ys77//Hrt2fUplZSXt7e2kp6fx05/+FIfDwerVq6moqGDjxo1YLBZ5TtrtdoqKivjiiy8YPXo0fn5+ssD1dEC9HKQ55OfnR1RUNKdPn0aj0TBkyBCqq6vRaDQ4nU4aGhrYt28f8+bN+1bzTnrGbrdz4sQJnn/+OXp7eykrK7vg2f7+fkpKSigpKSE1NZUxY8bIpE/y/xj8TpvNxuHDh1m5ciWdnZ3U1Jy7ZD10Oh3h4eFotVqqq6uveN14buDh4eFcf/31DBs2jBdffJHa2loAioqKaGxsZObMmTL5ge9eqPv6+hIaGorD4aCpqenf5nug0+kYNSqbBQsWUFFRwdq1a2loaADg5MmT2Gw2MjMziI+Po7y84r9OAP67oNFoCAkJwcfHh6amJmw22/ddpf8VfC8EQtocv6uQL6fTyf79+7nrrrtITU0lKChIjjpQq9WkpaWRmJjIsWPHSEhIIDExkdDQUOrr62WbbFxcHDExMdTU1FBXVyfX8+u6Xvzd0klZev6b2iQJCMnOOBgXO4lpNBovB6eqqiqqqqrw8/PjjjtuZ+rUqfT393PmzBn+53/+h46ODvR6PdOmTWPYsGGUl5fz17/+lfr6elmwSEK0s7OTpqYm7Ha7rKGxWq3YbDY6OzspKztLYmIS06dPx+FwoNfrOHXqFK+//jpfffWVXE+tVktUVBTR0dHn/S+2sWnTB9x4403cd999bNq0iddeew0hhBxBotPpGDt2LIsXL8blcvHqq6+ya9cu7HY7Wq2WG264gZtuuolt27bxyiuv0NzcTFBQEOvXryM3N5c777yLmpoann/+eTo7OyktLaWhocHr9BofH090dDQ+Pj6sXbuWvXv3ytEiUp/Gx8fT3NxMfX09vb29hIWF4XI56evro6enl7q6OkpKSsjMzGTevHmcPn0agL1797JmzQt0dHTI88jHx0hcXBw9PT243e4LNg7pOan9Go0Gt/tfszer1Wqio6NJS0tj//79jBs3jqysLA4cODDIV+NrjYD0fqfTeUmyItWloaGBd9/dgMvlwm63e61jz0iawfN1MDzntNvtpra2lg0bNshkQ3JgHBxi6efnx9ixYwkPD+f111+nr6/PK7rFs22SmWtwGVJdQ0JCSE5OpqKigvr6eplAWiwW+QTe1dXlFTnjaf7wbIvUbokkSd+R5p3UD9LfJX8CtVqNVquVSenkyZPp7u5m27Ztl8xL4VkPqXxP50/P5z3rPrgcaVwiIiKYNm0aJpOJXbt20djYKJfb2trKnj17cDqd+Pr6XbQOg+vo2VdSf1xs7D3nyuAIJc8yLndql/bCrw91Qp7D0vcH+3h51udyxNxzjXjOIUkLM/hZz7Z7HlYH1vOA6TUrK4vY2Fh27txBfX3DN9bhh4B/O4GQHK2EEPJmOnhR/r/C5XJx+PBhGhoaSExMJDs7m08//RQYEPCJiYmYzWZef/01pk6dxtixY8nLy+P9998HBk4D6enphISEsGPHDlpbWwHviWQ0GpkwYQJ5eXkIIaioKGfv3s+pqKiQ66HT6XC5XPj4+JCensbEiRMJj4gYcC5saubgwYN89dVXXvkahg8fztSpV3P69BkOHDhAf3+/V9ukk/bUqVMZMmQIAFarlaNHjxIZGcmyZfei1+vp6+tDpVLR3t6OxWJBp9PR2tqK3W7HarXS3NxMT0+PV9lqtZq3315PUVERNpuNxsZGrFYrTqfjvBOiG4PBwNixY5k/fz5nz55l2LBh+Pr6otVq0Wg0sjAKCAggJiYGi8VCY2Mj3d3duN1uent7cbvdWK1WL1u35Pw6Y8YMsrOz6enpoaGhgb1792K32wkKCiIvLw+NRsPZs2c5cOCAvDgNBgNut2Dx4pupra1h+/btdHd3X3Ru2Gw23G637Czn6bgnbTDnzp1j1apVvP/++9TX19He3nHewdKB0zmwgYSGhjJ9+nSSk5Ox2+3k5OQQHh7u4ecxQMjCwsIwm83U1NTQ1XVhyKi0+YWFhXHVVVfR399PaelZedyvhEhIUSZRUVHk5+eTkJBAXFzcRYWQRqORhZekAfqmd7ndbvr6+uT2XU5ASP+/XC4R6Z0SGZEIlERmpA1ZEgKBgYHk5OTQ29vrRcQGCzDJYXbwewYLVz8/P6Kjo9Hr9fT398t1a2lpYffu3V7fv5QT6MXKlQ4R0thKfSdB6hOJiGk0GiIjIxk5ciRfffXVBSHZF3unp4Pnxfrhm/4ujV1MTAw5OTk0NjZy9uxZecykssvLy2lra5Md0T0xWDhfqk8u9n9PEjH47xcrwxMSGZP8ojz/frk2f5MJQfq+REY8D4KeMmpwGRdrn9Q2icSGhYWRnp6OyWQa0Ib+wImDhH8bgZAm6x133MHcuXPRarVs2vQBzz+/Ug6Nu1KnsUtBcr47fPgwc+fOJSEhQa5DYGAgkydPBgQHD36J0+kiLy+P9PR0YGAC+Pr6MmLECHQ6HadOFdPb2+sVtjlkyBD+/Oc/M378eDo6OggLCyM8PJyjR4/yyCPLOXbsuDzhoqOj+fGPb+Wee36KwWCgqqoKgPj4eKxWK88//zwvvPACKpWKkJAQfvzjH/OrX/2KrVu3UlVV5UVIpDaEhYVx7733Mn36dADa29t58cUXycrKIiwslD179jBmzBgiIyO5/vrraWlpQaPRkJs7moCAAIYOHcr8+fOpr6+X2XFHRwenT5/G5XIzfPhw2Rly8EbldrtpbW1l48aNnD59mpSUFG699VbWrFnDuXPn5M1t2LBhZGRksGnTJi9HNJ1Oh1arPa9qj8JuH9i4zeYApk2bxg033IDD4aC/v19OliUJ5eDgYOx2O9XV1V6CSaPRYDQazwsdZCE3bNgwbrjhBoKCgnC5XWjUGgICAsjMzCQsLIy7776b2bNnI4TAarVSWFjItm3bZI3Q1VdfTXJystzvnqGoTqeTkpIS3n77bTQaDdOmTWPevHlERUXS0jJAOPV6PcOHD8dsNrNp0yba2wd8GgbnxRgyZAj33Xcfubm55Ofns3v3bqxW67c2X0iQ+rW+vp4vv/ySsWPHkpCQQGRkpDwGgzdoiSxHRkbS1tZGSUkJ7e3tcpl6vV4ey/DwcLKysjh06BDvvPOOHK1yKXieVAfDx8eH5ORkRowYQWRkBImJiezbt593331XnmfSc6mpqYwbN47Zs2dz1VVXkZ+fz0033SSr+0+fPk13dzdhYWGyE2BfXx9tbW2UlZURFBRERkYGer0eu91OSUkJHR0dnDt3jiVLlvDAAw/w8ssvy5ojlUolb/xqtZqoqChGjBgBDAjN5uZmysvLiYyMZPjw4Wg0A5E9Z86coa6uTu6TsLAwsrIyMZnMdHd3U1dXR3d3N+3t7fT19WE2mxk5ciTjx49nzpw5REZGytrFvr4+KioqKCsrk8mkJNyDg4NJS0sjNDSUtrY2Tp06JZPxwMAAcnJySEkZTltbG7W1NRgMPlRUVGCxWEhKSsLX15fS0lI6OjpITk4mMjKSI0eOYLPZvEgPDJilmpub5b5wOp3odDqioqJISkrCbDZTX19PSUkJ3d3d5+sXxLhx44iPH0ZtbS0tLS3odDqqqqpwOp0kJCTI5q6enh58fX0xm83odDr6+/vlPcpu76e8vIKamhqvuSPEgC/T0KFDSUlJwWg0Ultby5kzZ7z2ar1eT2hoKHr9gGOs2WwmNjYWp9NJRUUF5859bS6Txt3Hx4fo6GiGDRuG0Wj0apv0nJ+fHyEhIbjdbiwWC6GhoQwdOtSrXKmOQ4YMYfTo0VxzzQymTZvGuXM1tLW10d7eTnd3NydOnJDNZz9EfGcEYvCmodFouPbaa3n44YcJCgoCYNSoUTidLlasWPG/ysikDeDzzz/nhhtuYPTo0QQHB9HZ2UVwcDBxcUM5ceIkRUVF8ul57NixREZG0tzcjMlkIiwsjLKyMo4cOSKzZSkkMD09jfb2du68806OHj1KfHw8v/vd77j55sXcdddd/OpXDwMDjphLlizhN7/5Dfn5+3jiiSf48ssv0ev1TJ48iccff4Inn3ySrq4u1q1bh81mo6SkhMrKSiorK+nq6rqgbRqNhtraWv74xz/yz3/+k9mzZzN58mSsVqvsgLZr1y7GjRtHXl4eeXl5F5SRlJTExIkT5d/dbjfl5eUsWbIEq9XKNddcw3XXXUdXVxc9PT1yUhmtVis7Ox4+fJhdu3axcuVKDAYDc+fOZcSIETJz7+joYOvWraxYsYK2tjZZTQ8Ddvr777+fxYsXy6GWNpuNsrIyTp48SUtLC8nJyQwdOhSTyUR3dzdarZbw8PDz2pavx0Ty4ejs7JRDzkaNGsWkSZMICwvjpptuIiEhwSs3gYTbbrtNPulaLBbeeecddu7ciUqlIjg4mGuuuYbMzEyam5tlMwd8nWBKinIpKCjgySef5Le//S15eRNkDYfT6aS+vp7169fz3nvvyQmoPOswbNgw1qxZw5QpU9i7dy/PPPMMxcXFF6iJvw2kE3pnZyd2u5329nZyc3NJTk6mqalJPt0DuFxOQkND+dWvfsX48eNxOBwMGTKE0tISnn9+JYcPH5bL1Wq1mM1mDAaDrB2SyP43mR8vRh4k6PV6zGYTer2BnJzRslrXE0ajkaSkJIKDgzl8+DAxMTH4+/sTEDAQNSGFLavVagIDA5kyZQq33347LpeLp59+mtLSUgIDA1m0aBGTJ09mx44dMjF/+eWXGTJkCI899hgzZ85kzZo17N69m97eXi/1tUqlYtSoUfz85z+nt7eXJ554gurqasLDw/nRj37EmDFj2LRpE+Xl5XJ0x8SJE7jnnnuwWKxUVVWRmjqcjIwMTpw4yZNPPklpaalMfB0OB2fPnsVoNBISEkJERAQ2m+2CdSNFmC1dupSwsDDKy8vl3CGvvvoqu3fvRqVSk56ewf/5P/+Hzs5OamtrCQ0Npbe3l+rqasLCwhg6dCh79uxhxYoVREdHERgYQEtLC1ar9YJ5JxFmKaw1ICCAOXPmcPPNN9Pe3k5rayuZmRnU1zewatUqiouL8fPzZ/z4PO68805aWlpob28nJCSExsYGGhoaiY6OJjIykg8//JCXXnqJefPmccstt6BSqWhqapKdkgMDA+nu7uYf//gHH374oRehmz9/PjNmzKClpQWbzUZaWhpFRYWsXr2aurp62cdl8eLFaDQa6urqMBqNGAwGIiIiaG5u5plnnmHv3r3yOBuNRmbMmMGiRYuwWq10dnaSmZnJ2bOlrFy5kqqqaqKjo7n55ptZuHAhDoeDhoYG/P39ZS1STU0NTz31FIcOHZL3NqPRSEtLK+XlFTIBlA5uZrP5O/ev+a4hvqsflUol1Gq1UKlUIjY2Vqxfv064XE5ht9tFf3+/cLlcYs+ePcLHx+d//d0ajUZMnz5dNDU1iX379on4+Hih0+nEkiVLRHl5uXjhhTVCr9eLhIQEUVxcLKqrq0VmZqbQ6XRi4cKForS0VHz00YdiyJAhQq1WC61WK6ZNmya6u7tFZWWlmDlzpgCETqcTWq1W5OXliTNnzogDBw6I0NBQoVarRWpqqjh79qz4/PPPRWZmplCpVMLHx0doNBqh1WrF1VdfLTo7O8W+fftETEyMAOT+UqlUl+xP6bmQkBDxu9/9TlRUVIj7779faDQaYTAYxLx580RbW5soKioSDz/8sPjZz34mli9fLl5++WXR0NAgDh8+LB599FHxwAMPiAcf/IX42c9+Jm677cciNDRUJCcni/fee08UFhaKGTNmCL1eL/R6vfD39xfBwcFi1apVorm5WSxdulSYTCYxZswYkZubK0JCQoSvr6/w9fUVPj4+Qq/XC41G4zUe/v7+YtmyZaK5uVnYbDbR29sruru7RW9vr2htbRUPL39YxMfHi8mTJ4t169aJnTt3iqysLKFSqURqaqooLCwUBQUFYsSIEV59FRISIn7+85+L6upqYbVaRXd3t2hoaBB33XWniI2NFf/4xz/EiRMnxHXXXSdUKpXQ6/XCx8dHGAwGERQUJH7729+KpqYm8fjjjwtAGAwGMXXqVLF//36xefNmkZiYKAwGg9BqtcJgMIixY8eKjz76SOzdu1dMnDhRREdHi6lTp4pRo0YJHx8f4e/vL3Q6nTAYDEKn08ljJo2h9BMfHy8++ugj0dvbKzZu3CiysrK8xltq37ed83FxceLPf/6zuPHGG4WPj4+YM2eO2L59u7jlljPal/QAACAASURBVFu81mJ6errYs2ePOHnyhPjZz+4XKpVKbvOWLVvEqlWrRFhYmFCpVEKr1crlDx8+XLz55pvimWeekf/uWUeVSiU0Go38jnfffVc89dRTwtfX94K2e9Y7IyNDrF27Vjz22GNe7xv8k5WVJd555x3xpz/96ZLPmM1msWzZMrF37155npjNZjF37lzxwAMPiLi4OK91FBkZKR55ZLkoLS0Vvb29Yvv27WL+/PnCYDB41Tk0NFQ8/PDDYvPmzSIjI0MAIjQ0VNx0001i2bJlIjIyUm5/SkqKWLlypXjiiSfktgYHB4t77rlH/OMf/xAjR470WhsGg0HMnj1brF+/Xtx5552XXPeZmZli1apV4i9/+YsICgoSgIiNjRV//OMfxVtvvSWys7MFICZMmCA+//xz8dZbb4n09DRx1113is8//1w8+eSTIjMzUzz66KPi448/FmPHjhXLly8Xp06dEj/60Y+EWq0WOp1OaDQaeY+S9je1Wi0MBoOYNWuW2LBhg3jooYeEv7+/AERqaqp44YUXxOuvvy4SEhIEIGbMmCHy8/PFypUrRXp6uvjFL34h9u3bJx588EGRlJQknn32WbFjxw6RkZEhhg4dKp566ilRUVEhVq1aJZKTkwUgoqOjxVNPPSX2798n5syZLY/lHXfcLj74YKO48847ZdmRnZ0t1q9fL9asWSOCg4OFRqMRycnJYuXKleLcuXNi7dq1Ii8vT+h0OjF69GixceNGsXr1anl8/P39xYIFC8QLL7wgfvSjH3mV+95774k33nhDREdHC41GIzIyMsRLL70kKisrxYsvvihGjBgh1Gq1yMvLE1u2bBErVqzwGl9AJCYmiqefflr85S9/EVFRUd+ZzP13/3ynmSg9WZXDYae314Ja7Z0itaOj4zthX2q1moKCAo4ePUpMTAypqaly1kBfX18KCg7JKtCjR49iNpsZMSILrVZLcnIyZrOZ48ePyydwGDi1qdVqqqurOXnyJPC1jcti6aW7u1u2/Q9oGSYTGhpKQUEBZ86cQYiBhEdSwqLCwkLy8/NJS0sjLi5Orrt0avN0lhp8n8LgtprNZvz8/GSbttHow+nTp3nppZdYs2YNq1ev5oMPPqC5uZmysjJee+01Vq9ezd/+too1a9bw5ptvyc6WDocDjUZDVFQUw4YNIzk5iejoKCIiIggPD5fVg9nZo3juued48skniYqKwmazYbVacTgcREdHs3DhQm688UZ0Op1sc9Xr9fT29vLMM88wevRoRo8ezXPPPYfT6cTtclNVVUVxcTG1tTVERUURGxsrp4uOj4/nyy+/pLy8HJ1OJ6fa/uSTT3j88ccZMmQINpuVzz//nN///vd88slWOjs7ZS1Sbm4u/v7+2O12+vv7ZXXptGnTaG5uZvv27RfMI6PRKEfkDB8+nIiICKKioggMDMTX15eAgACmT5/OqlWruOuuu+T8IFLkQWJiIkuWLGHKlClep0l/fz+uuWYGc+fOpbCwkD//+X84efKkl6nsSjI5ajQagoKC8Pf35+jRo7JWpbe3l4SEBK802ZLzXnl5Ba+//ob8rvLycgoLCwkLCyM6OhohhOxgK/lLDLbxeuJiNubL1d9Ts+Xv7y/70QwuXzIfSRpAg8GAVqv1WhNSm2w2G8XFxfT19TFhwgQ582lKSgq9vb2ymUI6zba2tvL88yuZM2cOf/rTn4iKiuLpp5/m3nvvlbOrSr5ER44cAQRjx46Vy01OTqarq4vu7m5Z++br60t4eLjcdyqVis7OTrZt28Ynn3zi5fwp1dtgMKDTaS+4P0X60ev1jBgxgpSUFHbs2EFXVxdarZbm5maOHDlMQEAAkydP9vIjqayspLGxCYvFSn19PUVFRTQ1NQHI/TjYD0HS0nkm0pLWbmxsLLNmzaKrq4sPPtgo+w6dPXuWLVu2EBISwowZM+T50tfXR1VVFe3t7TgcDtnMYLVa5bktORa3t7dTWlrKp59+SllZGWq1msbGRnbv3o3L5WbKlKvR6XQkJCQwbtx4ysrK2bFjB/39/ajVak6ePMn27dvJyspizpw557VTPbS1tVJUVMSbb77JwYMHZa1BVVWVnDRLcvjOycnBarVy6NAh2TelvLycI0eOkJCQQHZ2Ni6XC4vFQmdnJ4cPH+bNN9/kxIkTANTW1lJVVSWbY6S5I/WHwWDA19dX1mZeTjv3Q8F37gMhqWtbW9v47LPPmDhxIomJiWg0apqamli3bt0FjoL/W+91Op2cPHmSSZMmMXLkSE6dOkVGRgadnZ1ybgiHw8Hu3btZsGAB48fnsX//ATIyMujv76eo6ISXg50QA/92dLTLmRO1Wu15Z6iBjIySqlen05GdnY1Wq6Whof4ChydpkZ87d468vDz0er1sJhnsBHYphyTp94EMiwObj+Q8qVZrMBj0BAQEyJuU0WiU32E2m2lvb5e/B3g5sw0bNow//OEP2Gw22TnS4XAQGRmJxWIZEPhugdvtwuGwI4TAx8eHuLihjBlzFTfffDOTJk3iwIEDHD9+nLKyMvndKpWKiopySkpKMJlMtLa2olKp5EgZu91OZWUVWq2WCRMmcPr0aa655hqsVitffvklVqsVPz8/wsPDGTNmDKGhoZSXl5OQMIzPP8/n3nvvpbm5WX5fUVERzc3NTJgwgS1btnDkyBFUKhUmk4nrr7+eUaNGsXbtWi+1vbToc3NzefXVV7Farfj4+JxPNqQjICCA06dPnyeQbi+TislkIiMjg3HjxrJw4UKSkpJ4++13ZFv1QB/rCQsLp6uri08//ZTCwiK0Wu2/7AdkNBoZPnw4CQkJzJo1C5fLRUREOEFBgcTHxxMZGUltba0smKxWK1999RUWi0U2+fX09HDu3DmysrKIioqisLBQLt/lcslzQ/r3m+o6OAJisKrW0+HRbrfLvieekL4zOLWyZ+QBfL3PaDQa6uvrOXv2LBMnTmTnzp2Eh4djNBopKCjAYrHIc9nT/FJeXs7q1as5ePAg9913H7fccgttbW1s2rRJJv0NDQ3U1dUzYcIE9u7dK5OEkpIS2WcFoKmpiaKiImbOnMnvfvc7CgoKOH36NM3NzXz88cdyuySyqNUOJFdzudxyuwYTtbCwMEaOHCnXfejQoXLf+Pr6odFoMJlMcrsGIoAMXlEABsPXv0sEV/JpCAwMlJ0nL6VSj4yMlKPXWlvb5P5WqVTU1dXRa+ll7NixbNy4USZoer1ennM6nQ69Xi+/d7AQ9UwWJ415V1cn3d1dxMXFER0dTWxsLDEx0ezevYfOzk65nk6nk9LSUrq7u5k0aRKbN29GpVKjUqmx2WxefiQScQsNDSUmJoaKigqGDh1KYmIidXV1+Pn5MXRoLG63kMmclLdGaocUtSOtCyGETIhDQ0Pkcj3XgTRPB4/vD9l88W9zonS5XOzYsQO1Ws2ECRPQ6XTs37+fTz755Dt5nzRI+fn53HPPPaSlpTF69GiSk5MpKyuTBYzT6eTQoUO0tbWRkZFBWloq8fHxVFdXU1lZIW9YnncUqFQXD7kccJzRyM9KdbDZ+i7w1JYmnWQXl2zTF7tH4FJMdWAhDmyqVqtVdmpzuwe+n5GRyfLly+VFGRMTI8fRP/TQQ1itVpkc1NXV8dZbb8mRCfX19WzYsMEr26BOp2P+/PmMHDnyPPmyIwQYjQOJkK6++mquv/56srOz6e7uZteuXXzwwQcyMZBiodVqFW63kDcWaVOR+qKvr4/CwkJaW1uZMGECDQ0NTJkyhdraWg4fPiw7PZ46dYoVK1ZgsVhISEjgD3/4A0II2YYt9WVdXR0HDx7kpptuYsaMGZSWltLX18eIESO4++67qaurY+PGjV6e+DAwZ0tLS3jnnXflkD6tVktERASzZs2SNzm1WoNerycwMFAmqwsXLiQ2NvZ8UqmP2LFjxwWe7H19fRQXF3PmzJkrmdoXhWQ/Ly4uprj4JCqVmpaWFoYMiSU6OpqIiAg5bbUU+SAJYEkISBEpOp2OoKAgLyfOwWRgcIibhG+7GUplSOvI0+td+vxSzw8mLp6bsMvlorGxkfz8fJYuXUpubq6scaqtrfXShPn6+soHBJ1Oh91u58svv8TpdPLAAw+Qk5PDtm3bZN+alpYWDh8+zLXXXsuoUaPQ6/V0dXXJYd5SHRobG3nrrbewWq1MnTqVGTOm09zcwoEDB9ixYwclJSVegsTp/DoKS/rbYOFqMpnOh5ZHM2PGDLq7u2XNntFo5MyZMxQXF3v1pcv1taOudIjw1Gy4XC5ZOxAREYGvry89PV+nPvcUijDg0Orj40Nvb6+cM+frNjgR7oHwWClRm6egHKxN89R2qNUDJMozLFUKgRxow0DUm16vR6/XAyq6u7vlaBWpXIfTgUAQGhoqpyaXoo0udlGdVquVD25SRE5ISAjXXnut11oNDAwkPz9fzj0yeN1IfSwRI882epLUweG/F4Pn8z8EfKdOlIMnTHt7O+vXr2f9+vXf1Wu93ud0OqmpqaG8vIzRo0fjcDgwmUwcOXJEPgm6XC6ampooKysjPT2dG25YSFBQEIcOHaKmxts7Vq2WBvfiDp8Daj8hl1tbW4tKBbGxsV79IU3CAU/iWIQQsvC/Em2MTqfDaPSVNxJJAEpmooCAAEaMyMLlGtg0g4KCZOekjIwM+bShVg8sUKPRByljpcVi4fjx4xQUFMgL2tfXl9zcXEaNGiVPdK1Ww/DhGfzhD3+QtQnvv/8+27Zt49ChQ7L3v+TkFh8fT2+vhaamJnlBSRubj48PMCAEqqqqOHr0KD/60Y/49a9/jdFoZPXq1XICI7fbTWNjI42NjXKqbKlvJUh93tLSwo4dOxgzZgw33HADxcXFNDQ0sHz5ciIjI3nyySflTKSDSVtbWzv5+fk0NjbidrvR6XQkJSWRm5tLUFCQvHFotVomT57M+PHjCQwMpKysjL///e/s2bOHoqIiObuihK6uLt566y127Ngh99GlQgUvB6mN/v7+xMTEkJ+fz759+4EBoWMymbjzzjtJTEzk6NGjcn9LJ1FPwS2dtCQi4almH7yxXcrp2fM70uZ8MdOGBMlkcbHPpe96EhZJte65lqTPpfDJvr4+SkpKaGtrY/r06Zw8eZL6+npZ0+V2u4mLi2PixIls27ZNjmCQhGpdXR1nzpwhODgYnU4rv8Nms3Hq1CkmTZrErFmzKC8v5/Tp03LUiqezdW9vLy+88AIbN24kJyeHKVOmMHv2bJKTk/n73/8um0AHvgfw9fXvniRN6meHw0Fvby+1tXVs2PAuFRWVslCU9jrpoCDVxVNLM1iQSX1VXV1Ne3s7Q4cOxWw209PT46UtioyMJCMjg8rKSrkuRqNRJhISBsysA1ltpTBcaY55kkTvcZZyXYDbfaG2SpofarUai8UiHzAGhwZL0Gl16LQ6uvq6sNv70esNF5z4PeH5md1ulyNa3njjDdlxW/pcigzz1Ih9m/tBPNeLw+HwCtn3DFUenEPkh4LvjEBcqhP+XZ0jDXJ7ezvHjh1nyZIlGAwG+vv7KS4uxmKxyJPcZrPxxRdfMHXqVKZMmYJWq/UK3ZGgVkuqNXHRCSwRC5VqYCF98cUXNDU1k5OTQ3JyMqWlpfKzKpWK3NxcJk2aTFFRkRya6OvrS3BwML29vV4b06UgtUGtVpGaOpzExCR5Qh49epRf//oROju75LTWv/71r6msrOSJJx6nsbFJJgcwEP8eGxt7/o6AOB588EG5DlKbpEiLARWl5rypxEBNTQ17PtvD/n37OXHiBDabjdzcXKZOncrevXvl6JagoCDOnTsnq/ekmyml3BASs5cySc6ePZthw4aRn5/P2rVr5TZfrF8Gs3qpnv39/Zw8eZJNmzbxwAMPsHz5ctra2sjLG88HH3zA22+/fdE+1mg0ZGZm8vjjj8snEpVqINQrLS2Nc+fOyYteo9Hg62tk//6j7Nq1i4MHv+TUqVMYjUbGjx+PSqWioKDAKz21pLqX1Pf/CiRBYzKZ0Go11NTUeAncnp4eOTmWj4/PeaLq9jpZSm01Go1ypEt9fb2shvbUQnjOl8tteFKfSH02eMyksjzH7GJkxVOzMECwhFefSyfexsZGr9wZzc3NnDlzhkWLFuFwODh48KB8b4pKpcLX15cxY8bgcDh4++23veohnUz7+vq8Yvbdbjc1NTVUVVUxZ84cent72bp16wXELyEhgbFjx/Luu+9SV1dHXV0d+fn5XHvttSxYsIAxY8Zw+vRp2WTjcrno7++XM65K5CsiIkJ+Z1tbG2fOnCExMZGAgMBBl88Z5HwWnmrzwURLyqArxNfCqrm5mYqKCuLj40lOTpKzUEqfDxs2jJEjR1JSUkJnZycNDfWYTP4YjT6y+UsIQUBAAEajkePHj5+/aM+N2+2So5Gksfz6R5pTX/ft4HBxqVxfX1+OHTtGe3s7nZ2ddHV1ERoaitFolKNwhBAEBgai0+koLi6mra2dmJgYL78jqV2DIYXmNjU1ySHjUvp3qdzExAS6urrlkFKpP7+Nn9LX2gmHl3baZDIRGRlJZ2cnjY2NlyXa/6n4r77OWwhBV1cXJ06cQAhBbGwsdXV1siCXNgaXy8WxY8fo6uoiOjoai8VCUVHRBdoAT9Iw2Pb69TNfq1rPnDnDli1bGD169PkQvzx8fX0JCQlh9uzZ/O53v6O3t5dVq1bR1taG2Wxm4cKFvPjii9x7772EhIR8Y/ukSZyUlMzDDy/n7rvvxmAwYLfbsVgsnD59hpqaGmpra6mrq8Nut9PV1UVJSSkVFRXnTTUDYaPSTZYDjNxBY2Mj5eXlVFZWyrdJtre343INbJg6nRaVaiD979NPP83qVavJz8+no6MDPz8/Fi1axCOPPEJubi46nY64uKGEhIRQU1NDR0eHbEuPioryUqu7XC5MJpMcs65Wq/H39ycsLEw2I0g/gzcIz7HxFEjd3d3s2LGDo0ePMm7cOObOncPp02dYsWIFTU1NFyUfUuKr8vJySktLKS8vp6ysjKqqKjmzpFQfu93Onj2f8eijv+Wll/7B8ePHcTqdxMbGcscdd7Bs2TI5nNTtdhMeHs5vfvMbXnnlFe699178/PwuaMc3Qaqz0WgkPj6enp5eGhoa5A3VarWed6RrJCUlxeNOEPD1Ncr9K52CYmJiSEhIoLy8XN4oPU9p0thIpOdSalnpOZvNRl9fn9ftltJznpoJyR9IcsIdLPwk2O12urt7MJlM6HQ6TCYTI0eOZPjw4bIWTvpOZ2cnRUVFcsrw6upqr5NtX18fRqORW2+99Xw4+YCg0+v1xMfHERYWSklpiSwkpfp2dHRw8uRJent76evro76+3qtNMOCvMGvWLMaOHSvX3WKxUF1dTWtrq1wnz37t7u6W75Zxu90EBQWRk5NDZGQkQgh6eno4cuQIVquV+fPnExUVdX4N6sjISGfu3DkEBQXJmgjPLJzSmEhj73INaCv7+vqora2VL9ybO3cukZERct3S0lLJzc3l1KlTnDt3jsrKSvLz9xEeHkF2do5MLqOiopg0aRIWi5WdO3edN4O66O21yJpVT9LwteZhoD4SaTKbzfK9O263m9jYWGbMmEF/fz+fffYZVquVM2fOcPjwYeLi4sjMzJTn6LBhw5g+fTqNjY1yJk+32y1rRCSy6rnOHQ6HnPtCyi4bHx/PxIkTMRgMCDEQ2jlp0iRmz57jpSG12+0X+KtcDNL+09dnw2KxephhBu5iGTNmDL6+vpdZ5f/Z+K+7TGswLBYLx44do66ujvj4eM6dO+eVAdHtHshkKAmI7Oxs2traqK6uvmh5nhNAgnQa8vExYjT6ypOvtbWVVatW0dfXx/z5889fMd6GVqshMDCI1tZWHnnkETZv3iw7GyUmJjJ9+nTsdjvr1q2T/QcujgF/B6PRyIIFCwDYuHGjvAkHBwczZswYOjs7MRqNJCQkyB7v2dnZNDU1nXfcG7AlNjU1yySpoaGBdevWyRn5JFur2WwmJiYGt3vAxjqwUfTKaZ+l/pBMFn5+flgsFnx9fZky5WpCQkI4cOAAnZ2dsuo/LCxMFjYAZrOZJUuWcP/99wNw+PBhsrOzWb16NX/961/Zs2ePVx4CKZHP4IyKkupRunVx0aJF5OTk4HA48PHxYciQIVx33XVs2rRJHm9JUDgcA06xZWVlrFmzhrKyMvlELSXxCQ0NxeVyyWrn1tYWOTmXVAfJn8DpdGC1WuR3BAYGMnHiRHJycrDb7bz33gavE923gRADjqs5OTncfvvthIeHc/z4cTn9t9lsJiUlhcTERMLDw5k3bx7vvvsuDoeDlpZW9HodDz30EMXFxZhMJnJzc2lra+Pdd9+V1f06nY6YmBiSk5NJTExk1KhRxMTEsGDBAurr66mqqpJPrT4+PiQlJRETE0NiYiJpaWmYTCbmzZtHQ0MDlZWVNDc3y/0ydOhQ0tLSSEpKYuTIkZjNZq6//nrq6+upqKiQM8BKG39raytFRYXceOONrFixgtbWVqxWK59++qmc4VTSyDkcDqqqqigoKODs2bN0dnZ69Vt3dzfV1dXk5eXx05/+lOLiYurq6ggPDyctLY0zZ0rY/elur2y5ElE8d+4cX331FadOnZLnvKfpS6VSkZSUxIMPPkhWVha1tbVy0qi2tjYKCwtl8imtrZqaGioqKpg5cyZxcXH09/fT2NgoO/a6XC6KiopYt24dixYtYsWKFZSWlsrXpx8+fJgzZ87g5+dHSkoKycnJtLe3k5mZSWpqKikpKZw5c4aUlBQyMzNISUkmNzeXs2fPsmvXLnx8fJgzZw5/+ctfZb8nrVbLl19+yeeff45KpaKnp4fPPvsMk8nELbfcTHb2KGpr60hJSSEsLIx169ZRUFBAeHgYOTk5JCYmkpqayqhRo8jIyCAlZcDJ12q1kpmZxdChceTm5rJv3z5UqoEEeddccw2+vr7YbDZGjhxBZGQUr732Gvv27QOgtbWV3bt3Yzab+clPfsL48ePP52vIQK838Pe//53CwkLMZjM5OTmMGzeOoUOHMnLkSMrKyrBYLIwYMYKMjAwiIyOZPHkyXV2dtLe3s3PnTvz8/Fi4cCHjx4+npaWFwMBAnE4nO3fupLq6moCAAEaOHElOTg4BAWbS0lIpLy/H6XSSmZkpX+o3YcIEOjo65Oic9vYOiooKSU9PZ/ny5dTU1KDX6zl06JCSSOo/GW63m+LiYh577DGGDBnCoUOHLthMJH+F5557jtjYWE6dOiWfLDzLKS0t5de//jUVFRVytIP0WWNjI88++yyhoaFUVVV5RFlU8/zzz7Fjx3aSkpJlB6OmpiaOHDnilb2xt7eXDRs2UFdXx9mzZ+WbAC+GAQEdRELCgHCwWCy8+uqrPPvss/KJLC8vj02bNsm2PIPBgL+/P8nJyUyYMMFLNdvZ2cmrr77KJ598Ip/qe3t7Za91lUol2z4HNDvdOBx2HA4HZrOZoKAgOYJEUi2npqbKCVmkbHt1dXVYrVYWLlxIb2+vvMlIIV4hISHcf//93HffffT39/PUU0/x+eefs3z5w/z4x7cRHBzMG2+8wfvvv09dXZ0sMCQnK0nIS8IkIiKCBQsWsGTJErKzszl3rponn3wCnU7PT3/6U5566iluvPFGNmx4ly1bPpEzhWo0GvR6nazOlAiFSjVwZ4a0yVksFtkEERQUTGBgoByaFhAQQGJiAiEhIRQWFsoZKlUqlRyB1NbWxvr162lsbPJyZvy2GFCPuti7d6/sGe5JYGw2Gx999BEul4uWlhb0ej21tbU8/vjj5y/7Smfo0KHAwF0eR48elbMpSkIzJCSEpKQkXC4X69evk8dcugJegkQG4+Li6Ovr4/XXX0cIQXh4OGq1SiYa0rMhIQPe6j09Pbz55psA8olbckz0XKednZ18/PFmGhubGDJkCM3NzRQVFVFeXu5lDpHu03C73TQ0NFBYWChHJ0j90tHRwdq1a9m5cwcul4uUlOHyOtqwYQOnTp2ip6dHtlMDsoYCBgh2cXGx/C7Pk2hJSQmPPfaYrEkLCwvF7XaTn5/PiRMnZG2I53eampp45513KCkpITQ0lIaGBoqKiuQ+k7SpW7Zs4dSpU+Tk5ODn50t3dw9nz56luLiYrq4uwsPD6ejo4MUXXzxPAqG0tJT169dTVTUQ2XTw4JecOVNCV1cXAQEBNDU1yTfvjho1CrPZTFdXF6dOneLEiROyJlbyTVq7di1ZWVkkJSVhMpk4efIkJ0+epLKy8rz/w4Apbd26t6ipqZXNqdXV1VRXV+N2u9m6dSu+vr50d3ej0WjkG4EPHjxIY2MjERERfPXVMU6cWMuJEyfkfnY4HLLfSVZWFnFxcRgMBvbt209hYaGsOZPI3qeffoparZb3CmmNbNmyRXacNRp9aW0dyML6z3/+k1GjRpGUlIROp6OiooJjx45RXl6OEAK9Xo/NZmP79u2oVCq6urrkCwHdbhfbtm1DrVZhs1nx9fWlvb39vAaij/37D9DT00taWpqsoS4sLPzG1OX/yVAxkBDi/5fw3FA8bb0X+3wwPO3Ag73HpVwKnmFpl7JxS45GF3M2u5xHrk6n46qrruKpp55i1KiR/POfL7Ny5fM0NTUzY8YMNm/eTF1dHZ999plsv/e0R2u1WtmvQfJs37NnDydPnuT3v/896enp/PKXv6S0tJTf//73JCUloT6f5bG1tZVbb72V9vZ2nnjiCRYvXkxdXZ18anW5XISFhZ2/8XI7L7zwAj/5yT1MmJDHqlWraWxs5E9/+pOXHfOVV17hgw8+4Je//CVz5syhqqqKJ554go0bN2K32wkLC+OPf/wj999/Pzabjb179/LRRx+RkJBAbm4uoaGhDBs2jA0bNrB8+XJSUlKYMWMGCxYsIDs7G4vFwsaNG3njjTcoKChApVKRl5fHww8/zNy5c3E4HJSXl7N9+3Zef/11goODefzxx+noMMUmjwAAIABJREFU6ODee5fh42PkT3/6E0FBQYSGhhIXF8fu3bv5wx9+T2xsLM8++xzp6ely6mG3242Pjw8xMTG4XC7+9re/8eyzz8oe/dL4+vr6yhqjy82TS2HwHJU0Mv+KQ+bgciVcag1I7xrsrHe5NlzMVPRt6vJNzpjScyaTiaioKJqbmxkzZgzZ2dm8/PLLtLe3e10c5/nui61zab1IxMRsNhMVFUVLSwt5eXkMHTqUN998UxaA3/ZeisH7wTe17WI2+8vV9dtqrzzbfKl9xtME6Fn25falfwUhISHcdtttTJkymRdeeJFdu3Z5fX4x/5mLtUc6PEgHssFj8m3qfak9X+qHwVFJl8Ngnx5PM943ve+Hgv96DcRgeA7Y4I3X0456OecYKQb+UotbCnHy/JvnO6TNVrJTSrkkpOekhTDYjukJh8PB0aNHeeqpp0hJSWHdunW0trbKDNvhcFBQUMDSpUu/9QRVq9XEx8d7JM4aIBbBwcFcffXV9Pf309bWxmuvvUZpaSkOh4N//OMl9Ho9Y8aMITw8XL48rL+/n1deeYWXXnpJFqhHjhzl448/xtfXl4MHv2DIkFjcbhebN2/hgw8+4Be/+AXz58/n6NGj/PnPf5ZtmQDNzc08+uijlJaWsnz5coKDg2lra+Oqq65i2rRpuN1uysrK2Lp1K0IIJk+ezBNPPIHNZmP37t08//zzXqYPtVrNnj17OHToEPPnz+ehhx4iMzOTpKQk9Ho9Op1WjpuXLtBKSUlh9OjRWCwWTp06xZYtW2hqaqalpZUVK1Zw7733Eh0djclkwmg0yol0PvroI9auXSubaCSbr1qtlpMK/atOlNJc8pwzkpD0PBl7eq5Lc9dz3nmetAfPF8+IDanvpHk8mKhI5UrmKWkeSZuvZxmSZky6bVX6/WI2fIlkS0Rfaq8nedHpdFx33XW8+OKLFBUVcfz48f+PvTePj7K6F//fs89kX8m+J4QQSAgQAgiyKSCbiCKbqFd/eGtrb9X23mrb+7W1WotdbOt6tdoqSuuCILLvIDskkEQSskJ2spF1JrPP74/hOcyEgKDi+rxfL17AzDPnOec85znncz7buXAGyfkBnZ6l+kp19rynpJl0uVz4+vqyZMlifve7Zzhx4gTHjx/ngw8+EGc/eAoF/YUS6dlI73v/5+zZH56LDXBJH3gKCgMt7FqtVtRbmsuk59PfGVZqs/RvqU89hRlpAR5oLuzve9RfiOz/b6kOnmNNitYIDAwkIcGdhyEpKYng4GCMRqPXYVYDCUdSf0gLs+dYlO7tOU6kMST1jWfOC8/n7ukrIY1j6fl5hsF6tluqh3TP/mPA896eZX9RQf/rRtZA9JOqJT7LMcbThjmQ5C593l+9OZDQ4TmgBqrb1SJNZJGRkcybN4/6+no2b948oCTe/+WWUKvVxMTEEBISQlVVlTD3eO6aPdt8pTpK30m5E6RzPAZaLNVqtdAmHD9+3CtixROdTkdycjL+/v6cPHmCpKQkYmJiMZmM1NbWCW/myMhIZs6cyblz5/jkk0+8Qs48+0FK3hQYGHjBxFHL2bNnCQ4OZtiwYSLhkjRxSAvc1Xhff5u5Gg3EFyn7evVdamoqK1aswOl08tFHH3H8+HGvhUh6F69mBy6hUqnIzMxk+d3LsZgtrF27loKCAlFO/7K/KXi2ayBNlSdXasv1eF7S+xQYGMjkyZOZOHGiyKy5f/9+jh07NuA7K/PNQhYgrtJkMNDvrvRiXc01nve8mvt+3XhK3nB19f28bfLcEV+urGs1O31ePHfrn1dTIPPV4zlePcfElzE+rsa0IHN5vmwziMzXw/fOhOHJZy1Qn/W7q9l9X2sdvgiSird/MpnPY1f3tG0PxPV48aV6S4LB5TQ7EgO1y3Mn5fnZleg/mXn2n6cKUp7svvl4atckviyBYSAbuLwQfn48N1kDmWRkvvl8rzUQ3zU8VZBwdYLOtXC5BE5X4lqu9dQoDLTDu5ayr2Vi98y972nD72+zl7UP3w4GcpL05PO+DwM5PMoChMz3GVmA+A5xNYvu14k8ycrIyMh8d/hOZ6KUkZGRkZGRuT7IAoSMjIyMjIzMNfO9dqL8rvFZTocyMjIyMjJfFrIGQkZGRkZGRuaakQWI7zDftMQ2MjIyMjLfHWQB4nuALETIyMjIyHzZyALE9wRZiJCRkZGR+TKRBYjvEbIQISMjIyPzZSFHYcgMiBzRISMjIyNzJWQNhIyMjIyMjMw1IwsQMjIyMjIyMteMbMKQGRDp4Kz+hwfJyMjIyMiALEB86cf+ftO53AmFniiVStRqNSqVCqVSic1mw2q1flVVlJGRkZH5FqACfv11V+Kr4HILplKpRKPRoFarcTgcX3GtPj9arZapU6fy2GOPYbPZqK6uRqFQoNFo0Gq1KJVKHA4HarWalJQUfvrTnzJy5EhOnz6N2WxGpVJdcjy1SqVCpVJhMBhYvHgxjz/+OEqlkqKiIhwOh9BG6PV6pk6dyk9+8hNxb6VSeUmZ0tHYKpUKtVqNVqvl5ptv5gc/+AFKpZLa2lqvPlcoFERERLBixQpuvvlmamtr6erqEs9OqVSKOigUCvz8/EhMTESn09Hb24tKpSIgIICUlBQCAwOJiIggIiKC8PBwAgMDCQ0NJTIykrCwMMLCwggKCiIkJITo6CiUShW9vb2iLhqNhpycHJ588jfExcVx/PhxNBoNTqcTtVqNn58fAQEB+Pn5YTAY8PHxEX8MBgMGgwFfX19sNts1HQOuVCq/kCDb/0h3T03StxGFQiHG5dd5nLpn/12uL6Xjvr9I2f0/l94d6ch56bMvOk5kZL4MvpMaCOmFvJoXTKFQfCt31yqVioSEBG6++Wby8/PF5Gq1WoUgodFoUCgUBAYGMHbsWGpqatDpdIC73UqlUvxOmqRdLhfDhg3j7rvvJjIyktdeew2bzQZcXNyUSiXR0dHMnTuX0tJS9u7dKwSBtLQ0li5dis1m49lnnxW/VSgUREdHM2vWLG677Taqq6vZs2ePaI9CoUCr1ZKRMYTFixdhtdrYsmULNTU1aDQarFYrLpcLtVqNQqFAp9Mxbdo0HnnkEfLz81m5ciV9fX0sXLiQn/3sZwQHB6NWqzGZTNjtdiHMOJ1OIVgplUrsdjtGo5E1a9bwpz/9kc7OLsAtoA0ePJgJEybS0dEp+svf35958+Zx77334uvrKyZ4z0XA4XBgNBppbm7mtddeY+fOnSgUCpxOJ3q9nuHDh5OTk0NQUBBms5mjR49y9OhRnE7nF14UpGfvcDhwOp04nU4hdH0bkRbMr1N4APdcIgnnFosFu90+4DWft+zLPSOXy4Xdbvf67mo3OtcyD8rIfB6+kwKEpE1ITU0lMzOToqIisUOHS1+oUaNGMWjQIA4dOkRnZ+e3ZsK1Wq309vYKrYC025W0D9JiL+FpvnC5XGJSlhZHhUJBXFwcy5YtY8iQIbz88sscPnyYqVOnsnTpUp5//m8UFhahVCrRarVotVpsNhsul4v09HRWrFjBwoULiY6Opry8nA8/XMPp02WAe0efmppKTk4OtbW17N27F4vF4lU3rVbL0KGZxMXFs3btWmpra1EoFEIIcblcol1Op5PW1lbMZjN33303jY2NvP322yQlJREdHc2OHTtoaWkhLi6OcePGUVFRQUlJCXFxcWRnZ1NVVUVJSQn+/v5MmTKZuLg4HI6Li5TBYCAzM5O+vj62bNmC0+nEarXi4+NDXFwcI0eO5OTJk5w5cwadTufVz1qtluTkZJKTk1m3bt2Ftrk1Gg899GNmz55NUFCQaFNHRwfr1q3jd7/7HVVVVV9oTEh947nIfBvG8uWQ+l2hUBAcHEx0dBTV1Wfo6+v7yuogvR8ulwuj0XjFa319fQkICKCpqema7nE54UF6h1UqFXa7Ha1WS3h4OL6+vjQ0NFyxPt/m5y7z7eA7KUBIu80ZM2bw9NNP87Of/Yzq6uoBr/Xx8eGpp55i5MiRLFiwgAMHDnzFtb02pLZJZheNRoPFYsFsNqPVahk3bhyDBw/GZDLh5+eHyWQiOTmZ0NBQNBoNy5Ytw2Qy4XK5sNls9PX1ce7cOfbu3Sv6bN68eWzcuJFXXnkFq9VKTk4Oy5YtJTo6muXLl2M2m8XudvTo0QwZMoTZs2czePBgmpubef3113n55ZepqalFp9NhMBgICwtj/PjxxMbGsmXLFsxmM0FBQSgUYLPZ6evrIzY2lnHjxl3YdSqZM2cOABaLBaVSiV6vo739PMXFxZSXl1NYWMg///lPEhISuOuuuygpKcHpdNLe3s7KlSs5efIkU6dOJSoqin/+85/8/e9/Jzc3l5UrV7JhwwaeffZZsrKyyM7Oxmg0otfrueGGG7jhhhsIDw9nwoQJ6HQ65syZw+zZs7Hb7ZSWlqJWq6murua5555jw4YNlzwjf39/li1bxmOP/VzsLgMDg8jLG8uECRNoampizZoP6O01kpGRwdixY7njjjsA+H//7//R0NBwzWMiICCA8ePHc9ttt6FWq+jo6KSuro6SkhJ27do14I75m45bI5XBjBkzSE5OJjU1FYfDwaOPPsqpU6e+snpIgmtiYiJLly7F5XLxj3/8g3PnzgGg0+nIyMhg/vz53HDDDVRXV/Of//mfV1W2UqkkISGB+fPnExAQwNq1aykqKvK6xsfHh7Fjx3LLLbeQkJBAYmIihw4dYuXKlZcVIDQaDcOGDWPOnDmYTCY+/PBDzpw588U6QkamH99JAUJCWohUqstHq3pGGHzdatLPQqVSkZKSwsSJEwHIzc3Fz8+PadOmCXX93LlzWbx4sVDTO50OlEq3acJkMpGbm4tS6Van63R6rFYLe/fuo6ioiFmzZvGTn/yEyspK3nzzTXp6elAoFKxfv55Ro0YxZ84cHn/8MX7726fo6+sjICCAu+66C4Dy8nJ+8YtfsGnTJmpqahg2bBg6nQ5fX1/+93//l7vvvlvsihcvXsyiRYuEbXfDhg386Ec/Ij4+nhtvvJGIiAjuums5999//wX1tQur1YrBoKeyspL77///KC8vp6+vj/379/PRR+uYPn0GWVlZYrfo4+ODSqUiMDAQvV6Pn58fPj4+REZGEhAQgK+vLzqdDn9/f7RaLT4+BsLDwxk7diz33HMPISEhqFQquru7Wb58OQ6Hg56eHk6cOEFBQQFhYWHceOONwt9EEhQUCgU+Pj6MGTMGu90hNCYmk4lTp07x5JNPsn37durq6i4IFoEsX76cJ554gvHjxzNu3Dg++OCDaxoXQUFBLF68mHnz5rFmzRo+/vhjZs2axfLlyxkzZgwlJSXU19d/uYPxK8DhcNDY2Mi+fftobGwkJCSE0NBQYXK8nppC6Vl6zg8REYOYPXs2RqORnTt3CgHCZrPR0NBATU0Nt956q3i2V1u3qKgoFixYgI+PD6dOnbpEgLBYLJSXl+NwOBg+fDg6nQ673YbVarlMiW7CwsKYOXMmDoeDTz/99IoCxLdF6yrzzeJrEyC+SvucQnGpGt8TaXcmLXCSCeCbhlqtZtiwYfzmN7/B398fnU6HVqtl/vz5zJw5k5MnT3LkyBH+8pe/AKDX63E4HISHhzN58mRaW1s5ePAgVqsVu90uTD1nzpxh1KhR/PKXvyQhIQGj0ciDDz6Ij48POp0OnU5HbGwsSqWSBQtuJz+/AJ1Oh9PppLCwkLVr17Jt2zZOnz6Ny+Vi6NChvPPOO6xatYp//OMfKBQKzGYze/fupaamBrVajc1mJSkpmZkzZwqHwylTpuDj48PGjRuprKxEo9GIZ+Hn58fcuXOxWKycP39e9Mm5c+d4+eVX2LRpMxUVFfzHf/yH6CsfHx/8/PyEz4Rerxd+IW7hIoCgoCAsFgs2m52WFrfPwvbt27n11luZPn06O3bs4MSJE9TU1NDd3Y3L5eKWW24hJCSEJUuWMH/+fOFvIJmBNBoNgYGBdHd3o1a7XzGj0cgnn3yCy+XyWgC7u7vZsmULd9xxB4mJiQQGBl71eJCElfHjxzNt2jTef/893nprFXa7nXfffZfW1lZuv/12EhISvrUCRGtrK62trVRVVREbG8vkyZOFz8n1XvQks5TD4cDX15eEhERhIkpJSeHo0aMAwpx27NgxKioqUKlU11S3yspKnn32WYKDgzl06OAl39tsNmpra6mrq6O5uZnU1FQUCqXXvNYfh8NBaWkpL730EjqdjtLS0ivWISAggJCQEJqbmzGZTFdVbxmZr02A+Cql3c/yjO6vgfimChB2u52TJ0/yP//zP+h0Om688UZuueUWNmzYwK5du2hvb+fw4cN0dbkdAaWFcvTo0URHR1FVVc0TTzxBa2urcKCUHCfT0tKoq6sTi3ZSUtIFW7qdvj4zpaWlHDhwgJtuuoklS5Zw5MgRzp8/z5o1a/jrX/8q6qjT6UhNTWXQoEEkJCQIe3xTUxP/+te/eO+994TD5LRp07jhhhtwuVxkZWUxdepUPv30U5566imOHj0qnptarSYnJ4fx48ej1WpRqVTifg6Hg5qaGmpqaoTjZHBwMD/60Q85d66ZxMREgoODmTlzJvHx8Rf+xDF16lQCAgJEVIZCocBut9Pe3ohWqyUkJITOzk58fHxYsmQJL7/8Mvv378fPz4+zZ8+yceNGjh49Snl5uVgslEolSqUSnU7HkCFDyMzMpKWlRWhF+jvrSk6hvr6+whTV3d191eNBoVAQFRXFjBkz6OrqYseOnTgcDpRKJRaLhaKiIpKTk/Hz8/siw+4bgdRPUlgx4OUEfD3wFAICAwOJjo6mqqoKl8tFYmIiWq3W65lKwsW1RGO4XC7a2tr4+OOPr7pOGo0Gs9l8xTnK5XLR2NjIO++8I353OfR6PdnZ2WRmZrJlyxbZ1CFz1XzlAoReryckJASFQkFra6t4Aa/nZCBNApcTWvq/8J6aiPj4eHJyckhIiEer1WE2m2ltbeXkyZNUVVVht9uJiBjEhAkTUalUbN26RXjtg1u9PGPGDBQKBbt37xZqT5VKRUZGBpMnT+b48eMUFxczffp09Ho9hw4d4uzZs5fU0+FwUFtbS3V1NQaDAZfLxcSJEzl8+DCrV68WbdFqtULDIJlxnE6Xl/+E5JQl9fnZs2dZuXIlgwYNor29nfb2dsxms9BSGI1GdDodPT09WK1WLBYz4FaTRkdHYzQahaZgzJgxWK1WKioqsFgsXk6aUh3d/avA4XCg1+u59dZbiYiI4G9/+xsnT54Uz0t6Nu7QNff1Wq2W1NRURo4cKRaU5uZmKioqRCTDoEER+Pr6ERQUJBblhIQE7HY7O3fuQqlUkpaWhlqtxmg0YjKZsNns6HQ60tPTSU1NpbKyEqfTybBhwwgMDECv1zN06FCio6M5ffo04FY/O52OC+1SCoe3vj4TVVVVpKcPpq2tjeLiYq/xJy1Ovr6+TJw4kYSEBAoKCkS5V4PUD0lJSezcuZP29vYL2h33AtvS0szGjRu8nEOvhOeCKQlCdrtdlPdVcTntpOf46b8gSp9dbg65Vo2nFP0gaROkkN9PPvmExMREYmJiCAkJ4dy5c16hxVKI5bUIEGq1msDAQJxOJz09PZeNnJHqZLFYxJjr30bPuU6pVArhUfJ7GohBgwaRl5dHYGDgJWP0Sn0qI/OVCRAKhYLIyEiWLl3KxIkT0Wg0HDhwgJdeeklEPlyf+yrFjlXaMfR/yaVJwhO1Ws3o0aN54IEHGDFiBB0dHTQ3NxMWFkZkZCSlpaW8+eab7N69G4PBh2XLlpGRkUFtbS0HDx4Uk0leXh7PPPMMfX19dHZ2snnzZsDt5X/33cv5wQ9+wOOP/4Lm5maeeOIJfHx8+OUvfzmgAAEXoxWkME1pwZLCCadOncrUqVNpb2/HYDCg0+mIiooiPT2dqKgofvnLX2I0Gukz99Fn6mPXrl0cPnwYgPb2dmbPnk1AQIBwktRqNTgcTvH/pqYm/vGPfzB06FBsNhtLliwhMzNThEtKjpxms5mCggIAsahLuyfJrmy3u/00dDodZ8+e5eOPP6aqqorExEQqKytxuVxeIXxKpQqz2SKcPf/7v/8bp9OJ3W7n+PHj/PrXv2br1i20tLRw7NgxdDodK1asYPjw4bzxxhvs2LFDtMNdnpKAgAByc3OpqanBZDIRGBjIkCFDMBgMFBQUkJiYiNPpoK2tHb1ez5gxY3jwwQcJCAjAarViNBqF5kFqq9vhU49CoeDs2bP09ZkpLi72GJMKkcdi3rx5PPjgg3R2dvLBB+9fkwCh0+mIj48X2pL+4X5ms4WqKm/nYaVSSVhYGMOHDycgIAC1Wk1PTw+VlZXU1NRgt9sJCQlh7NixpKWlCdW3n58fp06doquri9zcXKxWK6WlpdTU1Ig2abVaEhMTGTx4MCqVCrPZ7HWNXq8nIiJCbCDq6urIyMggNjaWvr4+qqurOX36tBA6+497SbC/XGZUlUpFYmICQ4ZkiFDW7u5uysvLaG1tEwJ0SkoKqamp6PV6TCYjJ0+exGg0kZ2dTVhYGHa7nebmZkpLS+np6cHlchEQEEBgYCCFhSfx8fEhLS2NmJgYmpubRV2dTic2mw273Y6/vz+ZmZlERUVhMpkoKyvzirBRq9XExcWRkZFBcHAwycnJF5xr19DR0XHVY0BCqoNOpyMuLo7k5GQiIyNJTk6mvr6eDRs2iM2LNA6io6MZM2YMY8aMYfr06dTX1zNt2jRaW1tpa2ujpKSErq4uAgMDGT58OPHx8cLpuqKiAl9fXzIyMggMDMRut4tIp2+jw67M5+O6CxCSVKxSqZgxYwYPPfQQ8fFxKJUqJkyYwPnz53nllVeum5Sr1WpZsmQJ2dnZGAwGHA47CoUSl8u9qJnNFoYMGeK1y1IoFGRlDeexxx4jLS2NN9/8Jzt37qS2tpaIiEhmzJjBPffcwyOPPEJrayslJSWUl5czadIkJt44UQgQWq2WMWPGkJCQQHNzM0OHDmXnzp3YbDb8/f3JyxuL0Whi//799PX1cfjwYYKDg2ltbb1seyR7u7QQq1QqkpKSuOuuu9BoNISFhTF37lxCQkIwm800NjbicrloaGhAoVAwcuRIVCoVkZGRIgHT4cOHRTmLFi3CYrFQV1d74X7uBdrPz4+srCw2btxIc3MzFouFP//5z8yePZuYmBghlEmah/Xr13P06FEMBgPgNr+YzWbRzxqNRggdJpOJf//730RHR7F06TIWLlzI3/72NwoKCrzMS1LkSHd3N4WFhXzwwQdERkaK6A6dTkt+fgH5+QX4+PiwcOFCJk+ejMPhICMjA6fTgd3uvXNzOp2cP3+ew4cPo1QqiYiIICsri7q6Ok6dOkV8fDxOp4uenh6MRiO7d+9m8OA05s6dx86dO1mzZo0wG0jCia+vL3PnzmXWrFmsXbuW7du3X2KzDw8PZ9myZTz00ENYrVb+9re/sW7dumuafDUajViMpZ1rfyRB2S0MasnOzub222/H4XBQWFiIwWBg9OjRzJ49m3feeYcjR45gMBgYO3YsCxcupKTkFBUVlaSlpaHT6ThZeJIA/wBCQ0MpKyvjlVdeoaWlhcDAQCZPnsy0adM4d+4cdXV1ZGdnc9NNN7F582b2799PcHAwkydPZu7cuRgMBvbu3UtsbCw9vT0E+Acwa9Ystm/fzscff3xJmKZn2PFA+Pn5MWnSJG655Raam5s5deoUQUFBTJo0ia6uG/nggw+EuUmv1zNlyhSmTZvGmjVrKCwsRKVSERERwfz580VeEMm8p9frGTQoHKvVQkNDI+fOnUOj0RAfH09BQYGol9PlNtfFxsZyxx13kJycjFKpJDw8HIvFwvvvv8/BgweFoGez2XA4HAQFBTF8+HAiIyNEVM8X8e+QNBW+vr7k5eURHR3Nvn37vAQI6R59fX3U1tbQ1NQIICK6PIVRp9NJUFAQCxcuJDQ0lNdff52ysjJ8fHzIyckhNzeXY8eOUVpaKjtifs+4bgKEp8pQoVAQFhbK+PHjiYmJEdf4+voyb948XnnlletVDaFJGDVqlKiPy+XE6XQJhzaDQU93d7fQVPj6+jJr1mxGjRrFG2+8zv/936v09vbicDhobz9Pc3MzGo2Gn/zkJ8yYMYPi4mIOHTrEsmXLyM7KEjtS6QVraGigvb2dzMxMQkNDaWtrY+jQoaSmpnL8+HFKSkpwOBz87//+Lzqdjs7OTtGH/V9IqezBgweTnZ1NYGAgK1aswOl0smvXLn796yc4duwYf/nLX3A6nfziF7+gtrZWqDQlu/lTTz1Famoqx44dAy5qYbq7u/nwww958cUXvZIvJScn8+6776JWq4Rq1GKx8Ne//pUzZ6pFpIfD4cBut4s4+ISEBLRaDTExMdx+++2kp6eLNqSmpopsjUajkfLyCtra2pg9ezadnZ00NTVRX18vohyk8s1mt7B16tQpcnJyiI6OFum2pYQ/o0eP5uGHHyY+Pp6Ojg6WLFkihC/PvtRqtRw7doxt27ahVquJj49n6NChtLa2Mnz4MFJTUzEYDEyfPp2oqChaWlooKDjBzTdPx2q10t3dhdlsEb4e0mTrdDowmYyUlJTQ0NDglSciMDCQO+64g5/97GecP3+e3/72t3z88ceYTKarzjAoPYPQ0FAsFgttbW0iYZYnnu0NDw/nrrvuYsiQITz55JMUFhYCkJGRwYMPPsjs2bM5cuQIvb29NDY2YjabKSkp5e233+bGG2/kscceY8eOHfz7X/9m3ry5ZGYOIzIykq6uLkaPHs2CBQvYvHkzW7duxWg0Eh8fz+LFi1i4cCHnzp2jrKyMkydPMmXqFEaNGkVBQQF/+MOz9PX1ERYWzty5c7nttvl0dXWxbdu2AVX4A6FQKEhOTuaBBx7AZDKxcuVKGhoaCAwMpKOjgzlz5jBq1ChOnz5NX18fRUVFbNy4kREjRlwwC9ahVqspKSkhJSWF06dPs2PHDpHjJCxM8e1kAAAgAElEQVQsjPT0dBobG2lvb6erqxOFApKSkjAYDMLpUKlwv/Px8fGoVCpefPEFLBYrGRkZLF68mDlz5nDmzBlqamqEj0Jrayu1tbUkJyd/oYRZUt9YLBbOnDlDbW0tnZ2d5OTkXKKZkq5vamqiubmZlJRkBg9OR6/Xs3//furq6oTpUhIy9u/fT3h4OHfccQd9fX10dHTgdDooKzuNWq1m48aNsgDxPeQrMWG4pW33DtS9E1MKG5708l2PgefWMJj585//zFtvvXXBb8ApbNVu4Qb+/OfnGDZsmFhgAwICGDp0KO3tbWzevJmenh7golDU2dlJfn4+XV1djBkzhqioKE6fLqW2tobs7BGkp6dTXl4uFqPdu3ejVCqFGaGrq4usrCz0ej3r168Xu/LW1lavBaB/n0jmgYceeojRo0cTExODy+Xi008/Zffu3axdu5aysnKams6xZ88e7rzzToKDg9m1a5cwqajVakaMGEFsbCz79u0T/gbS/aR00LGxsWIyk9St7lTNvvj6+jJhwgQeffRRXnjhBfbs2SMWeJ1Ox9ixY1mxYgWrVr2FydSHywXBwcEsWHCbyO0g7Yglm73FYqGzs5PVq1eTnp7O7bffTmtrK88//zxdXV390o0rLmSQ7MViMQt7vUrl9u/Iy8vj6aefJjg4mJ/+9FF27twlokakyTQyMpKf/vSn3HDDDdTU1GCz2dDptOj1OsLCwhg9ejSTJk1Cq9Xicrn47//+b2w2d3bMnTt3EhQUxL333sv8+fPRaDQAXgKKVqsdMJmQWq0mOTmZ2267Dbvdzu9+9zvef//9i7vYq1xAJHOQVD8pJFahUODr6ysyXZpMJuFo2tPTI3x3Tp8+LcZ1c3MzXV1dwglV2sEajUaqqqooLy8nNjYWo9FIQUHBBYH4vDDVhIeHCz+fnTt3iiiZuro6jh07RlZWNmPHjaW8vJyOjg66u7qpqanh3//+N3V17uiQ3l63KWHs2LHk5o7myJEjXoJ0//ehv0mjo6ODPXv20NbeRl1dHS6Xi+7ubpqamrDZbEITBu6ohoqKCoqLixg9ejSRkZGYTCYSExPF+2Sz2YQA745QCOXIkSNYrVZq6+qor29g0KBB+Pj4iDlMesfq6+vZsmUL9fUN4vOKigomTpzIsGHDaGxsFMKuW/C14HDYv7T01J7aOmm8X8634aIflEv4u3iOY+na3t5eioqKmDBhApmZmWzevJmgoGAiI6Oor6/j7NmzsvDwPeQr84Ho6upi3759zJ49m+TkZBQK99kDr7/+OuBWxw4kKX8eJK2H9O/GxkbKysq8MidK+Pn5YTQakTIeSiF//v7+tLS00tR0Tlzvubj39vbS1dVFUFAQAQEBVFVVcfx4PsuXL2fw4MGcPXuWSZMmoVareffddxk8eDA5OTkkJydTWVlJRkYGFovFawGX6ut5L8+6Snkg5syZQ21tLadOfUpYWDh///trvPzyRS2O0Whk/fr13H///cybN5cNGzYIu3JcXCyLFy/Gx8fA6tWr6evr88pjEBQUxH333ce9996D0+m+t1arFROOlP3S4XDg7+8vPtfpdIwZM4alS5dy5513CnPGm2++icPhoK6ujlWrVrF///4Lk5uV0aNzefzxx0S5DoeD6upq3nnnHbKysnjggQdobGzkrbfeQqfT4uvr6+XDoFAo0Wjci35fnxmNRsOECTfwzDO/v2B6epOKikpMJqNX4qHg4GDmzp3LmDFjqK6u5s9//vOFydTB8eP5PPTQQ/j7+6NSqbj11lsZN24cL774otAUJSQk0Nvby/bt2/jww7XC70GaqP39/Zk9e7bQenkiOT5mZGTQ1dXFp59++rnSTTscDjo6OmhqamLUqFGEhYWJBVWjURMZGcEPfvAgw4YNY8OGDTz//POcPXuWN954A4PBwIgRI/jRj35EcHAwISEhJCcnc+zYMeHwqlKpLmh7zMJ8IOXCgIuaMOkdSkxMpLOzk+DgYDFe3BExIURERJCa4tY2SZhMJi9Tnc1m4/z585hMJsLCwtFqtVfVD1K/1dbW8txzzxEcHMzs2bMZN24c4eHhRERE4Ofnx4kTJ7x+d+7cOY4cOcqECRMZOXIkx48fJygoiM7OThob3ep8SWsXGhpKXl4egwcPZtKkScL2X19fT0xMDG1tbaJcu90utApS/7g1Vd34+fkRGRkpNJ0Xn7kCpdLtJCzxRefB/nks+gsE0ufueUZxwax76T09o0rq6+spKytjxIgRpKamYrFY0Gq1VFZWYrFYhIAvCxLfH66bAOG5iIP7xdqwYQNms5kFCxagUqlYvXo1W7duBa5vEqeBpO/+KJUKrxd7oDhzz5fQcyED9wRYXFyMQqFgxowZ7N27l6lTp9LR0UFFRYVIM52VlUVTUxNjxoyhtLSUkpKSq26HxWJh27ZtzJw5k+LiYubNm8fjjz+ORqPFYDCIyd5ms5Gfn8+6deuYNGkys2fP5sMPP0Sj0TBp0mTy8vLYvn0H27ZtE7tWaddiMpnYtGkT7777rlgYpWiUZ555RpgIFAr3GSIBAQHceOONLFy4kKVLlxIYGEhtbS3r13/E+++/Lxai5uZmDh48yJYtWwD3QqrT6dFo3FoIKV9CX18fu3fv5s033+THP/4x06ZNu1B3rdAiSP3u6Yyp1WqZM2cOd999N+Hh4bz66qvs2LGD1157jc7OTlau/D0bNmxEq9Xywx/+kEceeYTe3l4ef/xxzpw5I3wYmpubRR2Dg4NJSkpixIgRHDhwgIMHD+Ln50tYWCi9vb2UlZWzfft2bDabaKfD4SA0NJSMjAzy8vIueYZSpsyTJ0/S2dkpknVd66QrhZ12d3ej1Wrx9/cX2oOenl62bt1GcHAIWq2WNWs+4OTJk+h0OrKzs3nooYcYMmQIJ0+eZOvWrZw6dYof/OAH6PU6sdi4d8UX81tIPi6ScNDf8Vjyr/jVr37lFbJqt9spLi7m6NEjQniXNCaS5kZqj3S95465//t6ud20Xq9n0qRJPPLII4SEhLB582ZWr16NUqnkzjvv9Ar9VSjceUmKi4s4e/YM8+bNo6mpidjYWAoKCryeSVBQEOnp6VRWVvLb3/4Wo9FIVFQUixcvJi8vj5iYGIqKikSdJBOeNB4kk6lnCnZpoyK9d5LQ5nJd/rTczzM+PP1fBvr+0n9797lnRAdAR0cHJSUl5OXlMXnyZGpqzgpHYcl8JgsP3y+uqwai/2Aym81s2LBhwPS/10OAcLkGLrO/cONelC6esyA5/IWHhxMQECAWF8+duq+vL8HBwZw5Uy2cAQsKCmhsbGTMmDEMGTKEtLQ0Pv74Y3GIVX19PcnJyaSkpODr68vmzZsxmUxoNBpsNpvXaZOX2w3U19dTX1+Pj48Per1eOHpJKlFp52c0Gnn//feYMGECK1asoL6+jsBAt9pdSjftGZEC7snParVSXV3Nzp07xSRosVhISkri6aefxuFwCFPIoEGDePTRRwkICEClUlFUVMS7777L2rVrqaqqQqFwn64JXDilUi9U79IEZ7FYLlmMjEYja9eu5fz582JC1+l0qNVq7Ha7l6Oh0+kUqa41Gg09PT289tqr/PWvfyM8PJznn3+ehx9+mOeee46bbroZlUrF3LlzOXPmDE888QRbtmwRfQZ4JXnS6/UEBwej0+mIiYkhMjKS4OBgDAYfIiIi+J//+R8efPBBEQUjLbjSc/DcmUrtkxJqFRQUCJ+TzzvpWiwW6uvrMZmMREREoNFo6OvrE+0JDAwUWVglP4Ef//jH+Pn58cADD4hdeVxcnHgO0gLucFxsh8Ph8DqP5OLfbpOXXq8HYPv27fzmN7+54uF0YWFh4veephdJMPUcy/253KKqUqkYNWqUSFl/77330tjYiEqlIjs7Wyzo/cuoq6tn7959zJw5kxEjRqBUKr20DwqFQiQ5q6iooLbW7VgsRaC4w3sDveoj+eJ4CgmgEO2yWq1ijHgKC/3r560huHI/XAnpPRvo9/0FBFBc8jtPc4bL5aKyspLKykpycnJQq9W0trbS3t4u/CVkvl98o1JZXy/ptf/A7v9C9cft0FfGhAkTmDNnjshnINVP8iPw8/Njz569nD17FofDQVVVFSdOnGD69JtZtGgRKpWK3bt3Y7VaaWxspLi4mFtvvZXo6GhcLhfbt28Xk47ke6HRaOju7haL5EAnNCqVSrHb9NzFAF7l7dv3Ce+88w4PPPAAv//9SpRKJYGBgfzxj3/k4MGDonyr1YpO5959GgwGbrvtNoYOHeq1OwoICECr1YpdtiTsSBqDTZs2sXfvXmprawkICGD58uVUVFRQV1cn0j1LJhHPBFZSnT2x2WyUlpaK9L2S8KBSqejq6hJqdM/+sdlsfPjhGlatWiXC5RobG3n11Vc5d+4cjz32GPfffx+9ve5Iiueee47du3eL8SEdlDVq1EiysrJFRMvEiROIiork6aefFhEjBw7sFxqn48ePe7XD5XJ77WdmZhIcHDzgc1QoEOnEPY/b7m96+yykfqquPsOIESOIiYmmuvqMEHTd93aX5+/vz7hx40hKSuKNN97g1KlTXqerevoUePat9PylkGFpkXfvtN0Cd29vLx0dHaSmphIZGUFtbZ0QYnx9fQkJCcFoNNLS0iLs7YAQBqXcHn5+fgQHB1NdXe0lsEi+OZKgIvWX9A6EhYUxffp0/P39Wb16tYiSkNom9a1WqxWmGGks5efns3jx4gs+O6vEmTmS5k06An7Hjh3i3haLhbNnz9Lb20t2dhY7d+6kpaVF/E7y7ZGEMakf7HabcNb2PClVeuYXNRGXFxwutmfgMSEJI54ZV6W2eP7xftZuYVA6oVYaL/7+fpw71+z1LJqbm6muruamm27CYDDw4osv0NXV5dUOWQvx/eEbI0B8FYOu/4I10Evqcrk4f/4869d/zJgxedx77710d3exd+8+mpvPERoaxuTJk1m2bBn5+cfZsmWL0B64vZU/4Y47bmfevHmcO3eOw4cP43K5T/ErKSlh0aJF5ObmcvToUU6fPi0mwvT0dB555BH0ej0vvfTSFQ/1kiZwaRLon1RGaldXVxfr169nxowZTJkyhZ6eHv7+97+zadMmYbOUkk5J5UqOVX19fdjttguTjVNoCTx3tCaTibffflscgy1NVsnJyfzhD39g69atPPnkkxcmLfduzjMroo+PQcTr93/+Ul2kyVQ6hhwQCa0kgcjf35/Ozk4sFotIsuXv709yctKFGPcZ+Pv7U1RUzLp163j77bepqKgAEJO5lB9h4cI7ufvuu4Wq2T3xO6isrKSiooLm5mbMZvOFMbKel19+WTx/ieDgYO6//37uv/9+YmNjiYmJprW1DYvFgo+PD1OmTOahh35MR0cHf/rTn8jPz/9c6l+73c65c+fYuXMnd9+9nAkTJtLY2ITRaESlUl0IW3Zgs9m9VOeBgYFCGNTr9cTFxREeHo7dbic9PR0/Pz8hMPQfU9K/JYEO3M6/Bw4cYNGiRYwffwNtbesxm80iX8KQIUPIz8+nubn5wnh1+4mkpqYKLU1oaChZWVnYbDaOHDkikn95qvr7n4Hh6TvicDhEWKv0XXBwEIMHpxEWFoafnx+ZmZl0dnZSX18vtBINDQ0UFhaSlZVFeXk5vb29XuUHBwcREhJMe3u7ENylxGpms5nIyCiCg4NpaWm5oEVRExISQkxMDLW1tSJkOjo6mrKyMoqKCr3et4s+Cg4UioEz4Hr6pUja0IFMOZ5+ONJ743K5HUw7OzvF7/pre61WG0ajiYCAQAIDA+ns7CQ7O5ugoCARjSLVt7e3l/LychoaGjCZTLS0tMrmi+8x3xgB4stE2uF+Fpcb8C6Xi4KCAp577jkeeughHn74EebPn09dXT2hoaGkpKRQXFzMyy+/LPwe3Ds+GwUFBdTXNxAVFcUHH3wgJh673c7p06epr68nLCyMo0ePcv78eTFBxsXFMXbsWBQKBdHR0Vd8IS/aqa3C/CJNGNJEr9VqycnJYcGCBYSHh9Pd3Y3FYiE1NZVx48Zx8OBBurq6hPrfPTm6k/9s3LiRZ5555mJ4mlLJ8OHDmTRpEkrlRVWr0+mgpaWFzs4uUTe1Wk1kZKRwQpQy5wUGBrFgwQKGDRsGuHfPKSkpHv4Xl5qbpIlOpVIREhKCw+Ggs7ODvr4+tFotw4cPZ9myZaSnp1NfX09u7hjMZgsLFiwgNzeX9PR0IiMjqamp4b333mPTpk0cOXIEs9ks7uHpyd/e3s77779Pfn6+MEstWLCASZMm8Yc//IHS0lLuvPNOJk6cSExMDLNmzSIqKuqS47z1ej3Dhw8nLCyMFStWEBERwWuvvYbFYsFgMJCdPYKJEyfS1tbGmjVrRMKta0WhcHvH79mzh/j4eGbNmoVer6eoqIjY2FhCQ0PZsGEDZ864j78uLDxJcXEx48aNo7m5maamJnG6Y3i423Fx1qxZ1NfXExERQWBgIOHh4URHRzN8+HAMBoNwlkxKSiIyMpKEhAQKCwvZunUr0dHRLF26lIyMDKqrq/Hz8yMoKJCSkhJqamrE+FSr1YSHh3PbbbeRlJREQ0MDY8eOZejQoWzatImDBw8KrUNISAgJCQkMGjSI5ORkAgMDyc3NJSgoiLa2Nurr6+nq6uKTTz4hKyuLefPm0dvbi91uIz09nbS0wRgMBoYNG0ZfXx/79u3zevbt7e0cOHAAl8tFWVmZGAsqlYrY2FgmTZpMWtpg4uPjOHXqlNBkBAYGEhwcTFRUFHl5eTQ1NeHCRUdnJ76+fixYsICSkhJUKiXZ2dlotVo2b94sok7UajVhYWHExsaSnp5OXFw8LpeLMWPGcObMGZqbm+nu7hamgYiICHFEfGxsLBaLhbFj86ivr6epqYmWllaRHyY8PJzY2FgyMzOJjo6+kHMmj5qaGhoaGoRwJgkabW1t5OfnM3/+fBYtWkRTUyNqtZojR45eYo5yOBw0NDRw8OBBkVRqoHEpCxPfD76TAoS0Izl+PJ/fr/w9x48fBxhwp2u1Wnnvvfc4dOiQV9id1Wply5Yt1NXVMXbsWLFQ1NTU8OGHH3LgwAGqq6uFmtStGnVSVlbOU089RVxcnMhvLy2SlZWVvPDCCyQnJ7N161bMZvOFXYOTwsKTPPPMMxgMBi+1uCeSXd7f318cke2pflYqlYSEhAhv8Tlz5ohcE/v27SMlJYXZs2eTmZnJzp072b59O/n5+bS2tl7YzV1UfTscDnx8fMTZE2lpaQAimsM9kboP2UpOTsZisYhQywkTbhAHANlsNly4ndFuvvlmJk2aJNS3F00TSlQq9442NDSUqKgoent7sdmsqNVqoqKimTx58oUy67Db7eTl5fHjH/+Y0aNHc+jQIQYNGsRPf/pTRo8ezZQpU0Q8/+rVqzlw4ACnT5+ms7OT0NBQr7Tpnk5mVquVQ4cOcejQIcC9Kx41apQIbQsNDeWOO24nNDSMxsZG/P39GT9+vOgzycYt2fMtFguffvrphUyH7mOXTSZ34rDVq1djsVjIz8+/rMr6s8a4VP/m5mZWrVpFeXk5YWFhIoHRe++9R3FxsUhjfPp0Gc8//zy5ubkXslCqMJv72LZtG7t27SIrK0tkGTSbzZhMJs6cOYOfnx/t59t5/Y3XMRqNGAx6SktLRV4ErVZLXV0dL730EhMmTCAhIQEfHx/MZjOHD5/m+PHjmEwmkVpdqVTS1tbGgQMHCA8PIzExkfb2dt566y2OHj0irgX3IU+pqanipMqysjJxuJvk9Go2mzl06BAmk4lRo0aRmJhIX18fzc0tnDxZSEBAAPHx8VRVVXH27FmvpHFSxszCwkJhhgBEiGpbWxt79+5FpVJjMBjo6upCq9VgsZg5cPAAvr6+WCwW97Wtbby96m0cDgchISHExcVhs9moq6tn+/YdlJaWeu3+fX19SUpKQqfTcfToUVwul0gA193dLfxj1Gq1EKSUSqXQag4aFIFWq8Nk6qOlpVXMRdK5HS6Xi/379+N0OkWGzY6OjkvSZff09LBnzx7MZjMpKcmYTH2UlpZSXFwstFaeY87lctHS0kJdXd3ndgKW+W7wnRUgnE4nR44c4ciRI16f98dqtbJq1Sqvz6SX3OFwUFRUdMnxuv3xdDLq6OjgjTfe8Ppe2uW2tbXxr3/965LfOp1OGhubePvtt694H6VSSWJiIj/84Q9JSkoSCWt6enowGAxMnTqVm266iYkTJ5KWlsaZM2d44YUXePfdd6mtrSUyMpLi4mIWLbqTZcuWMXv2bEpKTrFhw0beeustLwdHlcqdKXTRokWEhISQlJSESqWitLQUs9kscgfcddcyxo8fh83mVssqFAoyMjLo6Ojg8OHDbqFHp8doNPLxxx9z5MgRofLMzc3lnnvuwd8/AEBk7nzwwQdFelyNRk1AQABpaYMpLS1lz5496PV6cnNzycnJYcOGDbz11lsMHTqUH/7wh9x1113i5M3IyEjy8vJEjg9Ph1GprpIA0d3dzfbt23n55Zf7+SbglW77l7/8FRqNRqi6JeHCbc+3Ybc78Pf3Y8mSpdxxxx2sXbtWRBqBO8rk0KFDVFZWolQqxSmZnmPoWpCEl/r6epGwSlp8LRbv454lgebUqVNekTTSPaXTQl0ulwgvlhYPaXcucfx4/iX1aG1tZe3atV7969keSTDt6+ujvb2dXbt20ttrRKPRCN8E6f7SO1NbW0tzc7P4THpf+psjTSYThw4d4vDhw165LAbCz8+PlJRk4cORnp7Otm3bvHbbNpuN8vJyqqqqhDbzYmIlM0ePHuPYseOiDtKfffv2efkhSO3w3LxIdTtz5gwNDQ2XtMXzb8lf4fTp05SVlXmZJyR/CM92Skd/V1ZWegmlUpn9o8ck2tvb2bRp04BlSoJNQkICZnMfsbFxGAwGIYzJzpPfX76zAsR3EclZMD09ndzcXJqbm9m+fTsnTpxAo9EwdepU7rnnHhoaGnjllVf46KOPKCoqore3F3AfmPV///d/fPLJJ9x2223Mnj2bESNy2LJ1K1arlZ6eHhobGy+ogO1YrRYiIyNF8qt3332Xf/1rNTabjWPHjrFy5UqmTJlCeHg4Go36wgQPu3fv5qOPPmLHjh2EhoaK8K9169aJSQrgzJkzDB48mMLCQmGO6e7upqenh7CwMHGehNlsYf369bz11lvi3I4TJ07wj3/8gy1btlBUVERFRQVlZafJzh5BXl6eOM/DYDDg4+MjfDs8BQhpFyal1e7s7BjQYdXlcpcjHcn9WYSFhWGxmC87WUunk37Z47S/b8yVruuvmr5c9M8XqWN/G72/vz9Dhw5l6NChJCUlMWPGTA4ePCjSrHteL/3bZrNd02Fe0jtyOSQh/LHHHic5OZmjR49SVFTkZYr0LEvqz/5hjZfTEErfScJS/0Xc09TodDq9Unb3X4g9nSuvlF+hf6SFJNBeCakO/dt1OR8MKUTX5XJx5MgRPvnkkwGfm8z3CwWSS7TMtwKNRkNmZiYRERH09PRw9uxZmpubUSqVZGZmMnLkSI4dO0Z1dbVQm3s6V0me9CqVioSEBAYPHsz+/fvp6OggIiJCJMipqKhAp9OJsDubzUZfX5+Xc5tWq8Vg0F/Y2V8MxbRYLMIzW6/XExMTQ3h4ODU1NTQ1NYlJR6/XExQUhNlsprOzU+SDkJz4PCdkSa0r/V+n04mwTU+kFM9SCm6pnv1D0uBimK9CoRTt81xY9Xo9OTkjGDp0KPv3H6CsrOyqPM11Oh1Dhw5lxIgR4gwVCU9nt8+TQOrLxjMPyPXMxaJQKAgJCSE3N5dhw4ah0WhoamqiqKiIEydOXJc+kBbV/jv68PBwJkyYwODBg6mqqmL37t3CmfNygsHlvvO8pr/A1P+3/X/fX2AY6PeX+7/nbzwjTfrf60pCx2e1yfPa+Ph4br75ZgICAsjPzyc/P19sTGS+v8gCxLeQ/ouQhJSf4XJx9NJv4WKcu+fxz9L/+y+0X0Z9L7fD/aYj9amUCMyT/otE/++k/B4DheJ+k/i6hBhPp19JwPsq6tHfxHClvBXfZj7rufafCyQu9xvPMF5PU9I3eWzLXF9kAUJG5johx8VfykD5AjwdQj3/L/PVcTkBQtqsSFoOwMtfReb7jSxAyMhcJ75u88S3hSup52W+Gq5GAyEj05/vpBOljMw3AXkivpQrmX3k/vrykSMkZK4nsgAhI3MdkLUPl+dKzoMD/V9GRuabiSxAyMhcB+RFcGAG6pf+PhAyXx5XOw7lvpf5PMg+EDIyMjIyMjLXzJWPpZSRkZGRkZGRGQBZgJCRkZGRkZG5ZmQBQkZGRkZGRuaakQUIGRkZGRkZmWtGFiBkZGRkZGRkrhlZgJCRkZGRkZG5ZmQBQkZGRkZGRuaakQUIGRkZGRkZmWtGFiBkPhfSkchXm8FOOtHvasq93OfSccJXU07/e0t/X6l8z++udK10vUqluqY+kJGRkfkuIWeilLkuSAKD3W6/LuUplUqcTucXLlc+QlpGRkbm86ECfv11V0Lm24NOpyMlJYWYmBi6u7sHFBAUCgW+vr6Eh4czdGgGdruD3t7eqyp7+PDhpKSk0Nvbi9lsFt8plUq0Wi3Z2dmEhYXR19eHzWa74sIvaS18fX1JTEwkKCgIo9GIw+Hwuk6lUhESEkJiYiIGgwGz2XzJNQOhVquIiIggPj4es9mM1Wod4Bo1UVGRpKen43A4MJlMssZCRkbmO8H35jAtlUp1yaKg0WhwOp04HA6x2Ay0cMgnK7pRKpVERETw6KOPEhAQwB//+EcKCgqAi4u10+lErVaj1WqZNm0ad999N6+//jqrV68esA8l84JKpWLUqFH86le/ore3l5Urf09+foe4zuVyERUVxS9+8QssFjNPPvkk5eUV4rdhYWHExcVRVVVFR0eHKFutVjF0aAYPPPCfAPz1r3+luLjYS4NhMBiYMWMGy93TFNsAACAASURBVJYtY9++fbz22mt0dHSIMeNyubxMHE6nE6VSyaBBESxbtoy8vDxeffVVdu7cidPp9NJqBAUFcccdC7n55pt44YUX2bJly2X7V6vVkpyczJAhQ1AqlahUqkvMNVI9XC6X13culwuz2UxNTQ0nTpwQn0l1USqVBAQE4O/vj8PhwGg00tnZeVXP/Up4Hs8t1Uv6822if/2/znr0RzKnuVwuMT8NpDnr/1vPOa1/mySNnuf47l+ejMxn8b0RICSUSiU6nU5MFAaDAafTSW9vL06nk6ioKCZNmkRtbS3Hjh3DZrNdVrD4PqLT6UhLSyU8fBD+/v4Alyy0LpcLu91OaGgoKSkphIWFXbY8aZJLSkrkvvvuIyMjg1dffZW6unrS0tLQ6/VUVFQIbURaWhoWiwWVyj10Bw0axIQJE5g3bx4pKSm89NJL/Pvf/xZ1Uql0xMcnMGHCBMrLy7HZbJfUwc/Pj0mTJ5GTk8OOHTvo7u6+5BppYvX822KxYLFYyMjIYO7cuRw/fpyOjg7UarUYN4MGDWLixIlER8egVqtRqVSXmF6kMn19fZk+fTqPPvooTqcTjUaDRqPxus7pdIq29f+uq6uLjz76iFOnTol2arVaBg8ezA033MCYMWOIiYlBoVDQ1NTE7t272bRpEy0tLZ/x1C9P/375tuIpIA7Ulq9qEzHQPQaaey5XF5VKJQQNabxc6T6XEzBkZK6G74UAodPpSEhIYNy4cUycOJG4uDg0Gg1Wq5W2tjYOHTrEqlWrMBqNJCcn8fDDD3Po0CFKS0vp6OiQBQgPnE4nfX1mFAqF2G2rVCp8fHxQKBTY7XYMBgOAWOD8/f0JCgrEZOq7pCyHw4GPjw/z5t3KzJkz2bZtK2+99Rbh4eH8/Oc/x8/Pl9/85kkKCwtRKBQ4HHbsdjvh4eGkpqaycOFCpkyZgp+fH8eOHaOjo8NrAvXx8SEnJweHw8G6desoKysT9wb3hBsZGUnOiBHU1tZy8uRJ1Gq1l3BktVqxWq24XC60Wq1op8Ph4ODBg+Tk5BAVFUV6ejpFRUX4+PgIc0VYWBghISEUFhby6afFVxxHKpWKgIAAlEolu3btoqqqCqXy4g4/Pj6BxYsXc/DgQT755BMvASIiIoKZM2cSGhqK0+kUz2bQoEHce++9LF++HD8/P4xGIwBTpkxhzpw5jB07lpUrV3LmzJnPNR60Wi3R0dHEx8dhtztoaGjAaOzFbnd8KRqOrwrPBVSn0xEVFUVkZCTR0dFkZ2eRn5/P+vUfX/d6aDQaBg0aRGRkJAaDAb1eL+qkUCiwWCx0dnZQX9/AuXPnvOotbYqCg4NJTEwkICCAnp4eamtraWlpueRah8NBSEgI6enp+Pr60tXVRU1NzSXXyshcju+8AOHv78+MGTN4+OGHyc3NRavVYrPZhNlCp9Mxa9YsKisr2bFjB3a7A51Oh16v91LPyrhxuVzC1q9Wq9HpdNx4440sWbKE0NBQtFot4F5YIiIiiIqK4j/+4z+YPHkSdvvFxbOjo4MXX3yRo0ePkpWVxdKlSzl16hR/+ctfaWhowGQyUllZwX/+5w+47777+PnPf47L5UKj0RIfH8/TTz9Neno6Pj4GTpw4yXvvvcdHH31EU1MTCoWCqKgoVqxYQUJCArm5uQQHB3PLLbcwevRonE4nPT09rFmzhrKyMsaOHcvw4VmcP3+eJ598kq6uLlwuF3q9HqVSyfnz51m3bh07duzgv/7rvxg3bpyXCSQsLAyVSsWf/vQnTCYTFouF3t5enn32WWJioomNjaWlpZmRI0eRljbYazwZjUY+/bSYri631sPhcFBbW8s777zDzp07vfo+Ly+PqVOnsnnzZp577jmv74YNy2TYsEwvE4pCocBgMKBSqdizZw8bNmygsbERlUrF9OnTue+++7j99ttpbm7miSeeuOaxEBISwq23ugW/xsZGrFYrqampKBQK/vnPf7J+/fprLvPrQlowpT7LzMxkypQpDBs2jCFD0r8yYUij0RAbG8uyZcu4+eabqa6uZvv27dhsNvz8/Bg5ciTJycm89957vPLKy/T0ePsWDRkyhHvvvRetVktDQwOJiYlYLBbefvtt8vPzva4dPnw49957Lw6Hg9bWFtLSBtPV1cWqVasoLCz8Stor8+3mOy1AqNVqpkyZwksvvURwcDCHDh3igw8+YN++fZw7d46EhASmT59OREQEra0X1bjuXbXyS1fPSovO/8/eecdHVaV9/Dt9Mpkkk95JSA+hQ+ghNAUFERBBWazYea3rYllF1N217GtddV11baCrviKISlXphBoIhNASSEhInfQyM5ly3z+Ge5wJAWGXddWd3+czH8jMveeee9rznN9TjvyvTN8rlcpuqXW5Lp50I/xgMpDpbDk64cccCtVqtVCcZCrd4XCIv89GZZpMJh5++GFmzJiB3W4nODgYk8nE3//+d+rqarHZOunRowfR0dEoFApB33d2dqJSqYiJiSEqKgq1+ofhVlVVxWeffcbUqVNZtGgRGo2G999/H5VKyejRo9FqtdTW1mE2m5k4cSI7d+4kLy8PhUKByRRMSkoKmzdv5qOPlvD99+tRKBTMmTOHzs5Oli5dSnh4OHfffTfBwcFYLB10dtqZOnXqab8INRUVFezYsYPa2lqmT58u/Db69euHVqtFpVKJ+jY1NVFaWsrGjRuJjY0lMTERp9Mp2k6j0aDT6TAajUiShEql4tixY0RERDBmzFhSU1NJSUnhqqtmolarcblc2Gw2XC4XZrOZBx98kM8//1z0U1BQEKNHj8ZkMgklRaFQkJGRQXCwiYEDBzJlyhQvejohIYGAgEBUqh/8ImRTxWuvvYbVaqW2tlawPoWFhWi1Wm6++WaSkpLOa/zKY1CpVOLn58eECROYOnUqK1as4OOPP0apVHLZZZfxyCOPkJycfN5l/lwg7+Cbm5tZs2YN3377LSNHjuShhx7CZjvTQfafwY+ZQiwWCwcOHGDTpk306dOHvLw83n77bcEcRUZGMmPGDJKSkoiLi+fQoUPi3rS0NO644w4AHn74YdRqNTNnzuTGG2+kurqakpISoQilpaVx6623olKpWLhwIU6nk2uuuYY5c+ZQVVVFaWkpzc3NF+Wdzwa5LX4u/ic+XDh+tQqEUqkkNTWVP/7xjxgMBl577TWeeOIJL/t2dXU1O3bsABA7Z+C0UFYJoX4h4YKy8JHvkenkrkqCLMzlf88GT+VBptDlSafT6YR5pevCJCsMdrvdy5lKFopdIwbOxbIolUpMpiACAgKorq4WdKrT6USr1bFt2zYeffQRLBYrNpsNpVKBWq1h9uzZzJ07l6VLP+cf//gEm80myrTZbNTX1/P888/Tq1cmNpuNl156EaVSdcbznU4n999/P42NjdhsNg4dOsQTTzzBsmXLRDtHRUWRnZ1Nbm4uJSUl1NTUYDabWbt2Lc8///xpfwgVAQEBXH/99YwaNYrOzk6ysnqRm5vLli1beOmll6iqqsRut6NWq9FotMyePZvp06fT1NREZWUl9913H0ajEY1Gg8lkoq2tlZaWVmF+MJvrALeJIycnhwkTJnDy5Ek2bdqE2WxGq9WSnJzM2LFjOXbsGJ999hmHDx/2cHZUkJqawsKFC8/aH3PnzmXu3LlnfN/W1sa+ffu82q21tZXW1laxSMvtZbVaqaqqEu1yvpAV38TERMaMGcOhQ4dYsWIFnZ2dKBQKNm7ciMlkIi4u7ox7PRVmTzPTzw2yD4+sJGo0GmFK6A6ejqqykt+dQt8114jn97KjpKf5Sa/Xi42MXq9HkiTMZjOrV69mzJgxRERECAVCpVKRkpJCamoq//d//4fVaiUgIIATJ06wbt06Dhw4IJQQpVJJeno6ffv2ZfHixTQ0NBAYGEhpaSnr16+nqKgIi+UHc2PXnCgul+us/Sa/Y1eHWvkd5bEmm0/69OlDU1OTlzP2z3FM+NA9fpUKhEqlQqvVcu+995KWlsZ7773HokWLaGlpEQNUo9GIEERZGMr/97TvA6eFiUYI3e4UCq1WKxZGOcGQ3W4XC4JcvjwZPXf+8v0ul8srdBHwSpzk+X+bzSYWNxmek09eBDUajXiGy+XqVnHQ6XRotVra2tq6nbwNDQ3Mn/8//Pa3DxIbG8tf/vIXQkNDueeee9i2bZtXhItch6CgIGEKKC+vIC8v74xy/fz8+Pzzz0lJSaGxsZHKykqamppoaGg47Wthobm5mXHjxjF58uVMnz6dlpYW1Go1Bw8eFP2oVCoxGAzExsbS2trKkSOHCQkJRafT4XK52L9/v5e5oaGhAb1eT3R0NBMnTsRsNvPmm2+eQbmHhobS0tIifBokSaKjowO1Ws3EiROZO3cuX375JR9++CEDBgxg/vz5rFu3jjfffJOwsDCmTp1KTEwMGzdu5OWXX2bPnj3o9XomTryUxMREVq5cyR//+EfRbu5xq+PYsWI++OAD9u3b58VAZGZm8sgjj/D111/z6aefevVVYmIi99xzj9fY9GSWPJUHue3j4+ORJOmC6fmAgAAGDBhAfHw8GzZsoKGhQfR7Y2MjeXl5TJw4keDgYFG2LEicTucvyp9IkiShhJ/rGuCs7+YpUD37U4a8RsjQ6/ViQ+NwOLHZbKJclUpFRUUFH374oVcUTnBwMJmZmej1elpaWnC5XDQ1NfH999/z/fffe9XH39+f2NhYoZAolUqsViurVq1i1apVZwjxC9lAnY1FkN/dM3ooMTGRKVOmsHPnTqFA+JSHXxZ+UgVCtouHhYWhUCgwm81UVFRcdOrK5XIRFRXFFVdcgdlsZvny5TQ3N6PT6cTOwm63o9FoRC4BebGVd+h+fn4MHTqUsWPHMmjQIGELX7ZsGd98843Ia6BWq0lMTOSyyyYxbNhwgoNNqFRq6uvrWb16NStXrqS+vh6lUklsbAzz5t1Cz549WbJkCdHR0UyaNAmDwYBKpWLr1q0sX76co0ePiknrdDoJDQ09LUQnExISjE6np7CwkJ07d9K7d2/8/Q387/++QFlZGeBWUsLDw7n88su59NJLCQ4Oxmq1curUKb766iu2bdtGR0cHKpWK8ePHc8stt7B69WqWLFlCR0fHGe0pCx+73S6cCd27I5V4XlhYmFj0FAoFISEhxMXFYTD4ERsbQ+/evcXCZrFYqK+vx2KxsHbtWqqqqlCrVdTVmb1MPCqVCo1GQ3t7OwUFBeTl5fHQQw8xaNAgxo0bh1qtFkzLoEGDiIuLo7q6mpaWVmJj49BoNPj5+eHn50dHRwcajUaYHPR6PZdccgkDBgxg+/Y8tmzZLN7FM7ukvPhrNBqx+A0YMIB5824mMDCI+vp6wK3QBQUF8bvf/U4od7NmzUKhUGAwGAgKCgLcSmBYWDhKpfIMilgOxWxsbOTAgQNeC79CocBqdTM8xcXFbN682evehoYG2tracDgcQkmV2S2VSuWVr8NoNDJ06BBycnJoaGgQ734+UCgUBAYGkpqaisXSwYkTJ8TclZ9TXFxMWVkZFovlDBOc3Aey0i4zF3Kej6CgIBQKhbjX4XBgsVjQarUYDAasVivt7e1e64VsUjEYDAB0dHSI3bb8uyc7IF8vO8jKEVjdQTZ5ne13T/ZBHo+ysJQVD7kv5LBxeaPR0dGBVqtFp9OJdUhWVD2jmuT5EBxsIj09nebmFoqKigSjaDQaCQoKEuuXSqUSLKHD4RDMpzwfTKYg/P39MRqNGAwGoYR7bqq6vqNctic7c7b2kK+V+1h+N3n+aLVagoNNDBs2lKysLHbu3InBYBAsrbzx8uHnj3+rAuG5m1cqlfTu3ZsHH3yQCRMmoFarWb9+Pb///e+FZ/zFglqtZuTIkURERLB27Vry8vKEAPBceDwngecOSalUCoHU3t7Ovn37hBPe6NGjCQoK5K233hZe7vPnz2f8+PEcOXKE3bv3YDQamTBhApdffjkRERG88MILAGi1Ovr168eoUaOIjXWH9RUUFNDa2sK4ceN56KGHSE1N5fHHH6eyshKlUklMTAyPPvoIV189i6KiIg4fPkx7ezu9evUiJyeH6OhoSktLCQgIEItXYGAgd911F/PmzaOwsJADB/bj729kxIgR5OTk8Oc/P88XXyxDo9EwZswYJk+eTEBAAN9//z3FxcVn7EBkVsXhcHgxM0ajkaioKBITE5k5cya9emUKE4RWqyUhIQGdTs+kSZfRr19/sTjs2rWLF198Uezup0+fzrRp04Rfhyz43CYSLY2NjSxYsICioiI2bNjAoEGDeOSRR7j77rvFYhUQEEBHRwerV6+mo6ND3G+z2YRS1NWnJT8/n/Xr16PVapk8eTK7d+8mP3+vFzMk7w5lv47Y2Fiuv/56evRI4IUXXmDp0qV0dHSwbds2nn76aZ599lkWLFjA4cOHKSsro6GhAZ1OR2RkJOBWTFNSUrDb7ZSWnvBqY3meJCYmctNNN5Gbm+u1y4yKiiIoKIgrr7ySqKgorz4KCwsjJiaGo0ePeoXSyu8g91lQUBATJoznt7/9LWFhYbz22mssW7b8vOeWrEAkJCTQ3t7hFQIqCwhPoSVJEmq1mqioKAYNGkRUVCSS5N5lWywWNm3axIkTJ9DpdKSlpXHllVcSGhpKcXExGo0Gm81GYWEhERERJCUlUVdXx8qVK6moqADc0QkpKSn069eP4OBg1Go1ra2tbNu2jcOHD6NWq4mIiCAjI4PIyEhBzSclJaHT6bBYLGzfvp38/PxuE4F5CvDuftPr9fTo0YN+/foRGhoq5kpdXR1btmyhsrIStVpNfHw8I0eOJC0tDZvNxs6dO9m0aROxsbFMnjyZ0NBQKisr2bx5M6WlJ1Aofsjj4efnh9PpJCoqmhEjRlBcXEJRUZHoz0GDBpKcnEzv3r2JiYlhzJhcoSDJeUHMZjNBQUEMHDiQ9PR0Bg8eTGBgINnZ2SJcuLi4mP3794vIM5fLRUBAAP369SMrq9fptVyiqqqKXbt2UVNT46UcBgcH079/f9LT08V4NpvN7Nixg4qKChQKBeHhYQwZMoTBg7OZNGkSMTHR5OTkoNfrsVqtHDlyhCNHjnS7kfHh54efjIGQF+mpU6fi56dHqVRxxRVXUFxczEMPPXRRn6VUKgU9W1tbK2hvWQDK6G5RkJWKhIQefP3117zxxhuUlpai1+spKCjgxRdfYNq0aSxbthyz2YzD4WDz5s2sWbOG3bt3YzabhWB+5513mDFjBl988QWlpaUAdHba0Ol0OJ1OFi1axJYtW1Cr1XzzzUoWLVpEbm4ugwcPZsWKFej1eqZPn87VV89izZo1PPbYY5SXlyNJEklJSTzwwAPccMMN2Gw2oQAZjUZuueUW/ud/5rNs2XKefHIR5eUV6HQ6xo4dyxNPPMENN9zI7t27OXGilC+//BK73c7hw4eoq6vrtj09KViZeTCZTEyfPp0rr7yS6upq2tvbCA+PICsri82bN1NQUMCxY8ew2+1CyPfo0YPs7GxsNht+fn60tbWh0WhISkqiR4941q5dJxZ9OTR08ODBJCYmEB4ejsViYePGjahUKhGKKy90ra2tFBTsY9WqVV79qtPpCA8PFzsskymI0NAQ7HY7Bw8eZMOGDcycOZMnn3ySzZs38ac/PcPRo0e9dmIOh4PGxkaCg4O57rrryM3NZeXKb4TyIF9z5MgRlixZwm9+8xsOHTrEG2+8QWJiIvPmzTsdMWLAz8+Pnj17YrVaOXGi1KudZQEcFhZGdnY2aWlpXv4J/v7++Pv7k5qair+/v5dTqsFgIDIy8ozcEJ7KYHBwMDNnzuSee+7GYPDntdde47XXXvOyd/8Y5MyeoaGhlJeXe93rGcngySKlpKQwc+ZMEhMT2bp1KydOnCAqKorJkyczcuRIHn74IczmehwOB4mJiQwdOhS73U5HRzvjxo2jqqqaPXv2oNPpmDNnDpLk4u2338Hf35/BgwczadIk2trayM/PR6fTkZuby9ChQ3n55ZcpLi7GZAoiNzeXK6+8kubmZrZv3051dTXNzc2kpqYydOhQPvnkE1atWtWtEuF+7zNNGFqtloEDBzJr1tU4HE527dpFdXUVyckpTJ8+nYyMDF599VXhh2KxdDBw4EDUajVbt24ViqlWq6Vv376UlpaeZrQUKJUq9Ho9GRkZXHHFFSgUCtLT0+nduzfHjhWLOths7uRhHR0WoqNj6NWrF0ePHqOgYB9KpYqGhgbBxrS3t1NSUoLVaiU2NpbMzEwqKiqED05dXR1Wq1X0Y1hYGJMnT2b48OEcPHiQgwcP0rNnTy6//HLS0tL49NNPqaysBNz5WGbOnElOzij27Mln7969JCYmMmPGDJKTk/nggw+oqamhra2dY8eOUVdXh91uZ9q0aZSWlnLgwAHsdjtms/msfeDDzw//VgXCc0EJCQkhJSUFPz+3M5LNZkOtVjN48OCL7jgj75LclLCb/uyqPJzrXkmSyM/fy5IlSygtLUWr1dLZ2clXX33FPffcQ0pKKqGhodTV1dHY2Mjy5ctF2fLCuWvXLg4ePEhSUpKgVgE0Gi0ul5MVK1awZcsW8f3+/fvZsGEDWVlZJCcno9VqiYiIYOLEibS3t/PKK69QVlYm3qWsrIx//OMfDBgwwMtxKSQkhGuvvZaGhkb+/Oc/U1FxCq1Wi81mY8eOHWzbto0pU6aQlJTM0aPH2Lp1K9u3bxd28u6cMeVdc1JSEqNHjyYtLY2IiHCmTJnC0aNH+e6771i9ejXV1TU8/vjjbNu2jaeeesoroVJwsImbb76Z1NRUiouLz6Dam5ubWbJkMcuWLRf0Z2RkJAsXLiQyciIKhYLg4GCuueYa7HY7r7zyMidOlHplvwwJCUGhcJep1WrRarUMHTqUd955R7AKKpWK1NRUFArQaNRYrVa2b8/j+++/Y+LESdTW1vHSSy+JHa5SqcRisVBdXY2/vz8ZGRkcOnSI7777npCQEMxms8j3cMMNNxAfH88zz/yJvLzt1NXVMXz4cCwWy2klKIyoqChiY2NpbGwUz5Bht9s5dOgQ7777Llu3bqGkpMSrH7KyevPUU0+xdOlSFi9e7HVvWFgYEydOpKSkGKvVeobNXq/XM2TIEG666Sb8/Px45ZWXef/992lpaRXK9flAoQCtViMSsHVVyLuyjgaDgaSknqSnp7Njxw4++eQTLBYLRqMRo9HIAw88wIABA1m1ahV1dXWUlpYSFhbGZ599RmNjI2lp7hTgb731FlFRUWRkZBAXF49arSYpKYnLL78cq9XK4sWLKS8vR6VSUVpaysKFC7n55pv5wx/+wPHjJ8jLy2PUqFE0NTWxdOlS8vPzcTqdJCUlcf/99zN79myKioo4duxYlzeWONtxQQaDgfT0dMLDI/joo49YvXo1TqeTw4ePEB0dzbBhw0hLS2Pnzp3U1taeHjOh5ObmYrFYsNlstLa2UllZSV5eHl988QVNTU0imsfpdIiIHYfDIZg1z8iFtrZ2jhw5Snl5BSkpKbS1tVFeXk5+/t4u/eY2C5WUlFBdXU1GRjqtra0cO3ZMOJJ7QqvVMmzYMC699FLWrFnDxx9/jMPhwGQy4XA4uPTSS6moqGDZsmUolUqGDRvGhAkTWLt2LW+//TYOh4NevXqRnZ3NwIEDWbt27WkFoo1Dh9ybhISERBoaGiguLj4jxNSHXwb+7QyELIza29s5efIkdrsDnU6HTud2MtyxY8dFd5yRFQe3g6Dey4nxxyBTxqdOnRL0rCx8WlpaqK6uJjk5Wez07HY7er2exMREsrKyiIuLw2QyERAQQHJyshcdLtsO6+sbOH78uHieLLTb2tqE/4LRaBThf4cOFXH06FFRR9kxzmw2U1tbS3BwsPi+R48exMXF0dnZyaOPPoJC8YNXuEqlYsCAAYSHhxMXF+vlZyG3W1fB46Ydw3nggQeYMGECCoUCo9FITU0tf//73/nqq684fPgwVquVbdu2YTabmTRpEn/729+orq4W9UpISCQnZzRNTU2sW7dOOLTKzw0KCuK6665j2LDhwgdBr9czaNAgFAq3cPL392fKlCnYbDY+++wzUb/ExETGjRvHJZdcwsmTJ1m0aJGgUD1tt57PkyRwudwmq7Kyk3zwwYckJSUzc+ZVlJeXCyc1vV4vdvr19fW8+uqrhIeHk52dzbx58/j4449Zt24dgwcP4tprr6W+vp4nn3ySyspKNBoNDQ0NVFVV0atXFgMHDiIiIgKTycS3334rHNhk+jcoKIiioiIOHDhAS0uLUOpkRiYiIhJJctHS0kJNTY343eFwcOrUKU6cOHE6q2dPVCoVJ06cENf4+fnRq1cvwsLCWLHiKz777DNaWlr/qSRp7rZzeY0VOePl6NGjSU1NpaOjg8LCQrZu3cq+fQU0NTVTW1tLUFAQqamphISEkJWVhVqtFvZvOcKopaWFtrY2FAp3SHB9fT1ms5moqCjR53q9nrS0NOLj4/m///s/Tp48KWzudXV1HD16hP79BxATE0NJSQmdnZ10dLh9No4fPy7GRm1tLfn5+Vx//fWkpaV1o0B0D9nxcOvWrRw9epTi4mLCwsKIjIwkLi6Onj0TvXwBFAoFra2tHD16lPHjxzNkyBDy8/OJiooiMzOToqIiWlpaRCZJSXLR0WFh//79LF++HIfDQWFh4VnPUpHbT3aa9jx8TmaE5HVWrVbj52dAo1GLaz0zWAJijLtcLrZu3SIUzLa2NoqLi8nJySElJQV/f39MJhOjRo2ira2NNWvWiM1BTU0Ny5cvJzAw0IvdlNdEOYpMbiO5jj7/h18OfjITRmtrK19//TWZmZlMmDABgE2bNvH3v/8duHinK4JbIO7duw+73S5SKVdVVQGIEMuzKS2edtzudmWe0RPyjn/WrKu59to5hIaG0tnZSVNTE6dOnRITw5OGliTJyy4vT1xAOOsZjUZxvoPRaKS+vr7bRV72KZCpfNlM2jDQ7QAAIABJREFUoNPpMJvNNDU1i3eR3/m7777DarWyf/8BL+c3+feu7SKn+a6trWXNmjUcOXKEadOmodPp2LBhg9fOoby8nHXr1nHDDTdw1VUzeP31N8QZDGPHjqVPnz4sW7aM/Px8HA6HFwWvUqmJiYlBq9UJu7lGo8Hf3x+n8wdhJfs1SJL7bIxLLrmEadOmMWLECNRqNV988YWwnVssFoqKirj//vtFCKnJZOL+++9nwoQJoi8dDgf79u1jyZIlPPHEE8ydO5fjx4+LqAmVSiWyOG7btu20wFMwYcIEHnzwQZKTk0lLSyMkJIR3331XjDW73U51tZt+HzhwANOmXUlQkAlwj/3Ozk40Gg0hISHceeedjBkzxsMpT4FCoRRRAHa7HZPJRHh4BNOnTyc7Oxt/f3/0ej2dnZ1ejmqSJFFSUsLLL78sTEJ6vZ7IyEjsDjuHjxymubnFyzP+fOFyuZ3/Wlpa0Ov1IrzR6XRSVVVFdXU1d955J3V1dXz55ZdUV1fjdDrR6/VMmDCBrKwsLBYLp06dwmg00tnZKeaZZ8ifp5CUlSjPcEK9Xk9cXBwJCQmMHTuWmJgYVColLpfbByg9PUOkA/dkRaxWq1eIpd1up7W1FT8/PyIiIi6gHdzOwKWlpeh0Wn7zmzlkZvaitdW9yTAYvE1MchudOHGCEydO0LdvXwIDAzGZTBgMBvbv3+/Vfy7XD3NAVgZqa2vZsGGDcCLtyhSqVMoz1hr5N3mTcq6+9mQ3QkNDSUpKIiEhgauvnkVraysyE5OQkEhcXNzpNc59EF2PHj2oq6sTWSzdG6V61qxZ46XIdPVDkuvrqdz78MvBT6ZAuFwu9u7dy4MPPkh8fBwKhZLjx49TUVFxUZUHcE+E3bt3U15eTt++fbnssst49913f1R5kCE7oHV3ncNhR6lUiAiB8ePHc99991NeXs4TTzxBSUkJNpuNlpYW/vKXv5CRkeGV/8DzGV3/75m2WF6g7HY7BoO/mGieO2nP3YNS6Z6c8mmTJ0+eZMGCBWc8S/5bNi14ml7k37r2RVNTE3/+85+xWq3ExcUxcuRIYmJizlCwWlpa+OSTT5gyZQrz5t3Cxo2bOHbsGAMHDmTGjBlUV1ezYsUK6uvrzzCVmM1mXn31Vb777nvxrmFhYdx///3k5uYKxkdmaO666y5SU1Pp168fNpuNbdu28emnn7Bjx05hQ5Ukifr6emEKkCMZGhoaRBvIaG9vZ/369aSluVmf1tZWrzBf+SObNNauXYdSqeLBBx/kjjvuEGPOMzeFXG5+fj6VlVVcccVUXC4XW7ZsEZn+PMP6ZOdRWXmQoxRiY2NJSUkRTEqvXr1ITEyktLSU6upqISQ9+1cOZZaFhsVi4fvvv6eyspID+w94sU4XAlkwlJWV0aNHD6Kiojh16hSS5A4HPXr0KLW1tdTX1wuh2LdvX+bOnUtERATffPMNu3btoqWlhfb2NrKzB3vtPD3b2hOy+UkWpnIWVIfDQWlpKQUF+5CkH9Knb968maamJpGiWx5vnn3umRfln4kE8/PzY+TIkVx//fW0t7ezYsUKCgsLT68xMGbMGK+dv0KhoKamhl27dnHNNdcwevRoNBoNdXV1XuYqT0VKfme3uaKNgwcPniGM5fZSqdRdWDZvZexs7+gZ9SFDoVCgUrtZ14KCAsxmM+Cef3v25PP555+LTUpCwg/5Pbr229nYX89381ScfArELws/aRhnZ2cnJ0+epLS01GugXWzKSq1Wi/TDDz74IDfeeKMIezxfeE5Az+/sdodY7ENCQrj00ksJCAjg3Xff5YsvvhDvYjKZ8PPzO51jwTtXgzzZ5FwRP0AhskPKwq+pqYmIiAj8/PxobW31WljCw8OJjo7GbrfjcLjDpWTaOjMzg6SkJJFopjvaU/YVkAWup5D07BNZaMh2VLcJSuflsAc/OBJ+8MEHPPbYYzzxxBO8//773HbbbSQk9ODPf/5f9u7dKxYNzzrpdDri4uLp37+/8Mg2mUzExsaKtgdOU/SJ3H777dTX17N8+XI+//xzdu3aRUNDg5dJCPBSlGR2SY7IkRdNmQ2prKzkxRdfQqFQ0NLSgr+/v1cUhifF297ezrfffkt4eDgPPvggQUFBbNu2jYqKCtEuct6NY8eOsXv3bgYOHEhjYyNr1qyhurpasB/V1dU8+eST/PGPf/TaLapUKtLSUnn66acJDAxk27Zt5ObmUl9fj8vlYvfu3eIci66ngHoKS6fTfS7FmjVrxI7wX1moW1tbKS4upnfv3sTFxZGfny9MApLkTnUuRzMZjUbhN/P66+7TSCXJfUaJbFbrSl17Rp7I41Lu1x8YGveuVhZweXnbhTmm69yVzy/xPP9EbmO5bLvd7hX6+WNQKBTEx8czY8YM/P39eemllygoKBBOsHLopycjINe5pKQEi8XCVVddRWlpKbt37xZ+K571drm8QzllhTYgIIDIyAicThcVFRVe/ktdd/JymedaY7sKbrkPLR0d2Dvt7N27V5gju+sXp9OJ3fEDEypv1Dx9YTz7Ru4Dz2grn+Lwy4Tyxy+5uOhKYf270NnZKZLxjBgxgr/+9a/cdtttxMTEAAgnvcmTJ/PJJ58watQoUS958etKQQJeTIDn3x0dHWLB0Ol0TJ06lZycUaeTwLgnr2dsNPzgeyAvvHL4m3xdYWEhR44cITMzk2uvvVYIBYfDgVarJTfXfYKkZzTCqVOnWLlyJaGhYcyZM0fUW16IAgMDiYqKEtf7+/szadIk0tPTxft2t9jIArg7itQT7e3tfPDBByxbtozp06fzwQcfMHToED78cDEffPC+SC7lKYzBzTY8+eSTrFq1imXLlrFq1Sr+8Y9/MGHCBBHTLt9TU1PLiy++SG5uLrfffrsQik899RTvvvsugwcP9uqvroujbKOVd+7yuSdydsza2losFgsqlQp/f3+hMHpCoVAQZApi4KCBJCQkEBISwq233sJ1180Vvi7y+7lzDbQKIVVbW0tHRweSJHkpG56hpxqNhiuvvJKPP/4H/fr1Z+HChbzwwgu4XC5WrlzJp59+ytixY3nsscfIysqis7NTONt5ClwZOp2OjIwMRo8eTWxs7AVln+yKtrY2kdlw0KBBGI3G03Z1P9G3MkMXHR1N//79cTqdVFdXi3YHd5Ikq9VdZ71ej8lk8mLC5HaWx6rL5RLKQH19PQUFBVitVvr06SMyNcr3JSQkMH36dOLj472EqFsZ7BTXhoaG0q9fP1paWjh8+LDXM933gVLpzkwrjwONRoNWqyU+Pp6YmBgqKipErhe5Dzs7O4XZRc65ICui1dXVHD9+nEsvvZSUlBR27dp1xo7cPR7c81D2a5AZJYPBQL9+/cnIyBCbDXluyOuD53j3VELcdVKcZju9mTW5zxQKBdXV1RQWHiQ0NJSUlBTRLiDnEXHnyDEYDNTU1HC85DhxcXGkpqZ6zevAwEBGjRrF5MmTvU7ldTgcImmePBZNJhODBw9mwIAB4kA+H37e+I8pEF3/fzEhLxRHjx7l7rvvJi8vj4EDB/LXv/6VTZs2sXbtWr799lvy8vL4+uuvueSSS7wUArcpoM0rnMjz8C15srpTsO5BpVIxf/58Jk2aREJCAvfeey+/+93vaGtr90pK5Mk8eO6y5LJ/aBe31t7e3s5HHy3BbDbz9NNP8+KLLzJkyBCGDx/O//7v/3LLLbcIgSwLuObmZt56663T2SPn88orr5CdnU1ycjK33347K1as4M4770Sn0xEYGMjDDz/M8uXLee655wgJCflRNkjeNXc1Bf2wa3JnwNu8eTMul4vAwEDKytypnOUDo7pTIuvr63niiSfIyclh/PjxjB07lquuuoovv/yShoYGkYK8s7OTkpIS3nzzTQ4dOoRarRZ5IPr168uYMWPw9/cXC6efnx9BQUGYTCZCQ0NFKKWcTEiS3Mmb5OQ18kFrSqVSHAYmK26eGQLDwsKYd/M8rphyBevXr+ejjz4iJCSUBQseYvLkyUiShE6nIywsjKuvvprrrrsetVpNcnIyf/rTn4QfkNx2cp4NSZJITk7m979/lBdffBGlUsndd9/N+++/fzrhUCetra289957vP766wwdOpT33nuP++67j/j4eKGAyAm/wK249uqVyXPPPcc333zDM888Q3j42Y9Y/zHY7XYKCwv59ttvGTZsGFOnThXslOxI2NbWhkqloqmpCbPZTExMjDhDxOVyER8fL05RDQkJ4bLLLiMlJQWLxYLVavHqDzkSQRaQ8jg4dOgQBw4cYNy4cYwdO1YI9szMTBFtcvLkSUBOx26if//+pKWlA25BKN+7cuVKDhw4IMalJ/NktVpE38jKoVKppKWlhZaWFuLj4wkLCxMmkbS0NMaMGYPRaCQ5OZkxY3KJiooUc6u6upoNGzZQXFxMSUmJiMbxZEh0Op2Y006nUyQRCw4OZvLkyVxyySVepjp3+niVYL084cneuTcwLqG4ye8lv6/8d2NjI+vXr6epqYlbb72VxMREJMkdJj58+DBycnJoa2ujtbWVqqoqvvnmGxwOB3feeQfJyUnCuTInJ4dhw4ZRXl7u5UjZ2dlJRUUFTU1NREZGotPp6Nkzkd69e2MwGM56NpAPPy/8KlNZy9n31Go1O3bs4Prrr+emm27k8ssnk5KSQlxcnFjwduzYweLFizl48KCgMpubm8XR057ORy6Xi7q6OoKDgwXNt2LFV4SEhDJnzhwWL16MSqXCbDbz/PPPM3r0aDIzM71iyOVdrmeiFE9Ww+3U1SaEwJo1a7Hb7+Wpp57i5ptv5uabbxaJaF599VVycnIIDw/3cgjcvXs3t9wyj0ceeZQ5c+Ywe/ZssRju27ePjRs3ioOuzGYzbW1ttLS0nJFGuzt4hu51Tcvr7+9Pv379uOGGG7jiiiuoq3MfhpWYmMijjz5KbGwM33yzUtD3nu/d1tZGQUGBV2hrREQEU6ZMISAgQAhuSXKfB+Lv7y+ukxdChcKtdFVVVaLX+6HVapk4cSLr168XbeN0OomMjPSyzco7S09nPpl+l5Wqjo4OsTD36NGDu+66ixtvvJGDBw+yaNEiiouLqaur4/bbb+d3v/sdxcXF1NTUMGPGDB588EHsdjvvvPMOMTExTJ48meeee46HHnqIb7/9FpXKHfMfFRXFlClTmDt3LjExMWzYsIHXX39d5ApxU8KS2IH/7W9/o6Kigvvuu4+nnnqKW2+9la+//po1a9Zw/PhxwXQolUp0Or3Y3brNMec9nbwg95scviyzbb1796ajo4Po6CjefPNN1q1bJ3IQLF26FD8/P+bOnUu/fn0BMJmCqaio4OTJk8yaNYvvvvuOiooK+vbtS1xcHDk5o7DbHaSlpVFdXU1OTg4ZGemkpKRgtVoZNmwY+/fvZ8mSJbhcLu69915uvPFGobhs3ryJTz/91MuBEiA+Pp6bb76ZSZMmERQURFZWFu+99544DEyhUGAymcSpl2lpafTokcDw4cNpbm6mtbWV3bt3U1ZWRmFhIYsXL+amm27i/vvvZ//+/QQHBxMcHExRURHZ2dlMmTKFTz75hKqqai8TQ2trK7t27WLTpk1eLIFWq6VXr0xGjBiO0WikX79+3HrrrTidToxGI3369KFXr16sWbOGoqIicbbK6NGjyc0dQ3R0NNOmTcNkMtHc3ExBQQFlZWXCoTQpKYns7GyRhG7ixIkEBbkzqubn51NbWyvGift03Je54447+OCDD0Q5cjKv/Px8sRHau3cvr7zyCrfccgvvvfc+5eXl2O12mpqa+OKLL9i7d+8ZY6moqIi8vDxmz57NqFGjqKmpYdOmTRQUFJx3WLEP/1koOFuQ8y8YnnY4+MFZKjU1lYiICHQ6HQBtba0UF5d4hWsGBwczePBgampq2L9/P4DIZ6DRaOjVqxeBgYHs2rXLi4JLSkoiJiaagIBACgsLqaioEGFz27Ztw2q1otVqSElJISQklKKiIpqbm4VgUyqVRESEi2Oli4qKsFqtwpYaFRUlwkLtdjsnT57EZDLx7LPPotPpuOuuuyguLvZKp6vT6cjKyiI8PFw4cB07dpTGxiZR75iYGDIyMigrK/MKFfWEWq0mLi6O6OhowsLCeOihh9Dr9dxzzz3s2LGD8PBw0tLSuOKKK5gxYwaRkZHs3buXV199lbKyMn4z9zfMutqd1jkvL4+1a9eyY8cOkYHw1VdfJTs7m/nz57N+/XqSkpIICAggOjqae++9h5iYGG688SYqKipYvHgxCQkJvPzyy+zdu1fQu1lZWdx+++2cPHmSmTNnkpyczJdffkloaCi1tbViR+NwOAgODqazs5P58+fz9ddfYzQaycrKIjo6mqamJmw2G0ajkenTp/Ob3/yGnTt3ct9991FSUsLQoUOZPXs2V1xxBfv37+eFF14Qx27HxERz2223YbFY+O6777jqqqu48cabsFgsvP766yxZsoSYmBgefvhhpkyZQnl5OX/961/ZvHkzubm5zJo1i549e1JeXs7HH3/MZ599xqlTpwRzNXLkSN5//33eeecdcYaG3MezZl3NxImThIBdvXo1L7/8sjhjIDAwkGHDhpGamsqOHTvYt2/fP73L83R80+v1JCX1JD6+B0qlkqqqKgoKCoRAlNkxORtkeHg45eXlHDlyhPb2dlJSUujZs6fIoDlw4EAkSaK0tBSLpYPw8AhsNhtNTU0iYkHOnVBeXi7MH+7xGYXJFExlZSV79uwRAluj0TBy5Ehuv/12Dh48yNKlS0lMTESn01FZWcnOnTuFrV6OuElJSTkjWZnFYsHlcp+tIjMbOp2O6OhoEhMTCQ4OpqqqikOHDmG32+nRowcGg4GTJ08KJ0T5ntzcXEaPHs3f/vY3ysvLxW9arZbY2Bh69EjAYDAQFhaGwWAQ87qtrY3S0lLKysqEA3pycrJw/LVarej1eoxGI62tLRw9ekwke5KPCu/VqxdBQUHCHNTY2EhDQz2HDh3GbDZ7+eG4XC6CgoJISUnBZDJht9spKyujrKzMy3FSVsjl8Fyj0YjZbKaqqopTp06J9/McF/K4dK+JIdTX13P8+HHBNvr8In4ZkH7tH4VCISkUin9LmRdarkKhkJRKpaRUKiWVSiU+SqWy27Lk67t+r9PppClTpkgHDhyQ3n77bSkyMtLr+nOVebb3ONv1QUFB0qJFT0jV1dVSSUmJ1N7eLn388cdSamqqNGzYMOmtt96Sjh07JpnNZmnHjh3S/fffLyUkJEiApFQqpejoaOmmm26SvvrqK6myslKqq6uT1q9fL40cOVKKioqSPv/8c6m0tFSaMmWKlJqaKr3++utSUVGRdPToUampqUlavny5FBISIplMJmnBggXSqVOnpJqaGqmiokKqrKyUqqqqpMbGRun48ePS73//e0mtVkvDhw+XSktLpZUrV0rZ2YOlAQMGSH379pWGDRsmffjhh9Lx48eliRMnSoAUFhYmPfPMM5LVapWampoks9ksmc1mqaWlRSoqKpLmzZsnqVQqKSkpSVq7dq1UW1srvfPOO1J2drZXO8r/xsXFSe+++67U1tYm5efnS3fddZcUHh4uAZJWq5X69+8vffjhh1JbW5t04sQJad68edIjjzwibd68WXrmmWekgQMHSmq1+owxkJOTI1VWVkoLFy48Y0wYDAZp+PDh0sKFC6Uvv/xSuu2226SgoECv/j3X52LOC5VKJanV6nOWe7ZxfaHPOducUavVYp7p9Xpp4sSJ0ooVK6Rnn31WioqKPO95cb7z+WzXyuXodDqpX79+0g033CBdc8010sMPPyzNnTv3oq5JP+XHcx2T3/9cbXA+1/k+v7zPr9KE0RVdw508v7sY8PRf8Pzb0/fhXL4FZwst9WQ8ioqKRPihvOucPn06er2e7du309zcLOhE+bnyrsXzOV291D3b42x1tNvtHDtWzM6dO3E4HKxZs4bPPvuM0tJSgoODMRgMlJWV8c4777By5UqOHDnidXJpVVUVixcvZvPmzVxyySWMGzeO0tJSkep6z57dtLS0UFVVRVNTE9u3b8disdDZ2UlrWyubN22mvb0dh8PB+++76dGkpCTBMimVSmw2GydOnGDz5s3ChrtixQoOHTrErl27xbsYjUaWLl3K4cOHxFkUHR0drF+/Xph15J2VxWJh3759bNiwQURmfPXVV+Tl5fHhhx9SUlIi2lz2Opfb1eFwsHbtGt58829s2LBBtEdnZyeFhYU8/fTTnDhxgoiIcFavXkVzcwtffLH0dIrlFrpDa2sr+/cXUFFRfsZvHR0d5OXlkZ+fT3BwMGaz+Sc99dLT+fFczz1XuLC8m+16Tdf529UJV77Hc0zL41w+hyMtLe30QWZhZGX1pq1thzgQzxOec9fz42nG7FofzzrL46Bre2i1WlJTU5k5c6YYG+vWre22jTzLlXG29epc69jFWuO6RjbJZZ9tveha7673dV0vffjl4ldpwvhPQJ7wnt7tnhOs60SS7zlXVIq/vz+33HILc+bM4cCBA+zbt5fGxiaR8S8yMpIVK1bwyiuvUFVV5eWY2XUSezo5ejpVdVev7t7NaDQSFhaKw+Gkra2NxsZGwK3kyAeDlZaWCnOR7HAmP0emOd0UbSzt7e3U1NSIhFlqtZq6ujoRUqk4HRXRVfnypMVlnxXZZ8EzlFAOc5WPBO/aH13hafLybB/P3CFyymzZZiz7TngKFrluYWGh+PkZOHHihJcQAoS/hb+/P8HBwV4Udtdx4dmXAQEBpKWlnUELd723uzJ+DD8HurirQnsx6qRSqURSpICAAOx2O7W1tSJfi/zcC62jXL/u5rTnv/I1SqWS0NBQ0tPTUSqVHDx4kIaGBnHNrw3dbao8Ny6/xnf+b4RPgbjIuJDF6McmkVqtpm/fPlx33XUkJSVjMBhwudwe4HV1ZhFRIqfF7u753QkiT2Xi34HuWJ7udlPdLSQ/trh4/t4dsyMv8J7fn4+idLbndscwdPc8+Zruyu0uz8H5tP0/w5bJSqwvtv788GPztesY7trf5xoP8v3/Tf3QdY3xxH9bW/w3wKdA/MyhVquFmUCj0aBWq3A4nHR0dJw+4c9yQR7L50OL/trwc9jx/JR1+Dm87y8FF9pW51LQu7vmv7UfzqaY/be2x68VPgXiFwiZWj9bum0ffPDBBx98+HfDp0D8QuCdwc/xkzrI+eCDDz744ENX+BQIH3zwwQcffPDhgvGTp7L2wQcffPDBBx9++fApED744IMPPvjgwwXDp0D44IMPPvjggw8XDJ8C4YMPPvjggw8+XDB8CoQPPvjggw8++HDB8CkQPvjggw8++ODDBcOnQPjggw8++OCDDxcMnwLhgw8++OCDDz5cMHwKhA8/OXzH+f570PUgp4tZrg8++OBDV/gUiP8S/LuEyy+1Hj9HXIy2Od8yfH3ggw8+/KvwKRC/cqhUKnHEsydkQaNWq8V38tHV5xIuSqUSrVZ7zmN7FQoFer3eq2zPZ55LyHX3u1yewWAQx2NfDFyMcuQ27K4slUqFRqMR76JUKru9Tn6nf1Woex6T7lm2/JGffbY6eNZZo9GgUqnO6EMffPDBBxm+szD+CyArEE6n84zTO/+Zo5//mfJUKhUqlQqXy4XT6USpVOJyubyuVavVQtGRJAmHw4HL5bqgup1P3dVqNU6nE5fLJeqrUqmQJOmiP6/rs8/WNp7Km8vlOucR7WdTwOT3UavV2O12cS38+DHKct3O93ofLgznUg59be3DLxUqYNF/uhI+XHwEBgZy0003ERMTw/Hjx88Q1vDDbnP06NFMnDiRyspK2trazlmuSqUiKSmJefPmkZyczKlTp+jo6ADci6RGoyE8PJx58+YRGhrKsWPHxL0ulwu1Wo1Wq8Xlcp0hrOU6ysLds756vZ5hw4YxdepU2tvbqaur+6fbRpIkwsLCuPzyy8nIyODw4cNit32+CpVaraZnz55MmDABf39/GhoazhD6RqOR0aNHk5ubi9VqxWw2n1GOzAx4MhByv+j1enQ63RkfrVYrWAL5o1ar0Wg0BAYGoFKp6OzsFOUZDAaGDBlCTk4Ora2tNDU1dftOGo2G1NRULr30UoKCgqisrPy3KlT/LfCZi3z4tcLHT56GvCM+FzQaDZGRkdhsNsxm80XfOXguNP9q2UFBQSxYsIA9e/awZs0anE6n2LnKZatUKoxGI7feeisjRoxg7969VFVVedXHsx4KhYLg4GBmz57FAw88wIoVX7F582ba2tpQKBR0dnbicDiIioriD3/4A6tXr2b16tViZxwSEkJWVhbBwcFs27aNuro69Ho9AQEBQmGQ/5Wp85aWFux2O0FBQcybN4/LLruM1tZWioqKxI65az1/rO1UKhWJiYksWLCA0NBQamtr2bJlC+AeB+e6Xx4nRqORKVOmcM8997BixQqee+45qqurxf1KpZKoqCjuvPNOEhISqKqq4vDhw2eU51n3sLAwxo4dS9++fdFoNKfbwoVC8YNy8WPCyOFwUFhYyMqVK2lqasLpdOLv78+4ceOYNGkS9fX1lJWViWcaDAbi4uJobGzEYrHQt28f7rzzDjZu3MT+/fvp6OhAoVAIRsOzHfz9/YmOjiI0NBSDwR+Hw0FTUyOnTlVSX1//T41hmYmR7/U0y/xSduo/5ociSVK35qafEl3nzc+9bX3M2M8TvzoFQqFQEBoayqBBg6iqquLIkSPYbLYzrgkKCqJv3750dHRQUFBwhvIgl5Oeno7NZqOgoID09HR++9vfUlh4gFdf/csZi+q/AnkH+q/u+GQBplKp0Ol0wmwgC3FPOJ1OAOx2Ow6H44wdtFKpFNcA6HQ6RowYwXXXXc+ePfm8+eZfcTqdzJ49i9raOjZv3kx7eztWqxWbzYbL5Tq9Kw4kOzubyy67jPHjx9PS0sLjjz9OXl4eU6ZM4ZJLLhF1ln02XC4XpaWlfPzxxxQXF9Pw9PCrAAAgAElEQVSjRw9GjBjBqVOn2L17t9fC13Vx0Wq1JCUlodPpuulXcLkkAgICKC4uJj09nblz59LY2ChMCXa7XSgxCoUCp9NJR0cHJ06cEO0SERHBoEGDsNvtFBTso76+3qs+KpWKnj170rdvX4qKDlJefrJLPRSir5xOJyqVirS0NO69914iIiI4ePCgYBE82YmupgbPvlSpVPTp04fU1FRWrFgh+s5t1nCzGp7tpFarycrK4ne/+x35+fksXrwYl0tCrdacU7Cp1Wri4uKYNGkSkyZNIiUlheDgYBwOBxUVFXz77bcsWbLEi306X8jv63A4RH84HI6fpeDw7BOZNZLnjMPhEKY6eQx5+qEEBQURHBxMbW0tzc3NP2m9lUqlUNBlk+IvAd0pEbIipNFoCAkJQaFQUFlZ+Z+q4n8dfnUKhEqlYsCAAbz++uuUlpZy2223cfz4cfG7PNmzs7N5/vnnAZg162qOHSv20si1Wi2TJ09m/vz57Nixg4cffpj4+HiuvvpqQkNDeeutty+aAqFWq7u1eWs0Gi8/g/NZRGWB2dnZKQS53W4XO+LMzEwMBoNw/FOpVISHh2Ew+DF27FiioqKE4HS5XJjNZvbt24fdbicjI4MHHngAhULBG2+8wd69+xg+fBhz5szB5ZJoaGhg586dAOJ5V101g5EjR5KTM5qgoCCOHDnCl19+ydGjR1EoFJhMJpKTk7Hb7cIHQqfT0aNHD2pra1m/fj2nTp0iOzub2NhYli5dSltbG/Hx8SiV8oKsEEpSZ2cnSqWS3/72twwaNIjOzs4z2shu7wQUREREYDAYmDx5MhkZGcLxU5JcuFwSSqUCSQKr1UJR0SH+53/+h4CAACIiIhgyZAiZmZnU1dXR0NBIcnISkiTR0WGhsbERnU7HyJEjCA8PBxRkZfUmLi4ep9OJVqtFpVJhtVrZtm0b7e3tYnFsbm6msLCQN954g5aWFqEEei6eknSmkmm3OzCZTDz66KM4nc4z3luS3GPfYPBDq9UiSRJ6vZ6BAwcyfvx4wTx1Z1rqCvd9A7juuuuEmerw4cNERITTq1cWmZmZhISE8PTTT1NbW/ujY9YTLpcLPz8/+vbtS1ZWlpgDDoeDmpoaNm3adMaG4KeGQqHAaDTSq1cmAwcOJCAgkNbWVjo7O4UpqaGhga1bt1JeXg6450NMTAz9+/cnLi6OXr164e/vz8svv0xBQcFPWn+Xy0VgYCC5ubkEBASwatUqampqftI6XChiYmIYO3Ysfn5+rF+/nuLiYuAHZXbUqFGMGDGCwsJCXn/99f9wbf978JMqED8FDelyuaioqABg2LBh9OrVy0uBkIXUiBHDSUtLQ5Ikhg0bTnFxideOW61W07t3b9LS0li9ejU2mw2n04nNZsNqtf6oB//5mETA20ve39+fzMxMAA4cOIDVaj3vNlMoFAQEBDB48GBCQ0MJCQkRgnjatGm4XC4yMjKYOXMm0dHRXpEBBoMBvV7PggUL6OjoEI6MTqeTI0eOcO+996LT6Xj88cdIS0vj2WefZdWqVTgcDkpKjrNz5y6uu+46brrpJg4ePCgUk759+/Lss88hSRI7d+5g7dp17N+/H4vFQltbG+3t7Xz++eds2LABm82KQuH2BQgJCeGOO+4gKysLq9VKQEAA48aNQ6vVMmLECN566y30er3Y2dntdpxOJ06nk5MnT/Lss89SUlJyBqOjUqmIjo4mOzubpqYmNm7cyMaNG4mJiWHw4MGoVEry8rZTXV0NuAWsUukW9KWlpfj7+zNz5lXcdNPNhISE0KNHD9ra2li0aBEulwu73U5+fj7PPPMMBoOBSy+dSGBgIOPHj6d///6iLnL7lpSUcN9991FQUCD62WAwMGLECPz8/MQuXFbo5Gu6Gw/yvf3792fv3r3o9XosFovXNTExMVx//Q3o9X6sWLECk8nEoEGDaGtrY9++fTQ3N4td9LngcDiorq7hm2++4fDhw+zduxen04nJZOKSSy5hwYIFXH755Wzfvp2PPvroR8euJwwGP4YPH8aUKVdQWVnJnj17iI2N5aqrrkKSJA4fPkR5ecUFlQkXnwK32+3YbJ2kp2eQm5vLypUrWb16NQAZGRnk5OQwePBgPv74Y3bv3g2A1Wqlra0Nu91OTEwM0dHR6HS6i1KfC0V8fDw33+wexyUlJT9LBcJzzCcmJnLrrbdiMploamoSCoSbwXMQEGCkT58+tLa2/svPlBm+nyPr9XPDr46BcLlclJWVsXXrVmbPns2gQYP4+uuvBZXvcDgwGo307t0Hp9OJTqdj3LhxLFmyxMumHh8fT2ZmJi0tLeTl5QFugdo1LE/eHcqDzW63o9FozmAUZKEhmxI8BZusPAwbNpRHH/09x44d46mnnuLUqVNn0HVnG9QyBb5w4UL69u1LZ2cn4eHhmExBvPbaa5jNZvLz89m9ezd+fn6CgXC5XIwePRqtVsvu3bsxm+tQKlVCmaqoqCA6Opo777yTK6+cxqlTp+jfvz9/+MMfCAkJITAwkPT0NOLi4pgyZQpbtmxh7969aLVa6urqWLduHatXr2bHjh1UV1cTHh7O448/jkKh4JFHHsFsNp/hXBgREYHFYkGtVqNWq8nIyGDgwIGUl5dTVFSEXq+nvb0dl8tFTEwMyclJnDxZTnl5Oe3t7dTX1/PSSy+h1+u9HAxtNhtDhgxh4cKFFBYW8thjj4nv/vSnP9LQ0Mif/vQnysvL0Wq12Gw2Ojs7hUlDq9XSs2cSAwcOFEyKzWZDrVYTFRXFoEGD6OjoQK1WMWRINr16ZVJQUEBhYaGXUA4NDWXIkCHExMSI0FQZWq3mdASKWymyWq2CtVCr1VitVjo7O70WOblstVqNXq+nqqrqNNvgdp4cOXIkCQkJ6PV6Ro0ahb+/P0ePHsXhcDBihJslueeee5g1axbR0VEkJ6cQGRkplB63OUeF2Wzm008/45tvvmHPnj0cOnSI5uZmMZZPnjyJw+Hg8ssvJysri8TExAuYuW4TWd++/bjyymk0NDTwySefUFZWhr+/P21tbVx//fWkp2dcsALRnZ/MvwJJkrDZbFRWVlJZWUl7eztHjx5l+/btuFwuCgoKKC0tZf78+Vx77bWUlZVRV1eH2Wxmy5YtFBUVERMTQ1BQEO3t7RelThcCrVZLVFQUQUFBqFQq0tPT2bx5s/i9q7Ll7+9PSEgILS0ttLS0eCmyMqMrr2lGo/tas7me1tbWf0lx87ynpKSExYsXExUVyf79+8X3brPZKfLz9zJ27LjzijY6myLe1WzX9e+AACNGo5HGxqYzlPP/VvykCsRPpdHZ7XbWr1/PNdfMpk+fPuj1ekHpKpVKUlNTyczMpLj4GMnJKQwfPpygoCCamprQaNwLeFxcHElJSZjNZk6eLAMQQlfeSZyN7rXb7SgUCnQ6nbCFetoZu7aDbONVq9WkpaVRU1PTLfV+LmXC6XRSVlbGW2+9hclk4v/ZO/PwKKuz/39mTzLJJJN9J3sIYQ1h39coi8giayvCi1pwp1Vft7Zvq762Wm0VLVKgoiziCkgREEFkhxAghCUJkJCFbGTPZGYy2++P4TnMhEShlfbV33yvi4sk88x5zjnPec69fe/7+Pv78+STT1JcXMyKFStoaWnm/Pl8CgsLsdvtQvnx8vLi1VdfZcSIEfz5z2+Qk3PiWoqmUwGy2x34+vqi1WpFWGLGjBkYDAZaWlqEMDtz5gwxMTEsXbqU3/3ud4Jb8utf/5qrV6+KMEpkZCSpqanIZDLUarXb+KTYrJRloFAo8PPzZcyYMQQFBfHee+/x61//WgjMoKAgFixYwKxZs/jggw/45JNPaG1tFZtyW1sbgYGB3HXXXQwaNIi1a9fS0tKMw+EQmRzO8JFFbIRhYWHMnDmT6Oho3n77bQ4cOCDi13q9HpPJRGVlJRs3buSdd94RmSUDBw7kpZdexGw2Exwcwt13T6W2to4//vGPbN26VYxRpVLRt29fXn75Zfz8/G5QNFtaDJw9e44PP/xQKJ0S2dXXV4vNZhfzFBAQIMIucrkcf39/TCYTBQUF1NbWEh0dzeTJkxk8eDCVlRVUVlZSXl5OXFwc9913H0VFl0hOTqKm5ioymYzw8HD8/HSo1Wq0Wq0IZ0lrVC5X4O3t9PyYzWa3UIK02VosFpHlcavve0BAgFBoNm7cyOXLl5HJZLS2tpKbm8upU6cIDAzscP27Ehc7Eg6S4i7xTm62b9/VrtSe9H5LqcCtra2cOXOG3NxcBg8eTHx8PDU1NcJLZbVaBUfoPwGdTkdkZCSXL1/GbrcTGxsrjAlXoSkpBikpyYwbN47du/e48Y+ka125HikpqYwZM4YdO3Zw8uTJf1lxk75bXV3NunXrxP7rCrvdLkK1N9teZ+hMwZDJZHTtmkZmv0z27N4jCNGdtfd96/Gngp+cBwKcm92uXbu4erWWHj16kJKSIrRWpVJJv36ZhIeHs2bNGoxGE927dyczM5Ndu3YJgRAbG0tgYCBfffUVFRWV14hozumy2WzodDp8fX1JSkpCo9FQW1srwg7SfcxmMzKZjODgYLp27Yqvry82m42GhgbOnj0rBF1gYCCDBg1i5MiRaLVaoqKiyMrK4urVq1y4UEhRUTHx8fEkJSVx6tQpKioqbliQDoeDmpoa1q9fD0B0dDQPPvggJSUlrF692k0hkRa33W4nMDCQ1tZW0S+JDOgKk8nEm2++yQcffEBFRQUXL16ktbXVjZvh6+vLkiVL6NmzJz4+PkK5qK6uFi+2Wq0mIiKcwMBACgoK3OowSP9bLJZrFr/T8k1P786ECRNRKpWEhARjt9tpbGxEJnMWl/L29sZsNlNeXk51dbWbohgQEMA999zDs88+K1IS7XYH4Oyvt7c3JpOJ1lYjPj5aamvruHr1Ko2NjcyfP5/Q0FCee+45jh07JgSPpOwZDAbBXZBqYigUSvz8/Jg9ezZjx45l8+bNfPHFFyLNFZybcn19HSaTCZ1O12GxLV9fX6ZPn87EiRPx8/MDEFwIaaP08vLCYrEI0qpEgr18+TJ1dXUiFJScnIzJZKKurh6z2czu3btJS0sjLS2NkSNHcvlyCU8//TQHDx5ErVYzatQoHnzwQQ4ePMg777xDS0uLIJaqVCqhHEjCReLoSAphly5d6NGjB3V1dcJ1fzOQYtnp6elcuXKFc+fOua3t0tJS1q1bd4PS6XpNZ5u06zptL/y+b2PvSJC4ttE+O0byCBkMBioqKkQWjOs1rvdtX+Dtn8X3ZXO4jkGv1+Pn58c333xDWFgYaWlpxMXFiVCvpExIRk9oaBhdu6axe/eeG9p0VSJkMievKCUlhZ07d/6gGTR2u/07rf6byWb5vmfefn24KpsajZr4+HhiomPcSL2dEX1/ykqDK/6tCoS/vz+jR49m8uTJmM1mdu7cydatW3/QbAYJ9fX1HD9+nNGjR9O7d2+hQPj4+JCcnILVaiUnJwebzUafPn0YNmyoUCAkF7NGo+HgwYPU1dWJsITVaiUiIoL77ruPxYsXk5ycDDiF7IcffsiTTz5JbW2tWFjTpk3jV7/6FRkZGaJvZrOZL774gmee+W+Kiy+Tnp7Ou+++S3h4OFarhX79Mhk6dCjNzc389re/4dNPP+ONN95g9OjR/O1vK1i69JedWi+S50OlUmEwGIQnQaFQEB4eTkpKivhcctFHREQA0K9ff/z8nEKtra2NiooKysvLRWz/7rvvJjIykkGDBqJQKK+N0WkhWq1WamtrefDBB8UmP2zYMN544w0uXryIQqFAq/VhxIiRxMTE8PHHHwsLVnpZpc3UWQjJilqtZsqUKcTFxWE2mwkJCRW8ELVaTUCAPyEhIbS0tHD16lURbpBCFsOHD+eJJ56gqamJt99+m8OHD9O3b18cDjAYDFitVpEu2draitlspqqqilWrVqHT6Vi0aBF//vOfeeKJJ9i/fz/e3t44HA68vb3FpiEJEavVislkwuFwEBISQllZGR988MENdTUkS00uv84eb4/q6mpWr17N2rVr8fLyEhu11N9JkybRpUsXli1bRm5uriBbGo1GoaxI4QyFQkFDQ4NQPPLy8tiwYT133TWF5557jkOHDrF//35qamrw8fGmoaGetrY2WltbqampESm60mYoPSdp7K6bZEJCAo888gjBwcG8//777N2796bfV5VKSUREODExMZSUlLjtCdL98vPzkcvlN4QIpbF6e3tjsVhobGx0C0fqdDpiYpwbf3l5uQgDub4zcKOHT/LQSXyU5uZmYW27zofUR1e3vk6nIyIiArPZ3GGWxfV10DnfRPI0qVQqt7G5fn4zFUylTB+pb6Ghoej1evbt28eAAQMICQkhKiqK4uJisa5VKhV6vZ7hw4ezdOlSHA5n7ZSQkBDa2swYDK1CaHp5eREeHs6oUaN49NFHaW5uxs/Pj4CAAEwmU4f7e0d9dp1TyasmjT0kJIRevXqhUCjYsWOHIOdKc+DKFfouOEnjIfTr1w+LxcL27dtxOByoVCpBbm1paeHEiRO0tLQIb82ECRO49957OXnyJL6+vgQFBSGTyYQC77p2JCK4k0PlVCZ/qiGP26ZAtH+Qcrmc4cOH89prr5GQ4GSsz5gxg3nz5rFz584f9N6SpXj48GFGjx5Nz5490Wg0WCwWQkJC6N27NwUFBezevZuWlhYee+wxkpKSxTV+fn7ExcVx5coVcnNzRVhDindnZmai0+lYtWoVH330EfHx8Tz//PPMnDmTy5cv8/vf/x5wLqSkpCRMJhP33HMPR44cITQ0hMcee5yZM2diMpmYP38++/btIyEhgalTp/LKK69w4MB+li79JVVVVSiVSnx9fTGZjDgcDkymzhno0oYuuUc1Gg1KpYrQ0FDi4uLIzMzkscceo0uXLthsNjfr1+Fw8NZbbyKXK7DbbRiNJtavX8+vf/1rqqqq0Ol0PP300yQkJGAymfD29qatrU3wQhQKBWfPnmXz5s1UVFTw/PPP84c//IElS5a4rQeTycihQ4fZs2cPBoOBhIQE1q5dS1RUFGazGW9vb7y9vYWQCAgIoKCggPr6emJiYkhJSeHMmTMAaLW+BAYG0tDQwJUrV4QbWalUcscdd7BixQoaGhp4+eWX2bBhAyqV6tqcOOdUyoRwOJxeJ61Wi07nTO985ZVXsFqtPPjgg7z88ss8/fTTFBQU4O3tfUPam+RC1Wg01NfX8/vf/x673c6CBQtYuHAhr7/+OsePH0epVF5zY1ux2x1CcXGFM/PDQWVlJampqYwdOxaNRoPNZsPLywtfX1/S09Px8fFh/vz5NDU1iY1TqVRy+vRp3nrrLVQqFWlpaYSEhPDNN9+4CUyNxouRI0diNpvZsmUL9fX1+Pn54XA4UCiuEzZd32GpeqfD4V6tU/IE9e3bl1//+tcMGDCAzz77jNdee+2WsiWUShUBAXrUajWtra1u3ikp5CYJbkkg6fV67rzzTsaPH4/dbsdgMBASEkJVVRV//etfKSgoICIigoULFzJz5kxKS0tpazMTHR1Dbm4ueXl5TJgwAZ1Ox65du/jjH/9IQ0MDcrmc2NhYpk2bRkZGBo2Njej1AZSXX+Hdd9+luLjYzashefOk/+12OykpKfTv359jx465kbilOWuvPLR3eUdFRTF16lQGDBhAfX09drudqKhIsrOPs2bNGiorK/Hx8WHkyJEsXryYnj17cuzYMd566y0KCgqYNWsW06dPx8/Pj88//5z169dTUFCARqNBr9cjl8upqamhqKgIh8NBQkICBw4cEM82KiqKKVOmkJGRgY+PN3p9IHPmzCErK4uqqip27dpFTk4OCoWC5ORkJky4k7S0biiVSrp06cKiRYtoaGigpqaGL7/8kuzsbMLCwsjKymLQoEGkpaXR0NDAiy++iE6n42c/+xldu3bFaDSydu1aPv30U8xmMz179mTYsGFER0czfPhwzp8/z/79+8VcSfMtZWBpNBpmzJjBnDmziYyMwmazsW/fPlavXkVx8WX69OnD4sWLycrKYuPGjXz11VfI5XKSkpL4+c9/LsIv+fnnMRgMpKWlMXXqVOLj4695r/vxxBNPUF9fz7lz59i+fTvFxcXiOfr4+DBq1ChmzZqFRqMRRtrOnTvZuXNnp0Xcfqy4bQpEe1ehXq9nwoQJREdHi8/0ej3333//D65AgNOllp2dTUtLC3369CEiIoKysjJSUlIICQkhOzub5uZmiouLKS4upm/fvqSmpnLu3DmSkpKIiYmhqKiIsrIywYaXYr8ymYxly5axbt06ZDIZZWVlvPLKK6xYsYIhQwYLodbW1saqVat45513RGigoqKCd955h4yMDPr3709ycjL5+fnAdbewxWIVAl6hUNDU1MRTTz3NO+/8lbNnz3bqfZDcp2q1msTERLRarWCI22w2/vCHP/DIIw/zy1/+ioSEBP7whz+Qn5+PSqUSBYN8fX2ZOHEikyZN4vLly8KacwoXBbm5uTz66CNYrTZBLgwJCWbp0l8KK8lut5OTk8OiRYuukQqdZEiJn1BaWkp1dbUQejExMXh5aYRiIFmMTU1NrFmzhtOnT5OcnMwLL7zAqFGjRKZHVFQUUVFR18ifTiKmXC4nKCiIuXPncvXqVVasWMH27dtFHwwGA8ePH+f8+fOCKNnQ0MjevXu5evUqFRWVANTU1PD666+jVCq56667xOYleRSCg4Pp06cPSqUCtVpNnz593IRca2srer2erKws7HY7//M//0NxcTEqlUp4aKRNz33dOom+Pj4+DB06lAULFlBeXk5dXR0Ohx1fXz8CAwPRan2Ij48XJEetVktcXBzh4eG8/fbbaDQawsLCMBqNXLx4kcDAQCGwqqur2bx5MxcuXGDr1q3Cuvbx8RHrsL071smBcK9V4nTtahg0aBC/+c1vSElJYcWKFfzhD3+gtrb2pjORANFfjUZDc3OTsG4lL42kOEj7SUhICHPmzGHixImsX7+e9evXY7Va6du3L7/73e949NFHWbJkiQgXGo1GrFYrK1b8jcTERB5++CEsFgv//d//zcCBA5k6dSq9e/dm7969JCQkMGvWLFQqFf/7vy9z9qxzT3j88cd45ZVXeOGFF0SIRXpnYmNjRWrmgAEDGD16NKdP5/L++2s6FBodhUKk8cbHx7NkyWISEhJ56623BA9n5MiRPPHEE9hsNl577TVaWlrYuXMnJpOJxYsXc+zYMXHtZ599Jiq+Llu2TFjAAQEBREREUFFRQUVFBdHR0ZhMJlJSUgRZVSaTUVxczF/+8hf0ej0PPvggI0eO5MUXX3Sr7SGFsPLy8jh9+jRBQUE89NBDDB06lJdfftltjgCam5s5cuQIV65c4e677yYjI4OhQ4egUCjZsmUL33zzDVOmTCE2NhY/Pz+am5s5cOAABw4coGvXVBQKORqNl1t9Ewl2u11kITU2NvLXvy6nrKyMjIwM7r77bn72s5+zfPlyjh49ikKhEHwhiVh/7tw5Pv/8c/R6/TVel1OGHD58mMOHD5OamsrDDz+MUqngpZdeoqys3G0eJEX67rvvZuLEiWzd+gVbtmxBo/Fi8uTJZGVlIZPJ2Lx58w0cjh8z/m0hDKVScY39L5114NxYpPjgDw2bzcbZs2cpKSkhPj6exMREKisr6dWrF/7+/oIMdOHCBY4ePcqUKVNISEigoKCArl1TiYyMZMuWLTQ0NNzgTbl48SL79n17bVxKQWCsrKwkIiKSsLAwUWr5ypUrIsvCz89PHArV3NxMZGQkISEh5OfnC+tU2nBVKpVIT7Tb7RQVFYlCRnBjmqhEcJw8eTI9e/ZkwoQJ+PvrMJudbv0vv/ySw4cPU1tbS7du6Tz00EPY7Xa+/vprtzaioqKYNGkSFRUVHDhwQGw8riS0ysoqNytcJnOGcPR6pwUZGxvLxo0b2bVrF48//rhb+5IrUqovAc7v5uWdZs6c2TQ2NhESEsLcuXOJi4vj888/p7S0VGRTZGZmijLP6enpaLVazp07R1NTk7BWa2tref3110lJScZisfKLX/wCtVqNzWbF4XA+k4CAAB566CEUCgWtra1UVVWhUqlYuHAhNpuN6upqdu/ezdtvv83OnTs5ceKEeN4hIcEsWbKExYsXCwEueTcuX76MyWSipqaGd955h9DQUMaOHcvFixd588033RQyq9UqSKjtY6YSv+HChQssW7aMQ4cOiTDUvHnziI+P5+WXXxZEuLi4OJ5//nnBfG9oaODDDzdw4MABmpqauPvuu5HLZdjttmuffUhYWBihoaGEhoai0+lEAS6pKE9qair19fUiZKRUKgX/RXonoqOjmTVrFklJSfz9738XVvytQlJ8AczXPFvSexAZGSmyAKxWKy0tLUIhPX36NKdOnRJKfnl5OTk5OXTv3v1aTQ9nmp9UbfSbb77BYDBw+XIJO3bsIC8vj9jYWKxWK1qtloCAAIYPH05iYiJ/+9vfOHPmLAAXLlxg48aPeO65Z8nKyhIkOmdFTh+6dUujublZrIcVK1awe/dut6wFV0i/t+fASH9vbnam1p4+fRqr1YpSqaS6upri4mL0er24vq2tjQsXLpCff57ExAQiIiIoLS0lJCQErVbLt99+6/a8/P39CQ0NpbS0FJlMhtFopLGxkS5duhAQECAUCOmf5NGTy+UidCcRR9uHtpRKpeDqSAfuuSpHBoOB8+fPk5+fj16vZ+zYsXTr5gzfZmdnExAQwIkTJzAYDFRWVrpxLCwWKyaTGbVa46bAul4jkzmLSG3ZskXwbxobG4mNjaVnzx6kpqZSVVUlPGlSZp60ziTPp1TQzrUImI+PDwEBAVitVry8vDpcw2lpaUyZMoWioiI+/HDjtTG3cvjwYbp160ZmZmaHHqkfM257CENaYI2NznTIkSNH0qVLF2QyBc3NzXz22We35f5KpZLa2lpOnjzJ9OnT6N49nTNnzrdWv9AAACAASURBVJCSkkJraysnTpwQcdScnBxmzJjByJEjOXLkCF27pmEymUQcTLLIJHd9eXkZFovzu9JGJ33u5+eHTqcDnJZcdHQ0/fr1o3v3dBISEvD1dX6ekJCA1Wpxq7ng1IhtqFRKsbFIC11azNIBU+0tO8mV+PjjjxMQEEB1dTVBQYHk5BznwQcfpKzMGftVqVQcPnyY2bNnM23aNLZs2UJlZaXgTowbN45hw4bx7bffCs+IK4G0S5curFy5ErjuupcqIJaXl4vQSZcuXYiIiBCbSnR0FD169GTatGkMHjyYDRs2cOnSJSGcrFYbTU3ODIna2lrWrv0AmUwuyjHn5eVx7NgxBg4cSP/+/WlsbKR37960tLRQUFCA0WgUG5XNZuPo0aNcvnyZF154gcmTJ+Pv74+Pjw8GQwv19Q3Y7XYxr5Kr3W63ExwcjFarFV6KgwcPUlRUJKwWlUpFc3ML+/fvJzs7W2ykMTExjB8/HkAQTIuKili9ehXJycnMnTuXsrIy1q9fL56p9F3pOUv9d7W+IyMjWbJkCbNmzQKcLtLY2Fh0Oj+effZZjEbjtWwVPxISEjh69KhQpEpKSikpKSU0NBSVSolM5iy6JZPJCAkJ4ZFHHmHixIk4HA50Oh1tbW34+Pig0/kRExPD4MGDRTxcJpNx6tQpfve737k9Nyms1NzczP79+0UtiVutHmmxWKirq3P2wdsHlUpFW1sbWq2W/v37c9ddd5GUlERubi4ff/wx+/fvZ8uWLezbtw+dzo/x48ejVqtFhVDpmUrrQXpnpPfIYrG48VOk9RAQEEB6ejre3t5oNBoiIyNxOBwi7CWTyenWrRuhoSGi/Zqaq/zjH9v46KOPOoz3dzQPrhwNCdLP5eXlrFq1Cj8/P6Kjo8nIyEChUJCYmEhCQgKnT592O/ytqqqKU6dymTXLmXVWW1tLly5dUCgUgjcieZ/0ej1hYWE4HA7Gjh1LaGioINxGR0eLGjrtQwSSgtB+72lPNmxfkr6jsUteJbPZTHZ2NtnZ2cjlcpqbmwVXzdWbJ91DqVR0yBuR7mEymSgqKiI3N1cYdm1tbTQ3N+HjoyUyMtJtL5c8tq78K3Agk91YUE3yVDi/d2O5cofDQXJyMlFRURw7dkzU2lEoFKImT1RUFAkJ8ZSWlt4W3t9/Arc9hAHOyTaZTGzduhWt1ochQ4bi5eXFgQMH+Oijj27L/SXBvmfPHqZPn063bun07t2bbt26ceHCBWG52Ww29u7di8lkIi2tK/Hx8cTFxVFaWur2MjkXm8S4t2MyGcU4JQGrUFxfjHK5nMTERJYuXcrIkSO5cuUK5eXlolZBeLjzDAHJOpAWsFyuQCaTC9e264vsOp/tX0y73U5lZSVvv/32tXx8C3/963Kam1u4ePGSuN5isZCbm8v+A/uZPcupRCxbtkycDzFlyhSsVivbtm27VlDpOpxnHTgLMDk1dTnmtjb8fP0ESc1VoVIoFHTvnk7//gPIysqiZ8+eeHt7c/LkSc6dO4tcfp3B7brZOCtgumeD1NXVsWvXLp599llmzpxJYWEhPXr0ICfHKeil77tuLo2NjaxatZLt27eTkpLCjBkzCAwM5MMPPyQ7O1uEYCT3Z0xMDLNmzSIhIYG9e/dSUuJeftr5fOS0tho4ePAgr732mnjeAwYMICMjQygFknKVm3uazz77lPvvf4Bx48Zy6NBBdDodWq1WVC6E68QrZ/tOQueFC4Xs3LmD+voGkQ3h6+d7jeQazNmzZ4XAVqlU5Ofnk5eXd4PwdgpNd9JeW1sbZWVl5OXl0dzcLAoaxcTEkJqaSnV1Nfn5+YK0arVaOXv27A3eBSlEUl1dLfgD/wwD3WQyiWJGUkligIaGBr7++mvi4uIYPXo0W7Zs4eDBg9jtdvT6AMaMGUNaWhoWSxvFxc4MlJaWlk6txI4gCQNJifDx8SEyMpJhw4bRtWtXYWgEBARw+fJlCgsLsdnsKBQyMde+vlrhWfyuEGN7q92VDCo9H5nMWUb/zjvvICYmloaGBrEWnVVUrx88J+2t+fn5NDc3069fP86cySM2NoaLFy9SXu50tdtsNry9vQkODsbhcIgaM01NTVRWVhId7RRuhw8fvuE96mi+vuv5tufQuHoJpN/lchkVFRUcP37cTTmR2nZdQ9d/l+5947ED7tdd/66UMisRYl2zXlyf+3WFp9NhuXlTOoJGo0Gn05GUlMSECRMEN8nb2xuZTEZhYSENDf/esuW3G/+WEIa0gMrLy1m+/F3WrVuPQqGgsbFRpDLeSrz0ZiC1df78eSorK+nduzfNzc0EBgaya9cu6urqhLC7dOkSBQUFdOuWzp133kFoaCjnzp2lvLxM9B9w2YRl2GzX3WiSFiuXK1Ao5EIY3HFHFtOmTWPXrl288sorVFRUYDAYiIqKom/fvuh0Ord4nmTpSG4z6e8dob2Hx2lxlvDee+/R0tJCVFSU26boulEZDAY2friRCXdO4MEHHyQ7O5tLly7xX//1X/To0YMPP/yQAwcO3BAHl8lkVFdX8/bbb4uS0SaTidjYWFJSUggLCxN9USgU9O7dmz/96XVBvMzOzmb37q/Zv38/hYUXsNlshIWFu1nc0r1UKhX+/v40NTVhs9kwGo3s2rWLWbNmMW3aNKqrq1Gr1ezd+60oFyxZFtLcGQwGsrOPk519nKCgIBQKOYsW3U9CQgLr1q0TbmiVSkW3bt0YP348wcHBfPnll/z9738XCiTgtqHabE7ugrTGJPe+1G9JeDkczvLemzZtxmKxUlFRQW1tHdHRMahUKurr64UCqdFoCAkJQa1WX1Nm04iLi6e6ugaj0SjY/8ZWoxijwWCgublZlMY2m81otVqmT5/OV199xdWrV2+wlKR+1dbWsmrVKtasWSNSl3U6HWPHjmXhwoXs37+f5cuX09jYINaB2dwmFFuJk1BYWMhbb72Fw+GguLjYjSNxK7DZbDQ2NtLU1ERQUJCIxzscDtra2kQRo7KyMoxGI7GxsUydOo1BgwayffsOvv561zViobOaa+/evW/63u3nx2p1hjyOHj1KUVGRi7dKxkcffURLSwuNjY0EBwcLwSMVX/s+Ber6Z44b5kqy9FNSUli4cCFhYWF89NFHHDp0iIaGBmJjY0lNTQFuTC2tqKigsLCQjIwMBg4chE7nz5EjR928XJIbvqioSJBnJV5QcnIy4eERoqy+Oz/Dfa6kvboz74KrV6IzJcJuv16EShq7ax2K9gpH+3BFZ89O8jZd/1ySLdcr1rr2U9prr58F9N2pwO3/1l4pNJvNFBYWsmfPHtE3SVGUTsL9qXgf4N/IgZAmuLW11Y157qpx3o571tfXk5eXR1ZWljgD4NSpU7S2topFbjab2bFjB8888wyTJk1Gr9dz9uw5KiurxGJ0vuw2UVCn/cJVKOTXFqRcuOgGDBiITCZj165dbnUoQkNDiY2NdbPWTSYT9fV1YoHd6nxI45BeCol4Jr1Q7dPGcnNzee+991i6dCm//e1vOXPmDD/72Tz27v2WNWvWiNi3q/tTJpMRGxvLq6++KkIpUk2MtLQ08R1pY4iIiKC+vp4NGzawd+9ezpw5g9FoJDk5mR49enDu3Dk3a0x6HrGxsdx55510796ddevWifM1Ll68yNq1a/n973+PRqNh+/bt7Nq1S1jJ34WmpiY2bvwInc6fWbNm8eyzz/LWW29x9uxZhg4dykMPPUS/fv3YuXMny5a91WH4RlIepXl1nR/XCqWum5TFYuHcuXOUlJRgNpvdNuaWlhZBrvX29iY2NhaA2tpahgwZwqxZs6iqqhJhNOk+iYnOg8Kkw7y0Wq0IgTlTgZ0pj5IC0ZE1KWUtuEJy60uHh9XW1tLU1CT6K/0vvbN2u536+nq3apSuceVbgcViEe5nicQseSSklFfXeiLJycn069ePgoJCkfkjk8nw8vJ2I1t+H1wFnnQPSWGrqKigoKDA7VofH59rBb1sLp5HyS1uFe9ae+vZFc5r7R0KRG9vb3r37k1SUhJbtmxh69atQmlrf8aJ61pqbGzk+PHjjBo1koULF/D117vJy8sT18lkznNngoKCKCkpwWAwXOMF2SgvL6empoaUlGQiIyMoKSl1a7891GoVWq0Ws7nthjRl17kCROhHEqAdKbPtlZGOlN727XaG9kLdadQpMLe10dzSLJ5bR+04HA7s37Pvun7Py8sLLy8NJpP52hEHRlFB9uLFi27f02qdHiqFQuFRIP5VuGrp7TW4HxrNzc3k5eUxZcoUkpKSOH36tCAjKhQKkYooFTZKSUnh4sWLZGdnC4EsQSaTi423fX9lMrmbhmu326/l1vuQkpKCn58fBoOB+Ph4Zs+eTXBwMLW1tahU10/Fq6tzWqRRUVGEh4fT2toqXr758+9lzJixfPDBB2zcuFHE0N374C4spDBCR1p6S0sL7733Ht27d2fGjBn07duX3Nxc3njjDfLz8wV5SuobXM9d9/PzE1kNDocdLy9vQYBzelCc987OzubJJ3/F2bPnxEYTERHBL37xC3x8vHn44UfEZi/F5UeNGsXChQvp378/JSUl7N69W/AUgoOD6du3L76+vsjlcnQ6HcHBwVy6dEmMVdqQpP66ukXLyspYvXoVDoeDWbNmERkZydmzZ+nfvz8RERGsXLmS1atXcflyiZhPqb3rSpRcCA1Xq8lsdqaD2u12UY/fVXhI+fuSG1U6KVRyx0rx9ra2NsrLy4mJicFut/Puu+9y9OgRsREGBwfz85//nLi4OP785z/j7+/PpEmTyM3NJTs7m/n3zSezb6abAGu/QbtmWbgqBO3rG8hk1+shSNayq9Ws0Wjo3bs3s2fPRqlUsnr1arcyw7cCh8NZCO3YsWOkp3dj0KBBQuG02ezXCjL5iNx6X19f/P39MRqNGI1GMdfe3t7o9XqMRqOob6BQOAmX0rvefn2YTCaMRiMWi4X6+jpyc0+R2jWV3n16c/78eSG0o6OjGTduLGVl5Xz11VcitGMymzC3mZHOcnEdU3tPoQRnTN3iRqKVyZy8ElcPjKuw0Wg0aH19aWpsJDw8HEAoThaLhfPnz1NQUMjo0aO5cuWKW80Ih8NxTeB5UV9fL+p4SHtBTU0NiYmJBAeHUFJS2k4Bct5bIkaGhobRrVs3ysvLOX36tNs9XBVrmcxZ3TQ9PZ3i4mIRapSutVqtYnyu61Fas+1DDNIBgXb7jR4Y6bkGBATg5+cnxq7T6QgNDeNqzVWKLhWJ/bulpUWMB5zvZZcuXYiMiKS0pPQGJdhgMFBXV4derxckSynrKS8vD6PRyLlz57l8uYQRI0awY8cOkYUSEBBAv3790Gq1HDhwwJOF8a/idikLHd2nubmZnJwc6urqCA4OFtwGV6XFarWSl5cnNu7GxkYRc3R1x6lUKnx8fG44vwAkNrZWZJVIOfZTpkxhyZIl4njxLl26CEsvODgYheK6dVtbW0t29jHmzp3HqlUrqaysYvPmzXzzzTfMnTuP9PR0SkpK2LhxY6fKgyt7vb2bzlUh8PLyIjMzk5iYaEEQ1Ol0xMbGiri4NIeuhKKLFy/ywAMPYLNZsVicm1B0dDSvvPLKNcKZ/doLbqeysoKTJ0/dUB0yJiZGzL80n+np6XzwwQcMHDgQo9HI+vXref/998nLy0MmkzF+/Hiee+45MjP7Ul1dTXV1FaNHj8bPz4+3336br776yu0gHck6dAp3swjhlJSUsnXrVgYPHsyYMWMYM2YMzc3NfPLJJ6xYsUKEQ6Sx31isx4Gfny8DBgxg0aJFOBz2a3yXJIKCgqmvb0Cn0wkipatwlrwIEtsbnOxyhUJBaGgIaWlplJaWCqEg8QJUKrUgxcXExBAfH09ERARjx45Brw9kwIAB2Gw2tm/fTk11TbsMmRvPXZE+l9a19LuUFSKFSKxWm/jc9Z2V5sPX15eBAwdyzz33YLfbxamcHZ0sezMwmUwcO3aM+Ph4xo8fj0qlYseOHcTHO/kPR44c5fTp0yLz4Pz58/Tp04dx48aRl5dH9+7dGTJkMAMHDsDLy5vZs2fR3NyM1WoTnCO9Xk9iYiKhoaEEBgbi4+NDQkICCQnODAaDoZX9+w8QG9uFWTNnkZiQyKlTpwgKCiI1NZXLly9z+PBhlEoler3eeShWeASxMbF4eWlobm4WbnlXI0niVqjVaoKDg4mLiyM4OIS4uDiR3tvc3ExLSwunT59m5MgR3H333VRWVlJRUcGgQYMYPHgw3bp1w2AwMHfuXI4ePSoI0ABlZWXs27ePmJgYcnJy3JSXwMBAhg0bxpAhQ8T9JANJoVCg0+no0aMHQ4YMobCwUHinGhoaOH78OFlZ41m4cAGxsbHCsyh5BqW1IV07bNgwFixYQFJSEkFBQdTVOSu8qtVqfHy88ff3F4TD1NRUUThM8na5QirVrtfriYuLw8fHh7i4OKE4St5HlUqFUqWkZ8+ePPDAA+zYsQOAcePG0aVLF7744gsh0MvLy8nNzWXWrJm88MLznD17jqioKPr37098fDwaLw2FFwrZ/uV2oYhcuXKFnJwc5s2bx/z58ykoKECv13Pu3DlB4D5//jzr16/nscec6b5bt26loaGBlJQUvLy82LVrV4dj/DHjP1bKun18/XZBqqL4wQcfkJiYyBdffCHq0sN1l2t+fj4rV64kMzOTffv2ieONXS3aioorfPbZZ+L0Qdf+19bWsn37dqKjo7ly5QoWi4Vvv/2We+65h9mzZ5OamopWqxX5zllZWaSnp1Nd7XTT2mw26uvreeedv1JTc5X+/fvT0NDAxYsXqampYeXKlYwcOVKcqyBVUHRlO7taK1L1M9cQkVSOePDgwTz00ENMmzYVm80uKib+13/9F++88w6ffvopH374IcePHxcvkLQZtbW1ucXxZDJnJUpXbd5pmdnQ6fwFm17qc1xcHIGBgSJe3rNnD4KCggBnbYUtW7awatUqjh49itFoJDU1lfvuu48FCxag0+k4cuQIjz/+OCaTiaeeeoo5c2aTkZHBJ598wpo1a8jOzhabinRfqUxyv379mDRpEsOHDyc6OpqSkhLKysro1asXc+bMISkpkU2bNnHgwEEKCwupq6tz8zI414IDPz8dd911l8iMkBjadrtd1LKQ4GpR2e12/P39SUtLQ61WU1lZSWtrKzqdjj59MujSpQvbtm2jvLxcKD86nY5x48bx9NNPC08HONsMDQ0VBLHhw4dx9OgR4RnqyPJ1VSRUKqcbWgqXeXt7i0JVXl5eBAcHExkZKcp1t7U5+Q9Go5G2tjbx3HNycjh06BA+Pj6cOHGiwzNcbhY2m40rV67w3nvvcenSJVHZ0GAwsH37dj755BNRZ+TcuXP85S9/YfLkyYwfP55x48ZRU1PD7t172Lr1H0ydOpXAwCByc08LUqhKpWLo0KF069aNK1eu0K1bN1pbDaSldaWgoICQkBBiY2MoKirm3XffpaioiDFjxpCQkEBzczPffvutyOOPiIhg5MiRhIeHc/78ecLCwhgyZChffvmlW9VB15BeYmIid955J/Hx8QQEBFBcXMycOXO44447OHPmDJs2baKqqor9+/fT1NTExIkTmT17Nna7ndLSUjZs2EBgYCCjR4/GbDZz+fJlt/tIRbj27dvH2bNnxbNXq9UkJSWSlJREW1sbqampxMTEcOHCBZEmq1KpyMvLIzo6muTkZJG27HA42Lt3L1arlXnz5pGVlcX+/fvZtesramtr3Qwxi8UiPIb33DODsWPHsGfPHr766ivq6uro0qULEydOpHfv3vj5+VFYWMiECRPo27cvJ06cYMeOHW6l9LVaLYMHD2L0mDEE6gMFwXjhwoWUlZWJAlV2u7O8/doP1lJfX09UVBQLFixAoVBw5coV/v73v3Py5ElxHk9TUxOff/45CoWC/v37Ex3tJJx+8cUXHD58GLlcTmlJqTgjB5xk4W3btuFwOBg3bhxarZbdu3dz9OhRDAaDkCNffPEF+fn5TJ8+neHDh2OxWLhw4QJbtmwhNzdXvDv/LiP6dkNGZ6yR23nT/0MT6GohtndbSZ91Fi6AzpUfqY7DrYy1MyJpR393LSksWbp6vZ6ZM2cSHx9PWFgYs2fP5ssvv+See+5Bp9MxZMgQ5s6dy4gRIwgNDSU/P58XX3yRTz75BJVKxcyZM3nuuedITEykqamJPXv2sGnTJj7//HNCQkLYvXs3ly5dIisriy5dunDHHXeg1+tJT09nzJgxnDx5knvvvRdfX18OH3bWLdi27Utqa2uxWCwEBgbSs2dPEhMTWbVqFS+99BK/+tWveOKJJzhx4gSvvfYamzdvxuFwpkTNmTOHefPmiQ18w4YNojKm05UayoIFC7j//vuJi4ujpqaGTZs28bvf/Y62tjYGDhxIZmYmGRkZZGZmEhERQVtbmzhJc8OGDZSVlTF9+nRmzZoljkJ3HlddKeqI1NXVceFCIZ999jmPPPIwTz31FHl5Z0TKpEwmIyIigkGDBnH69GkWLVpEVVUVvXv3ZvHixdeOIK7HZnOeHtqnTx9kMhmvvvoqb775JgMHDhRFq5566ilOnz7NL3/5S4YPH87jjz9OcXExAwYMoLGxURQWM5lMNDY2YrFYSElJIS3NeUrltGnTGDBgAAsWLODYsWMoFAqCgoJ49NFHGT9+PP/7v/+LyWRi6dKlJCUl0draipeXl1CS/P39RQhAem6u+fBHjhzh+eefF2FAp8vdecCVVITrn4VrjYH274zrepcE8q2mit4MpLY7SpV2vQZuzvBx5RDdjGfGNaR0Y5j0ukvftX2J75SYmMg999zDhQsXxJk4/yxcvZfADfufK6TxSe9CR3tV+4yTzu55u0LakvfPNQx3M1wdaWw/JMH/p4SfdAjjZvBdfXG1Hjv63ncRetrH9m4GnS3Sjv7e/gWQ7jN8+HBmz56N1erMq9+zZzdeXl78/Oc/57e//S2+vr7k5+ezYsUK3nvvPeEJcDgcrF27lmPHjokTLqUyvwcPHgQQBVUkYtS4ceOYOHEiFouF0tJSPv30U+rr62lubua5557n4YcfJisry61YWEtLM1u3buX9998Xx26XlpZy8OBBTp8+jd1ux9fXl7Fjx3L//ffj5+fLli2befPNt4QlJL3UVVVV/PnPf+bYsWMsWrSIQYMGibLbK1euZMiQITgcDoxGo7AC9uzZw7fffis8TAB///vfWbt2LSkpKUyfPp0BAwbQvXt3Ro0aJVzL69atY9OmzWg0XtTUXOX999/n3XffFaGhQYMGXeMt2FAorp+PEBsby6hRo8S9JNLaunXrWL16tajBHxQUxEcffcTBgwfx9fUVWR4ymZNhv2nTphvWgJeXF0OGDOHJJ5+ka9euKBQK9Ho9+/fvF+l7kofK9cRRs9lMfX29qNshebMAUUGyPZHX4bDT1mahuroah8Mh2PrOM1P+NcVBguuadhVe7YVY++u+CzdDumuP7xKWnX2nM3xXPYTO2u7s2vafyWROUvO9995LcnIyJSUlNDU18Y9//EN8/s/utd9FAm2P9umXHX1+MwLY9Z4/NNqfiHyzaM/N8MAd/xEPxP9FfNcC+bEsHqms8LBhw2htbeXYsWNC+KenpzNr1ixqamrYtm0bly5dEhXuXMMRDoezPHFGRh8GDx7C0aNHOXjwIFqtlhkzpmO12vj0009pazMTFxcn0jBbWlooLi4WJ0M64/qhBAUFibRGmQyMRhNlZaVu+dDtrT653Hns97hx42htbWXHju00NDSK69pbqJLlnJqaQnHxZVpaWsjKymLy5MmcPXuW7Oxszpw5Iw7g+S5I5MyIiAji4uLo06cPVquVDRs2UFNTQ8+ePenevTvHjx8X/AyHw3m6Z3x8PGazWZA6pdMpg4KC3HgH9fX1FBcXizhzSEgI48aNE8WrpBLYaWlprFu3joKCArdiN641AOLi4pg2bRqpqamo1WpKSkrYsmULx44dE2MKCAhg8uTJZGRk8P7773PixAnUajU6nU48K1dB5/TISVUIVYKkJ5HejEbjf8Qia69QSPi+d/PH8O7+s3AqED9n+PDhnD17TpR+d+W2eODB7YJHgfgJwtXF6/pzR9e1F8SuAlpyXUtsc9fqiR1tyq5H23Z2T+k+UuEY15zy7xJKHblvO4NryMe1r+0F8K3co6N5dHW5w3WvlOtR19/lBu9MsLWfd1cFy9XKc22jo5BW+/tJfWxPiHR9Bt/nkZPa8OD/BlwzHlzXtecZefDvgEeB+AlCEvQdCXxXK64jN7D0s6tb0tWd7CpkXKu6uX6no3ZdMxFcXdHfVUDMta+34gbuqJ3OBOjNfK/9eCTlp328VlImpOyG9vU3XDf49pkR39WnzuaovUBvP1+ucL3GNV2zo4yBf2WuPfjP48fiMfXgxw+PAuGBBx544IEHHtwyOi947oEHHnjggQceeNAJPAqEBx544IEHHnhwy/AoEB544IEHHnjgwS3Do0B44IEHHnjggQe3DI8C4YEHHnjggQce3DI8CoQHHnjggQceeHDL8CgQHnjggQceeODBLcOjQHjggQceeOCBB7cMjwLhgQce/MfwfYddeeCBB/938R85jdMDDzz4/xvtD8bylF72wIMfHzwKhAceePAfw3/iVE8PPPDgh4HnLAwPPPDAAw888OCW4eFAeOCBB/9fwMO38MCDHxYeBeKfhEwmu+E465v5jlz+/VMuXed6rUwmQ61Wd/r99n/v6Dq5XI5S+f1RK9cjqL+v79I8qFQq8e9mx/hdfZE2e4VCIe6hVCqRyWSoVKrvbf8/Cde5kv7v7JmqVKoOj1N3/V2pVLqN2fV4cg++H5758sCD2wOPAvFPwuFwYLPZAFCpVKjV6k43KUlQyOVyIRA7g/SZ3W5HJpMRGRmJVqvF4XDQ1tZ2Q8xYLpffIFAVCoW4Trq3dI3Var2psUlCy1XgdaZAyOVyQ6MdSwAAIABJREFU7HY7VqsVq9V6U3FtmUyG1WpFLpfj5eV1wxikPigUChwOh2j/+9q8FUhKGTjHptFobhDo/ywk5dLhcCCXy8UYpLmR1kJ7JbS9sHM4HGJeXf8mXetB5/AoDh54cHvhUSD+BcjlchITE3nvvfdYtmwZMTHRHV7ncDjQaDQsXbqUnTt3Mnjw4O9sVxL6I0aM4B//+AebN28mJCTE7Rq1Ws3IkSP5+OOPefHFFwkKCkImk6HRaIRiI93bYrFgs9nQ6XQEBgZ+77iktjdt2sQvfvELNBpNpx4ISbBLAtjb2xuNRoOXlxcajUb8a68guCoZJpPpBuXAdfPv168fu3d/zR//+EeUSiUWi8Xt2sDAQJ5//nm2bdvGqFGjbsoD4nqPyMhI1qxZQ0FBAfPnz/+nMgJc+xsTE8Nrr73GY489RnBw8A0KlXTPl19+mUOHDjFlyhS3NlwzFKSxdNSn2y0cf4zCt/0ceuCBB7cPP+ksDJlMhpeXF21tbW5CFZzC38/PDy8vL+RyOQaDgaampptuV4JGoyEiIoLm5mYUiu+eTr1eT2JiIlqtttNrHA4HCoWC8PBwZs6cSWxsLJ988gm1tbX4+voC0NLSAoCPjw9JSUmo1Sr0ej11dXVYrVaSk5OZPHkygwcP5i9/+QsHDx4kNTWVJ598km7duvHGG2+wbds2MV65XI5Wq8VqtWI0GpHJZPj5+REWFkZgYGCnQkytVtG9ew/GjRtHdHS0W9hBoVCIUAiAzWbDbDZjNLZitTqfhd1u58yZPD7++BOUSiVms1ncQy6XC6UnKyuLAQMGUlFRecNzVKlUpKamMmHCBKKiolAqlTfN7Lfb7Xh7e3Pvvfdy11138e23ezl16iSBgYHC83Hjd2xYLFYMBkOHioFMJiM6Opr58+eTk5PDzp07qaurw9/fn4CAAGw2G1VVVTgcDoKCgggODkan07l9X7qv9L+vry8ZGX0YNmw48fHxNDY2cOLECXJyTnDp0iVMJtNNjfdW8WNLsWy/TiXvj7Qm2q+dHwquz6yj32/2ex548GPDT1aBkMvlpKSkMGnSJHbt2sXJkydRKBTYbDYUCgU9e/bgueeeJzMzE4VCwfLly3nppZduqm3JCpY2AMkiljZyyRMAYLFYUCqVqNVq1Go1bW1twlK32WxoNBpaWlpQqVTCXe3r68uMGTOYMGECmzZtYvny5URHR/PKK69QW1vLU089hc1mw2QyYTIZMRpNqFQqunbtyoQJd/LAAw8SHx9Pfn4+cXFx7N+/n6qqKo4ePUrfvn159dVXSU9PZ+XKlZSUlBAZGckLL7zAiRMn+Nvf/nZtlA4RbvH396eurk7wEADMZjMKhZL4+HjmzZtHamqq2AwlBcJsNqNUKlEqldhsNrGBS58bjUY2bfqcDz/c6La5u3IFwsLCGDx4MNXV1Sxfvhy73e7mYVCr1SQmJhIWFsaRI0fIzc3F29sbhUKBxWIRQkQK/7hu2mq1moyMDJ544gm8vb1JT+/OO+/8FZvNhtVqxdvbW/RF+o7JZGL//v386U9/oqKiQvTD4XDgcDgICQlhypQp2Gw2Dh06RH5+PlqtlkmTJvHII4+wZ88eXnnlFcFtcA2FSSEOSXDL5XISEhJ49tlnmTlzJg6HA5VKiUbjVIpPnjzJG2+8wdatW4VSeTOQFBW73Y5CoUCr1V7zXFlpa7NgNptv8PL8GOBwOIT3zsfHB29vb8LDwwkJCeHChQtcunTptvdBur/khZOUTOm5SnuQ2WwWoanbpdh44MHtxk9WgVAqlWRlZfHss8/S1NTEyZMnAecLHh4ezvPPv8Dw4cN57bXXOHjwIA0NDTfdttVqxcvLC4VCIYSVQqHAz8+P1tZWIiMjmDlzFr6+WqxW52bh7ePNkCFDCAgIYN68eWRmZjotI4cdu81OU1MT27Zto7S0lIkTJ3LvvfdSWFjIihUrqK+vJzg4mICAACZMmEBeXh4ffPDBNcEGXbp04YknnqB79+6kp3ejpKSU5cuX88knn5Cbm4vD4aC2tpZVq1Zx/vx5li5dyqOPPkpERASLFy9Gr9czceJEN8+K1WpDoZAzYsRwp3fCZkWtUmE0mjAYDOzatYtTp06Rk5PDq6++ir+/P3a7jfDwCObPn49Op2P58uVcuFCIVusrNkuHw0FwcDDTpk0jKSmJc+fOd+DZUJOSkkJsbCx9+/Zl0KBBlJaWEhkZyR133IFaraampoYzZ86g0+kYNmwYoaGhREVF8fDDDwsvjs1mw263U1dXxzfffENubq5YA2q1miFDhvCnP/2JgIAACgoKOHPmDCaTCbvdLvgX0vVBQUEMGjQIh8PBmTNnOtz05XI5oaGhDB06hIaGBnbv3o3D4UCn09G1a1f0ej0VFRWYTCZ8fX0FV8VsNru146rgJCcn06NHDw4ePMixY0epr28gIiKCgQMHkpaWxsMPP0x9fT1ff/31TfFbpPalfo0ZM5qRI0dhMBiwWNrw8vKmqOgSX375JaWlZSgUiptu9z8NaVwBAQHccccdZGb2JS4uHq1Wy7JlyygqKrptFr+kmMpkMnr16sUjjzwCwJUrV4iIiECv13Pp0iUcDgehoaHs3r2bdevWeZQHD37U+MkqEIAQBHL5dcGoVCoZOnQogwYN4sCBAyxbtgyDweBGBvw+aDQa5s+fT3JyEv7+ASQmJtLW1saTTz5Jc3Mzra2tzJ07l5CQEGHNgtMVrVKpmDhxIuPGjcNut6NSqbBarZSXl1NaWkpKSgpLlixBq9Xy/vvvYzAY6NatG97e3uzcuYPhw4fx0EMPcenSJaxWC97e3iQnJxMbG8vFixd59dXX2LlzJ+fOnWPEiBEMGjSIb775BoPBQFtbG/v27aOhoYFFixZRVFQkPAOSRSRZ9wqFHIVCSc+evUhISBQufbPZTG1tLUVFReTk5FBUVERRURHgFKCpqalMmjQJmUzGxx9/TE5OjpvVr9FoGDVqFHPmzKGoqIgtW7bcML8+Pj5MmTKFJUuW4OXlhdVqJSIigtdffx1vb2+USiXHjh1j6dKlBAcHk5GRgUKhIDk5meTkZNEXyetTUXGFhoYGoUxpNBr69+/PM888Q3p6OlVVVbS2trJt2zY2b95EQ0OjWAsajYaMjAx+8YtfYDAY2LNnD8uXL6e6urrDfvfr14/k5BQOHDjAyZMnUSqVREVF0aNHDxEiio+PJzQ0VJBHw8PDiYuLQ6VSYbfbsVgs1NfXYzQaKSws5KWXXuL48eOUlZUJrsnw4cN55plnSE5OplevXhw4cOCWvBA6nY5p06Zx7733sn79evbs2UN4eDhz585l9OgxnDhxksuXS36ULvbm5maOHDlCZWUlw4YNo2/fvthsttsylvZhJ4VCQVhYGAEBAaxYsYLS0lJ+9rOfERkZybfffsvly5eZOfMeUlNTUavVty385IEH/w78WxUIV3KT5IqWrIYf+j4SnG736wQ+uVyOXq/Hy8uLuro6bDabiJNKTHnXdtr3TSaT4evrS69evRg2bJhoz263M3jwYGw2G6tXr+Y3v/kN/v7+1zYuO15e3tx555306tWLjRs3cubMGZFpYDKZMBqNVFZWct999zFo0CBaWpqZN28eU6dOxcfHB4VCgUajwWq1ER8fxwMP3M/27Tswm80UFhayZs0avv76ay5cuEBraythYWEsWLCAqKgoGhoayMvLIyAggIqKCk6dOsUzzzwjNi+F4rqL/3r82Mlb+Mc//sGWLVuEu7utrY22tjYKCgpQqVTCypegVCrRarVuaa6SMJbJZISGhjJjxnTCw8N56623OHXqlHDnS25zKUPBZrPx9ddfs2fPHmw2KwqFktDQUO6++26USiU6nY5+/foRHBzMRx99xIED+0W4QqlUERISwh133EFsbKzon4+PD8OGDeOJJ56gd+/erFy5kuPHjzN//nyefPJJYmNjWb9+PSUlJURHRzFmzFjuu28+8fEJrFu3TliyHUGv1zNmzBhkMhk5OTnU1tai1WqJjY0lNTWV6OhoHnjgAebMmYNKpSIuLg69Xs/999/P5MmT0Gp9sVjaqK6uYd26dWzfvp2LFy9y6dIlN1d4W1sb58+f4/TpXFJTU/D29hbZJDcDtVpN3759mTNnDrt372blypUAlJSU0NraytSpU4mJiSEnJ8ctVNfZ+9r+c+l36WcJrvwW13a+iwvQEQ/j+7gZRqOR/Px8KioqCAsLo2fPHp0SazvjnXT27nfEdXD9m5+fH76+vuzcuZOtW7cSERFBXV0dDQ0NXL16lRMnTgAwbNgwtFqt4CF11o/O+iuFoNr352ba8MCDHwr/dg+Eq7C5XWVspc3CbreJF80VKpWqwxoOFovFbXPr6AV0OBw0Njby1ltv8v77a4iPT+Cxxx7DYDDw6quvUldXS2FhIfX1DW5uTb1eT1hYKDExMWzbto0dO3a4tSuTyQgICODEiROkpKTQ2NhIXV0dRqNReAcsFgu1tbWMHDmSvn0zqa9vABxcuHCBTz/9lMuXL7v1MygoCI1GQ2hoKIsXL6Zr165s2LCBb775xo1AabXaBNHMarUKt7XJZOJ03mk2bdp0U5uRQqEgMDCQgIAAFAoFmZmZHDt2TAgXtVpNZmYmw4ePoKysjK1bt6JQKISXwXXzk9I8Dx48yN/+9jfBD4iJiaFHjx6EhobStWtXRowYQXl5OatXr2bfvn3iectkMuLj4+nZs6dQIFQqFT169ODxxx+nV69erFq1kmXLltHU1Ex9fT2LFi1i0aJFZGRkcOjQIVJTUxkxYgSVlZW89NJLbNq0iaqqqg7H7uPjw4ABAxgxYoRbWMLXV0vv3r3w9/fn5MmTlJSUCO5LWFgYOp2OhoZ6ysuvoFIpsdsdNDQ00NTUJEI+rnMv/RwQEEBYWDgWi5Xqmmra2to6fS7thXhgYCD/j70zj4+6uvv9e/bMZLInkz2EJCQkEAhb2HdQFFBEQHBDUdtHW9pin1bq7eP6VFprvVZR9OFWVKgILqDs+04gEBJIIJCFbGRfJstMZp+5fwy/nzMhINiivb3zeb3ySmbyW87vnN853893PdOmTUOpVLJu3TrxGJvNRmVlJXl5edjttmuuIZA6z2t6ts+znXK53Mv1cTPKQm9ko6dAF9ohzOnvup5cLkMqvXHqtGetDuH5eiMPns/c87MnampqOH/+vHhtISVasOJdvnwZm80mjplwLSHoWFBkrkcEhGOFQGOhPUJ80s2mUvvgwz+KH5xAhIeHERUVjUKh4PLly3R0dPzT7yGQA6fTPfHkcneMQlZWFk8++SQjR2ajVCqZMGECn332Gd3d3fz9739nz549zJo1i0mTJrFv3z527drVq4nRZrNRXHwRqVRKZ2cXBoMBk8nEuXPnqKurE7M/VCqVGCTnNr0rRLO4YL4WNHiHw4HBYGDTpk1cunQJq9WKXt+G3e64htDU19eTlpbG+fPnSUlJQafTkZKS4uGzh7S0/iQmJnLu3DlKS0sZPHgwkydPJj09nbfffptt27aiVCqJiooWMyhCQkIYPHgwdruduLg4tFot8XHx4neCNcXpdLsyamtrrxESgYGBaDQa0VWzefNm6uvrkclkBAYGMm7cOBISEmhububFF1+kpaUFs9lMTk4On376KfBtjQ2BOHnWjBB+BwcHM3LkSBISEli/fj1nzpy5RpgJFg1Pja2jo52zZ8+Sk5PDBx98IBKCnTt3YjabefbZZcyaNZNp06bhcjkpLS1j3bp1bNu27brkAdyppHfeeSfh4eF0dXVht9tRKBT07ZvEyJGjqKqq4o03/syRI0dxOBxERUXx/PPPM3HiBNasWcOmTZu9yI9nRoonpFIpWq2WUaNGk5mZSUlJCQX5BbfkvggNDSUrK4uSkhKqq6u9iFtXVxfHjx9DIpGKfS+0SyA0Qv8KfetJDpRKJRqN5pqYop6pxUL9Es/6HjfKZPC8763FZHyrsfdmQRDere9Cb0Sut/HR6/WcOHHimnRcTwLT3t6OwWC4xprQW1ZPz8/CsT1jJ1wulxchuV3WXR988MQPRiAkEglpaWk8/fTTzJgxA7VazbZt2/j9739Pa2vrTccffF+4XC7MZjMlJSXEx8eTmpomBldaLBYaGxtRqVRMmTKFJ598ErVazalTp6irq+v1ep4pY4JZWdDeg4KCWLVqFTKZDLPZjFqtRq1WM3DgQKKionjxxRdZsmSJaG4/e/Ysf/3rX0XBM2nSJCZPniwuyEImg8vloqWlhZaWZj78cA3FxcXccccdLFy4kL/97W90dXVhsViQSiVERkYRGBhIfn4+xcXFfPDBBxgMBn72s5/xwgsvoNFoiI6O5tFHH8XpdJKUlIROp2PUqFFIJBI0Gg06XQRPPfUU8+fPF4W6IFTOnj3LihUrOHXqlNcYK5UKsfBVv379GD58OFu2bBE1KofDQVNTE1KplOzsbDEY1WQy8fe//92rfwW3jVKpxGaziTEN4BZ0x44d5ezZArq7TYwfP54TJ06g1+vFxdPTpC5orSUl7pgCh8NBd3c3gYGBjBkzhsGDBzNjxgyGDRuGXt9OfX09ISEh9O/fn+XLl3PHHXdw7NgxampquHz5MpcvX6atrQ1wWx+ys7OZNGmSmE3jdDrRarWMGzeOtLQ0du/ezYkTJ2hubhbPcdfncNLVZaCjo8Nr0e9NY5ZIJAQGBnLPPffw9NNPi3EmhYWFNz0PNBoNGRkZREVFkZeXJ5IyAXa7nebmlmu07aioKMaPH090dLQ4HoWFhRQUFNDe3k5AQABTpkxh8uTJtLS0UF5eTkxMDGVlZVRVVTF48GCioqI4duwYp0+fxmKxiAIxLS2NMWPGEBoaisFg4OzZs+Tn54sZS1FRUfTt6w6GrK+vx8/PjwkTJuB0OiguLub48RxaWlp67a8bfRa+S0xMZMKECWItldbWFvLzCygpKREViL59+3L//fcTEBBAU1MTeXl5lJeXM2rUKAYOHIhcLqeuro6DBw+K2R49CYenVcHT4iaXy+nXrx+jR48mLCwMqVSCXu9O1T1//rxIJoV3OiYmhuHDh9OnTx9cLhf19fXo9XrS0tLQ6/Xs2LEDvV5/0++EDz58X/xgBCIgIIAFCxbwyCOPEBAQgFQq4YknnqChoYGXX375tpAHIXjS4XCze2ExczgcjB8/jsLCQt566y1sNhtmsxl/f3+OHz9OQICWAwf2X2MdUSgUok9YiOGwWq0YjUbCwsJYsGABI0eOZNOmTchkMiZOnIi/vz/FxcV0dHRw6dIlLly4gFQqwc9PRXR0DP379/cyDbvTEpNISkoiJyeHzs5OMX1SpVKJvnSp9GNqampYsWIFlZWVDB8+HKVSicViweFwUFlZyZEjR/j4409wOBw0NDSwZs0aurq6uOuuu2hqcpu9T58+jclk4sSJHFQqP3Gh8/f3JyYmBr2+jaampquxIjIxtfPy5csYjUav/nGnr/phNpvJzc3F39+fBQsWkJPjXuDb2tp44403eO+995DL5URHR/OXv/yFxMREysrKxOsIbRCEvJAZYTabsdls2Gy2q4Fyudjtdn7zm98wevRo3nzzTT788EORLAhuk+7ubjo7OwkJCSE8PIzIyEgyMgYwYcIEhg4dSmxsLAqFgrKyMj766COOHTtGc3OzmOExduxYpk2bxpw5c7BYLHR0dNDc3ExjYyP79+/n+PHjLFy4kKCgIM6fP49Op8NitRAYGMjgwYMxGo3s2rWLurp6r/7yNJ0LJKenK8cTQUFBPPzww/z+97/HZDLx5ptv8tlnn10zDj3hSaZUKhVxcXH4+/vT2NjoRR6EsfW0CEilUvr378/zzz+PVCrl008/Ra/Xk52dzU9+8hP2H9jP+k/Xi3E8U6ZMwW63s2fvHoICg3jooYcoLy+nrq6OiIgIMjIy0Ov1YibL8OHD+cUvfsHly5c5fPgwqamp/OIXv+DIkSNiptHgwYN58sknGTRokOgG6urqQi6X8/jjSxgxIpvVq1dTXV3t9S4Kv6+nhcvlckaOzOapp34iCl6LxcL48eOZNGkyGzZs4NChQ9hsNjo6Ouju7ubJJ5/k/PnzHD16lK6uLurqarnjjjuIiAjnyJEjNDQ0iCTS0x1yPQuGWq1m4sSJPPzww9TUVHPgwEGkUinTpk1j7NixfPjhh+Tm5orBzrGxsSxcuJC0tDT279+Pn58fCxcuJDw8HKvVSktLC+fOnfMRCB9+EPwgBEIIPExKShIDAgVtffr06bz66qv/VAJxveAtwQRrNptxuRAFkTDRu7q6WL9+PZ9++uk1ZkfAK6BMoVDQp08fFixYwNChQ0lISGDixIm0t7ezfv16Fi9ezO9+9zsee+wx3nnnHT766COva2k0Gn72s5/x0ksvcenSJbq7u8X72Wx2iouLeeWVVzhz5ox4TnBwMK+//jqzZ89GoVAQHx/PXXfdRUlJCX/961tXYyK8+13wvwrpjB999BFfffUV7e3t2O12Pv7442v6z8/Pj7vuuotly5axbdt23n///WtSDXuDUqkkKSkJi8VCfn4+3d3dPProo0ydOpUNGzbgcrloamoS0ygzMjJIT+9PQcFZtm/fLrZZGL/Q0FAWL17MmDFjkMmkWCwWNBp/Bg4cSH19PQ6HgytXrrB3715GjRrFz3/+c8rKyjh8+PDVgFO7GDtit9sZM2YMf/jDHxg0aBDgNqvX1dXx6aefsnv3bi5cOE9zcwtz5szhmWee4auvvuKll15CqVQyePBg+vfvz+jRoxk3bhz9+6cRFhbK4cOHGTJkCIMGDeLgwQMUFZ13Z4+o/GhqauLdd98lJSWFgwcPis/Xc4wE4d6z9oLnsRqNhpkzZ/Lyyy9jNBp57bXX+Pjjj28Y++AJQWDJZDI0Gg1Op5Pa2ivXNYsLc0awLIwYMYLly5ezbds2pFIpNTU16HQ6RmaP5OCBg5SUlNDS0oLVaqWyspIVr71GZmammB20cuVKxo4dy7x58wgKCsLlcjFgwAB+97vfUVBQICoRubm5GI0G7rxzBpWVlezatYt9+/YRERHBqFGjrsYfvUNJSQn+/v7MmDGDxYsXM2PGnXz44RovV0DPNaAnkYiIiOCee+5lwIAB/OpXv+Lo0aMANDU18ctf/pJx48Zx4sQJzGYzer2erVu3EhMTQ0xMDG1tbZjNZlpaWrlw4QJNTU3k5uZitVrF2ATPNvS2nkgkEqKjo5k5cyY6nY4333yTM2fOIJVKMRgMLF26lGHDhnH8+HEcDgdarZaxY8cybNgwPvnkE7Zt24ZWq6W7u5v777+fr776ioMHD4pWLh98uN34wSwQVqsVk8mEQiH3WrQqKytvGOD0fSBkDEgkt16pW6lUitrD9XK0dTodb7zxBvPnz8PPTy0+x+bNm/n88885ffq0aF5+7LHHuPfee9m5c6coPF0uF3FxcTzwwAO0trayadNXorYnBH5FRUUxYcIEYmJixIAprVZLcnLS1TgACX37JvLII49QVVV1tZZFh+j2yMjI4IknnqC0tISVK98VTf9uE3WzV1S6QqEgJSWFRx55hF27dnHq1Cn8/f0JCwsT94aQy+X4+fkxefJk9Hq9uNh6ws/PT0yZKy8v58yZMyxZsoRHH32UM2fOUFpaKj5/WFgYzzzzDCaTmU8++YSamhrxOoKfWyaTMWTIEIYOHYLFYhX3GzGbzdTW1qJQyEXtvm/fvixdupTnn3+eCxcu0NbWhr+/v2iNECxQe/bs4eTJk+Tn53P8+HHOnj3r9QzBwcEEBAQQFhaGRqO5atJuZf/+/ezfv1+0nsTFxZGamkptbS1jxoyhqqqKTz5ZS1xcnOiPtlqtXLp0iStXrhAYGEhwcDB2uw273UFwcLDomgoLCyMiIoLAwEBR+JhMJlpaWkTSGhYWxh133IHT6WTNmjX87W9/uyXSLQhPoQCZ+z1RiWQtMDCQzMxMUlJSrgpbJ1VV1eTn53P69GlWr14tBsQKZndPKw9wdU47aG5uxmjsxul0odfrqampobW1FYvFLGY9BQUFMWHCBBISEnjllVfEZ+nq6iIv7wzZ2SNJT0/n4MGDyGQylEoFzc3N7N27l7KyMtHaVlhYSENDA9nZ2ezYsYMrV2qv2wc9Az8NBgOHDx+murqaS5cuAYgEy3NzOGGtamtro6ioiEGDBjFo0CCam5tJTk5Gp9Nx7NgxLBZLr7EM12uLRCKho6ODffv2kV+QLwZBC3NNCMAU3HnBwcGixVKItbLbbbS0tOByuYiKiqKurs4ri8kHH24nfhACIWQubNq0iWHDhpGVlSVGI7/33rv/Mi+6y+USNW3PiGhPCEWjgoODKSsrp7i4mOHDh3PmzBn+8Ic/iL5YiURCXV0dBw4cYMiQIQwfPpytW7cCbm3yvvvmkJGRwQcffMDJk7leAZUSibuK5ssvvyy2S4BKpbqqfXun9UkkEjHOYt68ecybN4/Y2FgOHDjAN99sobKyEplMRlpaGgsWLCA3N5c9e/bgcDjw9/fnJz/5CY888gjd3d0UFBRgtVpFd4jNZkOhUDBmzBjefvtt8vPzKSkpEWMZhMA/rVZL3759sVgsFBcXU1xczJo1a1i0aBHz5s3jzTffxGq1EhERwZIlSxg3bhzHjh3j888/9/L/S6VS1Go1XV1drFq1io0bN14107tISkrm2WefvRo34fZPd3R0sHHjRrKzs5kyZQovvPACv/71r7FarWg0GgCMRiMXL17kxRdfZNy4cTzwwANMnDiRwMBAsR6Hu26IjLi4eBISEliyZAl33HGHSCgVCgUWiwWLxUxx8UX+53/+h+rqakwmEyUlJVy4cIHY2FjxOQYOHMjKlStJTU0VLQyCxcDhcBAdHY1areaVV15h2bJlIvmTSqUcPnyYV199ldLSUjEWJC4uDoPBwIUL57+3xc7hcNDZ2YlKpSI5OVn8Xi6Xo9VqmT6+FtA/AAAgAElEQVR9OhMnTiQvL49Vq1Zht9s5efIkhYWFDB48mIcffojYWHeAbWpqPy5frhDfP3Bbz4S5Y7fbveJWnE6X6J5yF9dKE102mZmZV+cNJCX1JTo6GrlcRnh4GO3t7Vf7Xy7OByHTQHA/RkZGii64m0VXVxfbt28nNDSUESNGMH78eAIDAwkLCyM5OZkDBw54VTA1m81cvnyZxsZGsrKyyMvLQ6fT0dDQQF1dHQ6H45aVoba2NrZs2YJOp2PixIkMGTKEwMBAYmNjSUxMJDc3V3wmIdV7wIAMgoODrn7vDtgW3JSeypkPPtxu/GAWCLvdzuHDh3n22WcZM2Y0UqmM/fv3k5ub+0M14ZbgWVK45/ft7e28+uqrohn3rbfeEjUFAYKG8+WXXzJy5Ejmz59PQUEBjY2NjB49mkcfXczly5dZs2YN8G0KqSBICwoKePvttykpKREXEH9/f5YtW8aQIUOukhvEQkTTp08nMzOT2bNnExER4TYjr1jB1q1bqa2tFQsQjR07lkcffVQkF4Ib6a677uLw4cNs2LDhah0FORqNhoCAAGQyGYmJfXjppRfRaDRs2LBBLKTk2bYZM2aQmJhIYWEhubm5mM1mtmzZwtixY1m8eDH19fVs27aNadOm8cQTT1BdXc2f/vQn2tvbvcpFCwLCbrdTV1dHYWGhR90QdxltYV8QAXV1daxZs4bk5GRSU1NJSuqLzWYXLRCeZbQjIyNJS0sT63QI9S1cLhd+fn7iM2u1WsLDw0VN0DPFtaWlFbVajd1up6amhsrKSrG6pEQiEcnGxYsXxYh7z2dzOBwolUp0Oh2VlZVUVlaKmqPd7nZhdXd3i8cbDAaOHDlCeXk5ZWXl3/u9NplMVFRUYDAYiImJEeN62traOHr0KP7+/gQGBrJr1y4OHTqE0+lkxIgRPP300yQkJLBjxw42bdpEV1cXc+fOFS1kwtgJwb6Ca+Z68PPzIyJCJ9bOcLm+dTtIpVJOnDjB+fPn6ezswuVy1yXpDULsyPfZRVWoCfL4448jk8k4cuQIu3btQq1Ws2jRomvWAMHlVV5eTnp6OuPGjSM8PJyamhq6urpu6d4CgoKCuOOOO1iwYAEmk4mjR49SWFiITqfjgQceEPtSIpFgNBrJzc1lwIAM7r13DmazOxB11Ch3ls+RI0cAvFw4viwMH24nfjACIcQeHD16tFfz978KPCddb5PP6XRiMpk4deoUUqmUsLAwXC5nrwum2WwmLy+PkydPMnXqVIqLizl69ChLly4lNDSUP/zhD14R9J5+UsHvKgRDCe0S0hilUgkSiVsgZmdnk5GRgcPh4MKFC7z11lvs3buXK1euiDtxulwuNBoNAzMHolKpKCw8h8PhoH///vz2t78FYPXq1ZSWlqJWq8WIcbvdzsCBA1m+fDkDB2bywQcfsGPHDrHNnvEKkyZNwuVysX37dnFBLSoqYvXq1fzmN7/hP/7jP8jIyGDMmDGoVCree+89Dh8+LPZrz34WIJe73V4Oh0PcGM1znIQxOXToEP/1X/9FZWUlly6V0LdvXxwOB0ajUWyP0Whk06ZNHDp0SAxOzczMpKmpiStXaggMDOL+++9n0aKFbN68mY8++hipVEqfPn2oq3NXtLTZbJhMJrq6ukTrhGfZa3AT5tLSUn772996aYRCm0NDQ3nppZeYMmUK77zzDuvXr0er1SKVSrHZvt2PQrheQ0MD//3f/y3uMfJ9NU2bzUZNTQ3V1dViZoPBYBDjg9zWGLm4e2psbCxLly5lwIAB/OxnPyMnJweAuLg40ULVc764LWmOq+9o70JdqGhaV1fH+++/f8N07oAALZ6X8YxnEEhXz6JKN4Pk5GSeeeYZZDIZv//978nPz0cqlZKZmYnVagFcXsRPIpHQ1tbG+fPnGTJkCJMnT6ay0l2J1XNMbhYSiYT09HQWL15MU1MTr732B0pLy5BKpYwcORKHw+417z3T0/39/Zk+fTrgoq6uTgzg9JEGH35I/CilrIWJ8GO7LgShL7RDKpUSERFBTEwM9fX1NDQ0fOc13AsXvWpbQtDgmjVrSE1N5ac//Sn33nsPERE6PvnkE9auXXvNZJdK3RtxZWZm8txzz2EwGJDJpEgkbl9zWlraVcEixeFwFywyGAzs3r2bnTt3cuTIEaqqqq66Se4jMlLHF198SW1tLREREfRJ6EN7ezu5ue44h2eeeYZ+/frx+uuvs2PHDtEl0djYyKlTpwgNDeW5555j5syZbNy4kddff91r11KpVCqm1WVnZ9PU1CQGRIJ759A9e/aQmJjIz3/+c7KysjCZTHz00UesWbMGh8NxTdEhYWw8F2/BTO6Z5tiz7zo6Ovjmm29EN4hAPDo6OkQi5nQ66epy1+4ICQnh7rvv5mc/+xknTpzg5Zdfpq1NT2trKyaTmebmFtFi9Itf/ILCwkK+/PJLCgoKvDIfBBLhWUBKeK86Ojp6ze8PCAgQ22MymbDZbGLtBGEMBOEoBO2mpqaiVCopLy+nra3te8cOtbS0cPToUR577DHGjx/Pli1belzr234OCQkhLS2NvLw8cnJyxH53+/odYryRRqMR3S/uPuGGMUgdHR0UFxczefJkJkyY4NUGtVpNYqI7RbG0tAx3LYdvryW8G0IV2ICAAKqrq296N10B7mycDNauXUtBQYFoSXGnKztwOJxiZVVhl1qr1UpZWRltba2MHj2a6upqcVM14X28lXGJjIykT58+7Ny58+qzIl7L6RQInULcLVcoW79v/z6KCovo7jbS0NBAc3OLz23hww+OH4VAfB9f4fdBT61Q+Nv9vcuLwAiBao888ggLFizg888/Z/Xq1b1usuVJFjyFmue9hEXOZrNRXl5Ofn4+S5YsITY2lpMnT/LNN99co3V5CsS2tjZOnDhBXV2dWOZZKN8smNVlMveCl5ubyx//+EeKiorE+6rVaubOnUtaWhqnT+fR2NhISkoKycnJ1NTU0NLSImYxbN26lfXr14ttEEy1paWlzJ8/n/DwcD777DNWrFjhFeEt3CspKYn58+cTFBTEunXruHDhgldf+fv7o1arAXcMh8ViEYWEsAW55/GeZv7AwADCw8PFd0an04mBrj0hBHsKpmdhV8b29nYx9kAIAExOTuanP/0pCxcupL29ndLSUnHvFPB8R110drpT+B5++GEmT57M119v5osvvuDChWKvFEnh/p590xPCNueeYy6c27PSo6d1IysrixUrVqDWqPnwww/5P6v/z/cWGO3t7Wzfvp2xY8eyZMkSLl26RFlZmZi6C4hZQTabDYPBgE6nIzw8nJaWFvz9/UlLS6Nv3yRUKhVJSUlERkYikXjXOxCeS+hLwb3jcrmuFqw6zowZM5g/fz61tVeorKxELleQkZHBgAEDyM3N9bKEaTT+DBo0iLi4WGpr64iNjRUrah46dMgrdfFbImD3IDze/WWxWDCbzURHRxMcHExnZyfh4eFkZmYSGxuLxWIhPT0dmUzGoUOHxDFtamriwoVi+vVL5cqVK+I87hmkKTyrEDfVG8xmM1arlcjISPz9/cV4jkGDBhETE0NVVRVZWVn4+/tz5MgR9Ho9KpWKhx58CL2+DZfLHctx5coVDh48cHXfm26x333w4XbiR9tM63aa2YQFWvAdOxzXVpqzWKyiVuF5XmBgIH369CEiIkIUBj3R03zuSR4Es7LL5c65Hzx4ELNn38PkyZNFrTExMZElS5agUCg4fvx4j1Q8dxXCiooK1qxZ4+XiEIK9dDqdl6AxGAzi4im0RSaTERYWJvaDsN13cHAwO3bsoK2tDYPBwDvvvIO/v78Yve3eTXIc9913H+PGjcPhcLBy5Uo2btzI5cuXvcoIgztrYe7cuYwePZrz58+zfv160fQeEhLCxIkTuffee5kxYwYdHR0cOnSI1NRUFi1aSFZWFps2bWLfvn2UlJTQ1dV1Vfi7g+n8/Py4//55DB06TIy69/PzIz093SvnX4BnKqS7ymYUYWFhGI1GcXt1f39/xowZw9NPP820adM4efIkr732GkePHsVmsxESEiJWCnUHzlk4duw4tbV13HnnnTz55JP86lfLGDVqNJ999hm7d+/utULl932/BWHn+VmpVBIRESFG4MfGxHpZzm4VTqeT0tJS3njjDZ566imef/55zpzJQyaTExISwoYNGzh27BhWq5WamhrWrl3Lgw8u4vnnn6ewsJDg4GCCg4MxmUxER0eLRbaCgoIICQkhLi6OYcOGkZmZSWJiItXV1QwdOpTs7GySk5MZN24cZWVlFBcX88477/DQQw/xu989T21trei6OXXqFKWlpV5zSy6Xk5CQwMKFi7BYLERFRREaGspXX33F4cOHxfdOqFIqlDKPi4tj0qRJqFQqysrKKCwsFF1M69atY+LEiSxbtozq6mqCg4MJDAykq6uL9PR0ZsyYwe7du0VCAogF6Y4dO0ZpaakYv+Q5ZkJs0pQpUxg6dCgxMTFMmjQJvV4vVpp1uVxcunSJrVu3MnDgQH75y1/S3NxMUFAgfn5qWlpaGDZsGDabjQMHDhAYGEhMTAwXLlwgLy8Pl8tFdHQ04eHhpKSksGTJExiN3Rw8ePAHUdB88OHfcjdOYULv2LGD6upqSkpKgG8FzM6dO6murhZjBIT/tbW18cknH1/dNa/yusVYXC4XkZGRhIQE07dvEsHBQTQ0mMXFXy6XM2BABnPm3MecOXNISEi4WrnxNaxWG4sXL+aBBx5g5MiRHDx4kG3btnHq1Ck6OzvFrAfhR6PREBmpA0CniyQxMRGz2Xx1rwT3sVFRUQwePFjc1EsqldKvXwpJSUmUlZVRU1NDWFgYAwcOxGKxUFRUJFZRNBgM4oI7atQopk6dSlZWFgEBWnJycvjb3z7kwIEDdHV1iUJLCPQLCAjgvvvu4+GHH6arq4t33nmHS5cuERMTQ2ZmJvPnz2fKlCkEBgaSk5PDJ598Ql5eHv369WPu3LnMmDGD//W//hfz58+/mi54ilOnTtPY2IjL5bZWpKSkiKW2TSaTWCpZIBAymYzo6GhSUlKwWCyi5qzVannooQeJiorkzJkzmM1mgoODefjhh3n66aeJiopiw4YNvPXWW1y+fJmMjAycTidxcXEMHToUrVaLyWQSyWBFRQXr1q3j4sWLPPLII8yaNYukpCTkcjmffvopJpPpn/b+9iQfdrudgoICVqxYQWBgIF9//fU1NSNuFVarlZycHCoqKkhPT0cul2MymWhsbKS6uhqj0YhMJsNoNPLFF1+Ql5dHVFSUWFOjoaEBm81GbGwsdrudqqoqdDody5Ytw2g00tTUxJkzZ3j55ZdpbW2lubmZLVu2cOzYMfR6PVarle5ut7C7dOkS/fr1EzeWq6uro6amRnQTCe4owWoh7BwqpHBWVlZ69b/dbqe9vZ3q6mrKy8v5+uuvxWylzs5O0UJQX1/PqlWrOHjw4NXt6J0UFhbS3NyMQqEgNjZWdLV4jouQfitcv7dxEwqflZSU8MEHH4ifBZIsHHvlyhVWrVpFYmIiarUah8NBV1cnDQ2NBAQEEBsbS1tbG6WlpQwdOpSpU6eyd+9ePvvsMzHoWi6Xi6Q4IyND3EbeBx9uN/4tCQS4J7BQclgwIQoTt7q6moqKCq/ocXATj7Ky60e5C8dHRkbyn//5n9x3331XtfYIzp0rxOFwMGXKFBYsWMCMGTOIiYmhoqKCVatW8cknn4j3PH36NA888ACPP/44zzzzDA8++CAnT57g9df/TEVFBQqFQtSCk5KSeP3110lOTkatVhMVFcXx48cpLS3B6XRx8eJFFi1axMcffyySD0G4C5HlTU1NTJw4kUGDBqHX68V6DDqdjv/6r/9iwoQJ6HQ6goODMRqN5OTk8MUXX3DgwAHq6+u9shiEKHvBDXDPPfcQGhrKu+++y7Fjx5g3bx5LliwhKysLjUbDxYsXWblyJZs2baK2tlbs//z8fLZu3crChQuZNm0aw4YNY+HCB9i2bRurVq1Co1EjkUjYuHEjn3/+OS6XewEOCQll2bJl4pjI5XJSUpJ58cUXGDRosJf5PDQ0lNLSUg4cOEBLS4tYlbK6upq3336br776Cr1ez4gRI/j73/8ubrceGBjIpUuXuHjxIt3d3QCiMD106BCXLl3i4MGDDBo0iPLy8psqsvWPwOFwUFtbK9Z+EMorf9+AOcFSJriq6urqvApvCeZ3wRVkNBo5d+4chYWFInkUINQucLlcNDQ0UFhYKLapqqrKq32XLl3yarNUKhVTI4Xyz57t84xRcqfPukvOnz171qt+h6fbEL7dztvzWp4uBU8LT0dHh7h3hfAcwnlCCq3dbkelUpGenk6fPn1oaGggJiaGmpoa2travFyYnu1oaWm5xuXneQ9wkx0h3qpnjE9jYyMlJSViPwjtECqnCu+doLTYbDbq6+tEYnFre4b44MOt49+WQHhCKF7j6XaAWzMzey6oFotF3CPDbDaza9du1q1bR3t7O0qlkgcffBCTycT7778vZjaYzWbRzFlRUcGf/vQnDhzYz8KFC5k5cxZ1dfWcOnWKgIAA6uvrMJlMdHZ24nQ6KSoqwmg0olQqqa+v5+OPP6aqqhqFQsGbb75JWVkZKSkpqFQq0e9rt9vZvXs3+/btw+VyYTJ1U1hYSF1dHRUVFeIiJaQ9nj17ljVr1rBr1y6xFK5nCpkAYVGSSCRUVVWxefNmCgoKWLt2Lc3NzXR3d5OSksKVK1fYuHEj33zzDeXl5dcU5mpubmbHjh0cOXKY9PR0Jk+ewsCBA9m+fTvFxRdJTU0jJyeH3bt3s2fPHtGHHhQURGame3vmtrZWHA4HLS2tnDyZS1eXQdz10G63c+XKFXbv3s2WLVvEzcrWr1/P5s2bMRqNV/cNkaLX6zl48CAhISFXNfFudu/ew+nTp8VnFd4Xl8tFbW0tGzZs4MsvvxSLB30r8CQ4HHaxWFNPU7JgBbPb7ej1eq/aENeLaRDM57eyYdaN4DmugqARNHhPYewZzyCc911CqacWfqv/73mMn58fY8aMYdasWURHRzN9+nTOnz/PuXPnvM7xJAk9iVXPLJHezPvXy7gSvg8KCmLOnDksW7aM8+fP8/nnn1NUVNjreT377Xr38Hw/erax53cOh4OioiI+++wzHnxwER99tIaLFy/R3t5OXFwcMTEx7N27l507d32vjBQffPg+cEeJ/X+Af2Z6k0Ti3mwqKiqKrq4usSaCsMNgRkYGnZ2dlJeXi75bgcAI2ryQeSCVSomPj6exsRGTySTuWimVSsUCOr3dv+dOhjfbbj8/P1FYyOVy4uPj0ekiKCwsErVtz+O/C55BhCqVCrlcTp8+7uDI+vr66xbk8lzMPQWJ57UEi4iQgvntNu03Hzwo9L/nTpKe/xM2hrrRNT2f4XrvkEBwoqKiiI+Pp7KyUqwW6HmO8HwKhYKYmBiioqK4ePEi7e3tt/yO9qbR3uq5N3PPH1oYeT6XWq0mLS2V/v3TRatJdXW1WGCpN83/nwVPq4VcLic2Npb09HTa2tq4eLGYri6DeNz3xa2OuVQqJSoqiqFDh6LT6ZDJZDQ3N1NcXExFRYW4vvScVz74cDvw/w2BuJ0Q6gkIQVyeG2MJVRwF7a3nYuGZwtjbjqSCRiVEsPckFN+lbQjnK5VKcddLz82mrudLv9nF+EYCVciIuBltUPjd0/TqqVkKQa1CTnxPy5IA4RrCOUKtgt7aKqRKCn0vjKHQR0L/eVpeentWoT3ftWgL97oZbf674NmWWxVityJsfywCIfx9vTnR254X/0x813P3dI18X9zK+TdDGnv2jw8+3C74CMT3hKeA7C1q3jMjoGehG88Fozff680sXNdbWD3haSIVfn9b0dElavQ9ScmtLMg9swE8SVBvwt2zbT3v2RsR6EksFAqFWMb4RvAU6te7Z2/nCO3wjKrvOXY3upegrfZGFj3PF4jEzW6Gdb32Cvh3IhCe8BTSnmmgQl/fzmyD3t7H3ojiD0kghPgGzzkG385hz3nugw+3Gz4C8Q/gegv4v4oGcL2F6WZ9wP+sNvwz7vOPCMtbuYenwBJwqy6Tnuj5bvj8098fvRFuz88/Fnzj6sP/j/ARCB988MCNrEM++OCDDz58Cx+B8MEHH3zwwQcfbhnXL1bvgw8++OCDDz74cB34CIQPPvjggw8++HDL8BEIH3zwwQcffPDhluEjED744IMPPvjgwy3DRyB88MEHH3zwwYdbho9A+OCDDz744IMPtwwfgfDBBx988MEHH24ZPgLhgw8++OCDDz7cMnwEwgcffPDBBx98uGX4CIQPPvjggw8++HDL8BEIH3z4J0EikXjt4il8dzt3jPTBBx98+LHgIxA94LmF9L8TbvRM/+jzSiQSlEolMpnspq4tkUhQqVTXCFv4tv89hfE/azyEdt7o/9cbf6FNPX9upn3/KImQSqUoFApxO2uZTCb+7YMPPvjwY0EGvPRjN+JfBZ7bOfcm3H4sSKXSXrcLv9VrKBQK+vVLYcKEiWg0GpqamgCQyWRe15dKpeh0OqZOnUq/fv2oq6vDarVe97qC4B0yZAgPPvggGo2Gy5cvex2nUCjIyMhg8uTJyOVympubcTqd1zyXTCYTt88WPicnJzN58mQkEgl6vf6a7bXVajWjRo1i0KBBdHZ2YjQae22r0E4/Pz/69euHWq2mo6PD65jvs/Om5/i4XC5CQkKYOXMmQUFBXLlypdfrhoSEMGvWLKKioqioqPjO60skEux2u3gt3w6h14dUKhUJ1r/KNts3Iqc++PD/KnwEogc8BcG/AiQSCXK5/Bqh2dt3N4LL5UKtVjN79j38+te/RiKRcPz4cRwOB3K53EsoyeVyMjIyWL58OSNHjmTfvn20t7f3el2pVIpcLiciIoKlS5eyePFiqqqqOH78uNdxWq2W++67j6effhqLxUJh4TksFgsulwulUklqairJycnU19fjdDrFhV+r1bJgwQJefPFFNBoNO3bsuKYf0tPTeemll5gzZw5nzpyhqqrquuOnUCgYOXIkr776CllZWezbtw+bzQaAn58f8fHxpKamEhkZSURERK8/4eHhaLVarFYrNptNHCPh95AhWaxatYr4+HgOHTp0DaFRKpWMHj2av/71r4SGhrB58+Ze2yoIHafTiVKppG/fvsTHxxMeHo7dbsdsNnsd68O3fSb8ALc0T34I/KusLT748I9C/mM34F8JcrmcgQMHMm3aNAoKCjh8+PB1Ne8fCi6XC6fTSVpaGosXL6atrY2PPvqIlpaW73UtqVRKcHAwarXa6/ueAkg49rsWO5fLhUKhYObMmcyePZvTp0+zdu1aAgICmDBhAhcvXqS8vByJRIJWqyU0NBSlUonJZEYqldK/f38eeuhB7r13DleuXOGll14iLy8PqVSKxWJBo9EwYsQI/Pz8yM/PB/DSKlUqFenp6cTHx1NScomCgoIbCgybzUZTUxMKhZK77rqL3bt3s3nzZiQSCRkZGfzmN7/hzjvvRC6Xi8/fsw8sFgunTp3itdde4+jRo7hcLpGEOBwOyssvs3PnDmbNms2cOXNYvXq11/n+/v4MHjwYf39/qqtrbti/QUFBjB8/nvvvv58RI0YQHh6OyWQiLy+PTZs2sX37dlpbW31C6SpcLhcOhwOHw/FjN+Ua+MbIh383/NsRCIVCwdy5c3n33Xc5deoUTz31lGhGFiAIBqlUyuDBg9mwYQNtbW38+te/Ztq0qSxf/js2bNhAcXExtbW1P9KTuAWlQqHA5XLRp08fli5dSmVlJVu2bKG1tRW5XC4KruudL5VKxcVUICOCy0Iw8yqVSvz8/HA4HISEhGCxWPD316BSqXC5XERHR2OxWDCbzUgkYLc7UCgUtLe3I5PJyM7O5sknn8RkMvGXv/wFg8HAwoUL+d//+3+zbt06fv/734sLu1tjhxEjRjB37lzmzp1LXFwcNTU1HDhwgKqqKvGZVCoVWVlZZGdns3//fj777DPxOQRotf6MGjWSkJAQKioq0Wg0BAcHYzAYsNvtWCwWJBIJBoNBPKe6uppPP/2UlStXsmjRIg4fPoxer79qpfGju7ubbdu20djYiN1ux2qzotVqweV+dyZMmEBcXBwajQaJRIKfn58YWyGRSDCZTBw4cJDU1DRiYmLo27evaC3o6OjAz8+P5ORk2tvb2bp163XHz89PxcSJE/mf//kfQkND0ev1dHZ2Eh0dzb333svw4cOJj4/n448/oqmpGYfDccvadkBAACNGjCA+Pp76+joqKirp6upCr9djsVhu6Vr/CpBIJISGhpCVNYTY2BjS0tLQagPYsGEDJ06c+MHdP0FBQWRmZpKQkIDFYqGyspLW1lba2tro7Oz8wdrhgw+3A/92BMJut5OXl4fZbGb8+PFkZWVdQyAEyOVyxo8fT0JCAidPnqS4uJjo6GhOnDhBWVmZl4n4x4DL5cJutyOTybDZbBiNRoxGIw6HXRTIN3MNqVSKVqtFq9WiVqtxOp3I5XK0Wi3BwcE8+eSTLFq0SNS67XY7UqmU+Ph47HY769ato7u7W4yjsNvt5Obm8uc//xmZTMYzzzxDREQEzz33HEePHgVg69at3HnnncycOZP8/Hw2btyITCZDp9PxH//xNL/85a8ICQmhvr6eP/7xj3z66acUFxfjdDrRarXMmTOHuXPnkpaWRp8+CUgkEtauXUtQUBDd3d0UFRXx/vvvExsby9ChQ4mMjGT+/PnMmTNHfGaHw4HBYKCiooJ33nmH3NxcUYDk5OTwy1/+ksLCQqxWK35+fhiNRlpaWjl//jwffPABZ86cQSaTodFoMBgMuFwuIiIicLlc3HXXXYDbNXPPPfewdOlSIiMjMZvNyGQyAgMDMRgMREZG8sADD6BQKLBaraxdu5azZwsYO3YsCoWC8ePHk5SUhFzunopmsxmr1Up1dRXl5Z2rargAACAASURBVJdxOp3k5OSwceNGzp07R0tLC8nJSTy+ZAkLH1jIPffcw8mTJ6mtrbvl96tfv368+uqrBAUFsX//foYPH86YMWM4f76IFStWUFx88V8mhuBm4SaBGrKyshg2bBh9+/alo6PjGjfd7YZSqWTo0KE8+uijhIeHU1JSgkaj4Re/+AUAf/zjH69xx/ngw/9r+LcjEC6Xi9raWr755hueeOIJ7rjjDnbs2OElbAUtzc/Pj3nz5mGz2Th27Bitra18/fXXfP3119hstn+JhVNwLUilUgIDAwkICEAiubnsBJfLddUnP4Q///nPpKen43Q6CQ4O5vHHH2fu3LkYjUYuXbqE0+nEZrOJQYYSiUT8TrBUqFQqnE4ndrsdiURCSkoK8+bNY9q0aRw6dAiJRML8+fMJDAxEKpXS2tpKcHAwS5Ysoba2Voy3CA0N5dSpU3z11Zds2bKVyspK+vfvz7vvvktubi779+8nO3sEs2bNoqGhgbKycuRyOaNHj76qYYYSEBDAl19+SVZWFvHxCej1eqxWK06nE6lUilKppKuri4SEBBwOBwEBAcyePYunnnqK0NAwDAaDaImRSqXs3r2bL7/8EplMhlKpRCqVEhYWxk9/+lPuvvtuXnzxRfbt2yf2gxDs6XK5MJlM1NfXYzabRb97e3s73d3d4hgAdHcbMRgMpKdnEBcXR3BwEK+99hpms1nMSpFIJHR2drJ27Vr+/Oc/k5ubS35+PjU137o6WltbcTpdJPZJJD4+nqCgoFt+p9LS0njllVeQy+U88sgjtLS0oNPpeOyxxxg2bBhBQcH/UkGIt4La2lr+8pe/EBoayrx59zNt2nSvwNzb/TwymYwhQ4bwq1/9ipaWFpYtW0ZtbS1yuZzs7Gyefvpphg8fzqFDh+ju7r6tbfHBh9uJH5xACEJPmMQ9P/8zYLfb2b9/P0uWLGH06NH06dNHzAqQyWQ4HA5kMhkpKSkMHjyYyspKvvnmG/Fcz8XmZtt2uxYmh8OBRCLBbDZjMpkwGo2YzSbxfzdqjyDkOjs7KSgowGAwEBUVRUBAAE1NTRQXF9PZ2cm7775LY2Ojl0sjIyOD//zP/8RsNvPCCy9QWVmJn58fTqcTg8GAUqkkLS2NzMxMMd5h8uTJSKVSkXSYzWZaW1vp27cvCxcupK2tDb1ezxdffMGKFStoaWkRBbJOp2PSpEmEh4dx5kweFouVqqoqXnrpJU6dOoXL5aSry0BSUhJvvPEGFouF2NhYJkyYQHt7Oy+//LJo/bDZbPj5+REbG8tvfvMbdDodLpeL7m4TBoMRqVSK1WojICCAlJQUNBoN586dEzVU9zvg7ls/Pz8SEhIICQkW+1V4RgCj0cjWrVvZsmULQUFBjBkzBolEwrFjx7Db7SQnJ6NUKikvL8dsNtO3byIvvvgScrmMb77Zwr59+1AoFISGhjJ58mSioqL4+uuv2b59O11dnXR0dIr3lcvlInmzWCy0tbURHR2NRuN2N92syyEoKIhp06YRFxfHb3/7W1paWpBKpbS1tbF582aMRiN+fn7XaOye8+F677vn9z2P+b5zpLf7epLnnhlEgvXJHdgqFa11vcX69LyH5308/xbu+13/A4iOjmbWrFkEBASwatUq6urqxDYVFRWxZcsW0tPTUSgUN90vPfu15zn/r5E8H/498IMSCGHxFXz3t0srsNls7N69m/z8M6SmpjFy5EgvAiFE/s+bNw+lUsnhw4doaWlBLpcTEhJMRISOrq4umpqavALkAgICRN+3w+HAbDZTV1dHR0cHCoWCvn37olarKS0txWg0etUzCA0NJTw8nM7OThoaGkQ3gUQiITY2VgxsdDjstLXpaWxs9Irel8tlqFRKUZsFt5k0JiYGpVJJRUWF2E7hvkLa38WLF/nVr36FVqvloYce4rnnnhOFuMl0LRmRy+Wo1WrMZhNOp4vKykqqq6u9+lhYEFevXs3AgQNpaGhAr9djMBgwGAxYrVbMZjNarZZFixYRFhYmntPa2orRaBQzDIRsC5VKRX19gyg0TSYT1dXVlJaWiou1v78/FouF0NBQRo4cyaBBg8jJyWH79u1iWqpnXQqBLLrjEg6wa9cu0S2UkZHBqlWriImJYd++fWJfuAWOUxQ8MpmMoKBgr+fvKXCkUimZmZksX74ci8VCTk4OKpWKefPmkZ2dzcqVKzl9+jTTpk1n9OjRmM0WTp48yXvvvYefnx+hoaGEhYUhkUjYvHkzJ06cuEY4CeRBKpUSHR1Nnz596OzspLa29jvJg2d6cmJiInfeeSeXLl0iNzdXtDY5nU7q6+spKCjAarWiVCq9goivN0c95++NhNo/MsdvdK3eSIXn2Atrzo3acKNn65nNIdxLmL+e6cgSiYTk5GSmTp1KTs5xzpzJ8yIXnZ2dHDt2jIaGBrFvexIjz2sJ9xDmp6AYCPFMPvjwY+IHJRD+/v5kZWWRmZkJQFFREUePHr0tE8FisbBjx06ysoYwevRovvrqKywWi6iJREVFMWXKFKxWK19//Y0Y8T9mzFh+/vOfc+DgAVa+sxKTyYRMJmP48OEsXLiQIUOG4HDYUas1dHZ28uGHH7Jx40a0Wi1Lly4lOzub3/72txw8eFAUAAqFgunTp/PYY4+xZcsWVq9eLQYsTps2jQULFhAZqbvacrcJe8uWLXzxxRc0Nze7v5VIkUq/LR4k1EdYunQpffr0YeXKlezfv19MjextwfVchJRKpUg4oqOjSUtL8/g/pKdnEBoaBsDEiROoq6sXCUBFRQWVlZW0tbWxf/9+6uvrRYuDZ6Ejf39/5HI5+/fvp7q6msjISIYMGcKUKZNpamqiq6sLm81GSEgI48aNQy6XU1FRgdlsxul0imMlaGrCQu5yufD396dPnz60trZy9OhRcZyE5xLIk+AaEHzgwjMHBQWxcOFCBgwYwIcffsj27duJioryuseN0FNYJSYm8vjjj5OQkMD777+PwWBAoVBw4cIFZsyYwbPPPsu+ffuYMGECWq0Wi8WCVqsVLQtCPEp3dzdGo7HX4FjBHZKamsrcuXOJiopi8+ZNXL5c/l3TQWyzSqWib9++REZGsnv3btFaJPS1wWC4avFxebmvpFIpQUFBorvEaDTS3t4uki6FQoFOpyMiIoLu7m5aWloICAjAYDBgNpvx9/fH5XLR3t7udV273Y6fnx/h4eEiYWltbRWvK4ydXC5HpVKJbqLg4GCcTifd3d10d3eL5OpW01mFZwsICCAoKAipVIrBYKCjowOr1Sq+z2q1mrCwUBwOB1arDZPJhNVqJSgoEJVKBbithG4XVTpRUVFUVlbR1WW45p4NDQ2i1SchIYHo6GgUCgVFRUW0t7eLadF9+vTBbDZz/vx5L2sHIAYLq1Qqurq6aGtru2FAtQ8+3A78YARCKpUyevRoli9fzvDhw1EqlRQVFfHrX/+aw4cPe/mU/1EIgX779+/nySefZMiQISQlJVFcXCwuwsOGDSM5OZnTp09x7NgxwO2+CAkJISMjg7KyMhQKBUajgYyMDF555WUyMgawfv16Tp06RWJiIgMGDCAkJES8Z3x8PP379ycpKUkkEEJRm/DwcAYOHEheXh4KhQKLxUJYWBiLFz+K3e5g3779XL58GZ1Ox3333cezzz6L3W5j/frPMJvNVzUOh5d2olarSUhIYODAgeh0uu8sfiUIK6FNCQkJ6HQ6UlNTWbp0qde1NRoNiYmJ2Gw2nntuuWgS7u7u5m9/+xvvv/++mIb57LPPkpCQgMFgEBdc4TfAwYMH2blzJ0VFRQwbNoyZM2fy4osv4nA4sNvtqNVqZDIZR44c4dChQ9jtdpRKhegqEDQ1YfGUy+Xo9Xq++uorgoKCSE1N5YknnuDzzz+nqakJmUyG3W4XzzWbzaJFSKFQoNFomD17No888gh5eXm89957omASSJKnlulwOOjq6rpuv4aEhLBw4UKmTJnCrl27eO+99+ju7kYikbBt2za0Wi0//elPuffee6mvr2Pr1q0MGjSIlJQUAgIC6O7uJioqiri4OBoa6r0yRjyhUqkYNmwYzzzzDOPGjSMnJ4e///3TmwqgFJ5HpVIRHx+PXC6nsrLSq9aEcJyn1cHhcBAWFsaUKVPIyMjAaDRitVpRq9U0Njayd+9erly5QkBAAHfeeScLFiygqqqKK1dqCA+PoKuri7KyUvr06UNQUDC5ubns2rWLjo4OHA4HOp2O2bNnk5iYSEdHB0qlkqamJvbu3UtVVRX+/v5kZ2czevRoQkJCKCsrRa1WExMTg8sF9fX1HDhwgOLi4ltOuZZIJERHRzNp0iRiY2OxWMxIpTK0Wi2lpaXs3bsXvV4vWgkfe2wxqalpnDt3js2bN1NZWUl2djbTpk1DKpWxZ88eTp8+TWpqKt3d3ddY7Tz71Ol0Eh4ezpQpU5g9ezZ6vZ4//emPtLe3ExgYyPTp05kzZw6nT5/m/Pnz4tioVCr69+/PmDFjCAgIQCaToVAoOHu2gH379vVKWHzw4XbhthGInibekJAQ7r77LkaOHIm/vz8AWVlZLF68mMOHD/9T87YFIlJSUkJ+fj4jRowgOzub4uJiwG36nzRpEkqlku3bt3st2GazWWTybpOvjLi4eEaMyGbbtm28+uqrdHZ2olKpiIyMFIWkVCoVNXC12s+rHwRtzmq1itYBl8uFXq/n7bffobS0lCtXrmCxWAgICKCjo4Ply5czduw4du3aRV1d/VUzpvPqvdwaY2lpKStWrCA0NJT8/Pxezdg9TaIajQa1Ws3EiRPp378/ISEh/PWvf+WLL77g0UcfBWDjxo3U1NRcJQFuy4dSqWTu3LlkZGSIKYtCNkdYWBjl5eWsXbtW1KAUCgWJiYk88cQTREdHX3VP1LNp0ybOni3A4XBeNZs7cDrdgYiFhYVcvHiRsLAwnE4XGo2GoUOH4nK5aG5uJiBAS2JiIv7+GpqamsnPz0ehUDBp0iQeeughVCoV77zzjkgGBGHY3t4uuqOUSiVTpkzh6af/A7VazfHjx8VUT8GML4ynQLgcDgd6vd6rT8EtCLRaLdOmTWPOnDkUFRWxatUq9Hq9SIhtNhtlZWXs3LkTtdqP7dt30NnZyfLly0lPTycuLo7KykpiY2OJiIjg1KlT1NfXXzN2CoWCrKwsXnjhBTIzM9m1axfvvvsuhYWForXlZqBUKgkLC0Mul4nvS08fvicCAwOZNWsWDz/8MF988QVHjhzB4XAwdOhQpk6dir+/Px9//DEGg4GmpiZSUlKwWCx88803DB06lLlz53Ls2DHy8vIYOTKGu+++m6KiIvR6PXFxcTz22GNERUWxdesWamtrSUnpx/Tp04mKiuKTTz6hpaUFk6mb5OQk7r57Jvv27WXnzp2cO1dIaGgoo0aNYvHixaxZs4Zz584BeFUzvREiIyN59NFHGTt2LOvWreP06dOo1WqmTp3KrFmzMJlM7NixA5fLRWNjI4WFhYwbN57g4GDq6+sxmUw0N7fgcDipr2/gwoULojvKYDBQW1t73Tgql8tFZ2cnxcXFTJgwgeDgYKRS91piNBq5cuUKdrsdrVYrZmEplUoyMzO577776OzsZM+ePdjtdsaMGcM999yLv79WjGHxwYcfAreNQAgTRliIFQo5QUHBHsLHITL76xXs+b5wOBxIpVLa29vZsmULkydPZtSokXz99dd0dnaSlNSXESNG0NzczO7de7wWHE+TqWD2djqdKBQKIiMjCQwMpLOzE4vFQn19vVecw/UgmNYFf6zwIywCAnlSKBRXCxGVo9fr0el0qNUar+sLfwvmZqHiY0+iIEAikRAXF8fEiRMZNmwYU6ZMJiAggKT/y96Zx0dVnf//PftM9n2DJGwhGwkJW0gggqyyuOAColIoKtraim2t1qW26re11tpaW1ustuIGiIqgskiAsG8hQEhCQgJkJ8tkn8ySWX9/DPcwCUF/WrGtzuf14qWZuXPvueeee57nPM/n+Zxhw1CpVHz22Wfs3LmT/Px84uPjmTRpEidOnBCkUml1GhMTw5IlS2hqauLYsWN9zm+1Wjl9+jSbNm2ira1N3Mvo0aO57bbbsFqtqFQq5syZwy233MKHH37IBx98IFaMUoXJkCFDiImJwe6wo/PRMWjQIJ566inBqdBqtRd5KsG0tOiRyWQ0NjayYcMGUlNT+cEP7qetrY033nhDRJo889e+vr7MmTOHn/zkJ2RmjsFoNDJr1izS0tL4wx/+IDQ/1Gq1+K2vr0+fVbk0nqU0jTRezpw5w8GDB8nKysJms1FUVIROp2PyZHdK7MiRo4JQFxwczJkzZ8jIyCAlJYXm5mYSExPR6XScO3dOREs834fQ0FBuu+02cnJy+Pjjj/nTn/5EWVnZl3IepOflHouXXn1J+VNK9/T29gqlU0mds7e3l127dlFZWSmcrezsbFJTUwkJCaa2tk5wW4qLi9m1a5coky4rK2Pr1q2EhoYyceJENBpNH8frscceIy8vD5lMRlNTM5GRkcycOZPy8nI++eQTysvPUFZWzvTpMzh6tID33lsvUo69vb3cc889ZGdnc/r06S+1EPH19WXQoEG0t7ezf/9+GhoaUKlUBAcHM2HCBJKSktixYwcWi4WOjg727t1HYmIS0dHRog+kaqMdO3ZQUVFBQkKCKIX2TMN4zm/Sf3t7e6mvr6empobExETxLK1WK42NjcLpleaY8PBwZs2aRWxsLH/4wx8oKipCJpPR2dlJfHw8c+fO5ciRI5w9e/YbqTbxwotvJIWhVCrp7jZQUlKCyWS6mGt0e9V79+4VUr1fV+mklNOVyWQUFRXR2NhIRkYmw4cPp7i4mLFjxxEfH8/evXsoKyvrsxeEZKClScDpdArjMHXqVN5++202bNhAfn4+FRUVwln5PJ17yeBIcsdSft/pdBIYGEhKSgq5ubmkpaURFhZKdHQMI0cmXKyMuJSTlyIr0oTiSagE+uyVIEGtVjN27FieeuopoqOjxbU3btzI888/T319PUajER8fH/Lz85k9ezbTpk1j//79Ik+r0+lYuHAhCQkJ/Otf/xKKkNK9qdVuVcekpCQxgcvlcnx8fAgPD6eqqgq5XE5UVBSpqakiTQHufSymTbuWRYtuJyMjg3fffZd169bRa+nFaOzhwIEDVFdXo1QqBa9i5syZwjEwm80cOHCAt99+m1/84hc88MADlJeXC5lurVYrfpednc0DDzxAenqaEJo6deoUU6ZM4cknn2Tt2rXodDox+fr4+BAZGYVCoWDevHl0dnbS3Nws7lupVGIwGPjoo4/Yt28fubm5/OY3v+HMmTP84he/oL6hngU330xycgrbtn2GXu8WezKZTJSVleHn58ecOXM4ffo0aWlpdHR0UFFRMWD1Q3h4OFOnTkWv1/Pee+9RXFz8ld4Np9MpeDKegmpRUVHcdNNNXHvttQQFBVFTU8OGDR+yf/8B3njjDd588030ev1FXY540tLSGDFiBNXV1aKNkuiZJHsulfxKnBZwG0273U54eDiTJ0+moaGBHTt2iHHb02OgtrYGmUxGTEyM+FzS9Dh//rzgJphMJioqKmhtbb0oGOVHZ2eniCR90aKkoaGBF154AYfDgdFoZMyYMQwdOoScnByGDx9OeXl5H8e9vb2diooKRo8eTWZmJgUFBYwYMQKz2Ux9fb14LyVnTEpvekYd+88RUtm05yJGetfd8+Elonl0dDSjRo2itLSUoqIicWxHRwc1NTWkp6cTEREhlF+9DoQXVxtX3YHw9LY3bNhAQkICCxYsQKfT8eGHHwqZXynv/HVAch6sVivnz5+noKCAWbNmkZqayrlz58jMzESn05GXt6MPoQsQkQdATER1dbU89NBKVq58iLlz5/LnP/+ZxsZG/vWvf/HGG29QVVWF3W7/AiZ3310c5XI5w4YN47nnnmP+/PnY7Tbq6xuoqanh9OlSdDrdRV0GhThH/30X+qeJBrqu1P533nmHpqYmhgwZwpIld9He3kZlZaUw+JI889GjR8nKyiIpKYmjR49it9sZMiSeZcuW0dnZyapVq7BYLKIN0mrdYrHQ3t6O1WoVq3OJ4+CePJ2CjOZyudBqteTk5LBy5Upmz56Ny+XixIkT1NfXY7PZLla4NPLnP/+Zffv2Ae6oRmJiIkOGDOmTbujp6WHHjh3k5ORw88038+ijj3LXXXf1EYGSyWSMGTOGkSNHsmXLVkJCQoiMjGTdunWcOnWKp59+WnAnJMcxLCyMESNGEBsby7Jly2hra2P16tU4HA7MZrM4rqurC6PRSHt7O+Hh4Tz22GP8/e9/Z/PmzcyYPoNz586xe/duUfNvNpsv3msdkydPoq2tlfT0dE6dOkVFRcVlz1DKc6vVanp6egR34YuUSPvD0xA7HA5BTrXb7TQ0NLBmzRoUCgWLFy/myJEj7NqVj9lsxmazMW3aNL73ve/h6+tLWVkZBoNBEBeVStVlETDpmXuSfqX7AHdqJCUlhdjYWP7yl7/0qUAIDQ0lPDxcOOeX+DR9eUDSOwoIbZDOzs4BV/sDQSI9zplzHTfccCNKpZKKigqcThe9vX1F5ORyOUajkZKSEq699loyMzOpqqrC19eX+vp6DAbDxfJgKz09Pfj6+hIdHX2ZEzNQKsPpdKLRuNVgpcWI1FdO56VIblhYGGlpacTGxoqqJpVKhUqlYuTIBORyhXDivPDim8A34kBI4d/q6mp+8IMf8IMf/OCy466Gdr3L5cJgMJCXl8e0adPIysoSxKeysjIKCgpQqVTCMKvV6j6G+dIkBKdPl/GDH/yAYcOGccstN3PnnXfxs5/9DJ1Ox3PPPSfK7Gw2G6WlpwHEhKJQKDAaTYIDIUUefv7znzN//nzWrFnDww//jK6ubuRyOePHj+PFF/+Ir6+vaItcfimN0X9SksoSPWWrPbkXhYXHKSw8jk6nY9GiRTidLiQxKs9zXLhwgU8++YSnnnqKO+64Q0RYHnvscQYPHnxRnbBMHC+pKxoMBnbt2smvf/204JPI5XJSUlJYs2YNarUKtVqDRqNBpVKxePFi7r//flJSUkS4/69//SuffvopbW1thISEiBWk57iQVrOX7t8tx63RaDh37hx/+tOf8PHxoaioCKvVit1ux2g0ijGYn59PQ0MDZ86c4amnfom/vz8ul4s333yTyspKUdobGRmJr68vI0eOFEx4z3EhTfCSoyoZOYvFwmuvvYZMJuO5554jNTWV5uZm1q9fT2lpqeDLyGQy6uvr2bTpY5588kkefHAlLS0tbNmy5YrEu+rqah544AFkMhm1tTWX9c3/L3p6eigpKQEgNzeXTz/9VIwrm82GXq+nqamJ5uZmrFYrYWFh3H333dx9992sW7eOF154ge7ubhISEggPDxeiWgOtrj3HqmdKU4p6WK1WTp48yYsvvig4QjabTTikFotFkGzd/ebm40hpI2mlL6VFJYPq2ZaBVvzS/UZHR/Ozn/2M6667jj/+8Y+sWbMGs9nM2LFjCQ8Pw2rtFe2VHLWmpibOnDlDSkoKOTk5yOVyzpw5I5zU5uZmCgoKmD9/PnFxcUK7wxP+/v6EhobS1NQk2mI0mkRkyHPsS30llXK2t7ezZ88eXn/9dRQKOS4Xot8MBgO9vb2o1WoR/fHCi6uJb50SpQRpwrLb7Rw/fpz6+nqys7NFrn3NmjWUl5f3I0zK+7y0kkPhqVdx/vx5Xnzxjxw+fITXXnuNadOm8cEH71NcXCIEY0JCQoBLkRCtVkt0dDT+/v7iXBKjvrW1lYceekiIM7kVEMMICwujtrZWyFbb7e5zmc1mzGazmNSk+5Ty2J9HiHPrGQSKVWB/9Pb2cvjwIY4dO8a8efOoq6vDz8+XGTNm8Nlnn7Fq1ao+x0tha19fX8aOHceSJUvo6uoSE/ywYcMICwujqqpKrNo1Gg1ZWVno9Xo2bdrE2rVr2b59O93d3fj7++Pn5yfSHyqVSkSHPCdSyXFxuS6FyR0OBydPnuTee++ltbVVpC10Ou3FydnCuXPnOH36NIGBgcJZ8/Fxl+Nu27YNHx8fGhoaRDmhVOZ7/PhxEhMTRRj75Zdf5sMPP8RqtTJkSDy1tXXCAJpMJtatW8fEiROZP38+HR3tNDU19hlDMpkMg8HAoUOHuHDhAiEhIRQXF/PZZ58N+Fyk60qRGAlfpfxZisrV1dUJMSPJgZauJRlNh8NBQkICixYtYsuWLTz55JPAJQfK6XRgs1n76Bn0h2QQpdSZ9E6YTCaam5vx9fWlqalJ8AUkyOVyNBqNMJz9CZ9S9Efa78Rz7w6pjz0dNs/2SBos6enp3HjjjaxevVpEQjUaDUFBQfj4+KJQKMV7JZFp29vbKS4u5tprpzJ//jz27dsveD/gfofq6uro6ekhNnawqAiTHAWVSsXYsWNJT09n9erV4l2V+tQz1eHJswG3hkRbWxsOh4MLFy70iT5J75xCofiPbwDoxXcH31oHQoLEoC4sLOTmm28WoVGJHOUJabMnq9UqVjgqlYq0tDR6ey3U1taJyUCKbnR3d2MymXE4HEKu+aabbmL79u0YjUax8+I111yDSqUSE7Q0Afv4+DB69GihohgbG8uMGTMIDg6mouIMdvul+nxJIdDX1xe5XE54eDgTJkwgJCSEPXv2UFtb+7nhS8npcDslfY2PNFk1NFxg7dq1pKam8stf/hKbzUpRkTvE393d3SdU7XK5xCpxzJgxxMfH43K5xLk8UxnuSdg9oW/dupXnn3+eAwcOiEqOjIwMnnnmGcrKynjjjTew2S6VbkqrOCm11J9vIk26drudtrY24XgEBAQQFBRMV1c3VqtNiJe5yZG+OJ3OPpOtxWKhsLCQwMBA7rjjDiZMmMDJkycpLCwkISFBRDUk8uyDKx9k8KDBPP3004KT4O/vz5QpU8jIyMBkMjFo0GAefHAlBkMPe/fuBRBVKkFBQaIvwkLedwAAIABJREFUJZLoQHA4HERHRzNnzhxkMhm7du2iqqrq84b956K1tZXdu3ezbNkyZsyYztat28TKXOo7nU6Hv78/UVFRaDSay/aTcTsF7iql4OBgLBaLcLg94RmBkNJDAHq9niNHjnD33XdzzTW5bN+eJwxlREQEEyZMoKWlhZMnT4pqIMmoSn0WEBBARkYG4eHhHDx4kNbWVpFWka7ncNgvc97AvQnbkCHu8drQ0NBnTEuRRJfLRVhYGDabTSwObDYbtbW1tLToL0aYPqSpqanPvVZXV7N//37S00eTlZXFnj17xPeDBg1i5MiRVFZW0tPTQ0BAAC6XuzxTirQolUoiIiKIj48XhFZwRz8qKipIT08nOTmZU6dOiXuSVHULCgqoqanps/Dxwourhe+EA9HV1cXBgweZO3cuMTExbN++ndOnSy871mazUV5eztmzZxk5ciS33XYbhw8f5uabb2bevHls27aNY8eOERERwezZs9FoNHz88cfU19djtVrZvHkzs2bN4vrr5+NwONi8eTPh4WHceONNxMbGCkMqyUHn5+czalQav/3tb3n99deRy+Xk5OSQnp52kSh2KWXR1tbGmTNnGDt2rCiN02g0/PSnPyUzM5MnnniC1atX91FTHKgvpInf5eoriSuROnU6HVarlaamJpKTk3E4HJSVlQlVP88UiSdzf+vWrfz973+ns9Nd7qhUuvkKjz76qJi0HQ63rHZ+fj6HDh3qM8FptVpGjBhBT0/PxWoLt15DSkqKmNC1Wg2RkVEEBQWJSgVARIuk+5M+i4mJISAg4CIP45IRkfLGLpdLlHBKk7Sfnx9Tp07hzjvvBOCjjz4ShtHTqdRoNIQEh4iSSJlMRlBQEDfccAO/+tWvcDqd/P73vycxMZHZs2dz77330t3dxalTxWg0GmbPns1PfvITQkJCqK2tZcKECfzyl7/kxRdfpLS0VOxLIlXwTJ8+nb/+9a90dnbi4+PDX/7yF3E/Xzbn3d7ezkcffURycjIrVtyHwdBDZWUl0dHRxMXFodfraWxsxGAwUFVVRW1tLZmZmaSmpgqeR1ZWFsOGDcNq7SU7O1tUMEiiTD4+PgQGBgmBpqCgIEJDQwkNDe0TccnMzOTee1fguqjpEBAQQFJSElqtllOnTmE2m9HpdCiVKgICAhgzZozgYKSkpDB9+jSqqs6zZ88eMUaVSiU+Pj4X944JwM/Pj6ioKKKjozGZTPT09GA2Wzh//jzt7e1kZWWxe/dujEYjgwYNYuLEicTGxmIymZg2bRpVVVVcuHBBpBaampooKChAJpNRVVV1mU5JdXU1b731Fg8++CCLFi1CJpOh17cQGhrK6NFux/LIkSNCtKqqqoqsrCwmTZqEy+UueZ80aRIREW4djaFDh1JaWkpLSwv5+fkMHTqU73//+3zyySd0dXURHh5OcnIyDQ0N6PX6LySPeuHF1wUF8Ov/dCOuNqSVd0hICGazmU2bNrF3774Bc8hSPnH48OGMHTuWuro6CgoKiI+PJz09jdzca0hJSaG9vZ2///3vvPfee3R1deFyueju7uL06dOEhIQycuRIcnNziYyMpKioiH379uFyuTh27JjI0Z85U4HFYiYyMpLs7GwSEtyVFx9//DE9PT1cuHCBQ4cOiY2ZmpqaGDFiBKmpqQQGBlJSUoJMJqOjo4OdO3dSVVX1uWJcarWajIwMUaqZn58vVuSBgYGMGjWKpUuXsnLlSmJjYzl27BhGo5EJEyaQlpZ2kUjWI3amVKlUJCcnc80111BaWsqaNWuoqamlubmZlpYWlEolN998M52dnezatYu4uDjBPyksLBQhZ61WS3p6OvPmzePIkSPk5eWRnZ3N1KlTGTduHNdffz2LFi3i1ltvY9q0aQwZMoSamho++eQTDAYDarVa5H2lsK6vry9z585lwoQJlJSUsGPHTpGn9vX15brrriMmJoatW7dy9uxZwC0IJRn2YcOG8e6777J27VqGDRvGzJkzOXLkCHv37kUmkxEXF8fs2bOx2+1s2/YZarWapUuX8sgjj6BQKHjppZd45ZVXqKmpEWJfjY2NNDQ0MHXqVB555BFiY2NZs2YNb775JsOHDycnJ4fQ0FAuXLggVtNSeDs6OpoJEybQ3NzM7t27v3IVhgSTycS5c+fw8/Nj4sSJDB48mJEjR4r3Q9IV6enpQa/XM2LEcEaOHMngwYNJTU1FLpdTW1tLQEAgDoeD2tpa4uPjiYmJoampSWhCDB48mJaWFux2O0lJiQQGBtDa2kpNTQ0XLlyguLiY0NBQcnNzSU5OJiFhBBZLL9u3bxfy81qtloyMDLKysjh79izh4eGMHTuWpKQkamvrePvtdzh37pyIoMTHx3HttdeSnp7OsGHDRJVDeHg4CoUCvV4vSjM7OjoYNmwYw4cPZ/jw4SQmJmI2m8VGcAaDgcOHD/fRAdHpdERFRWEymThw4MBlkTmn04ler6eqqoqoqCiys7PJyMhgxIgRXLhwgc2bN9Pe3i70Hdrb29FqtUycOJGkpCQiIyNpaWmhubkFudy9R0llZSUWi4WGhgbq6+tJTEwUUu7Dhg0TWiPeLcK9+CbxrY9ASKuC8vJynn76aXx9fenq6hqQYORyuWhvb+fdd99l+/btQm2vu7ub8vJygoKCRI7RYDCg1+v75I6dThcnTpzk5z//+UUBGDkGQw/d3d0oFAo++ugjDAaDUCmsrq7md797nuDgYPz9/bFarej1ekwmE7t27cJut9Pa2gq4J6W8vDxKSkrEfhBNTU2cOnUKhUJBR0eHYK33v/+QkBCys7MZNGgQ117r1oGQiIExMTGkpqYwdeq1zJo1S2w89tZbb7F161YiIyNZvHgx119/Pbm5uRw6dJCtW7dy7FghlZWVIi0gSQ2PGDGCiRMnolKpSE1NJTw8nGPHjtHa2ioY8jNmzBDaDpIscUZGBkqlksbGRmE4JTU/aZ8SSZNCihZIaZHhw4cxc+YsfH19MRp7MJnMxMXFcvvtt6NUKjh16hTt7e3iGfcPq+t0OkaNGsXcuXNZuHAhfn5+rF+/nnfffZeOjg66u918idmzZwu1xJSUFJKTkzlwYD8pKSlCOVCv1/PHP/6RdevWYbVaOXXqFL/73e8YNSqVzs5Ovv/9Zdx++2KCgoJYv349L7/8suAAPPLII1x//fVERETw5ptvsn37dtrb27FYLOzbt48HH3wQtVrN7t27gUsaHV/lnXA4HBQVFXHmzBliY2NRq9X09lrQ6/V0d19S3TQYDGzdupXDhw8TFhaKUqmiu7sbvV4vyjHtdjs9PT2UlZWRl+eWx5b2fNmxYwdms5ne3l4qKiouqrsahYx5RUUFf/rTnzykrHvp6OgUzp4nH6Crq4u8vDwOHz5MZGSkkMw2m819iIbNzS2cOHEcjUZLXl7exSoHN5+ira1NcD4kNdP8/HwCAwORyWR0dXXR3t4unGqr1UpHR4dIO2m1WrFvS2VlpdAO6V9229vby9GjRykudgteucemEb1eL8pQJb5VdXU1r7zyykXBNTWdnV0YDAahQ9Pd3S3ObzabOXToEKWlpQQHB6NWqzGZjDQ3t1yWkvXCi6uNb70D4RnOk3KVwGWGFi45G2azmbq6uj5laXq9XuxL4Xl8f9KixLnwvJaErq6uyz6T9j7oj/45Z+kanp9L+0/0P87zHuVy9+ZJ9913Hzk5OWg0ampr6zh27Bg+Pj4sXbqUO++8k7i4WM6fr+LVV19ly5YtFBcXC6Nw/vx59u7dy1133UV2dg5jx45l3br3RPkdINICiYmJPPbYYwQEuPcIuHDhAvv27aO1tZWCggJ27drFrFmz+OEPf4hGoxFOhFwuZ8eOHcJxAve21a+88gr79+8XKYSYmBiefvppj+iRjOBg97bNY8aMFZUaUt98+umn7NixQ0Qm+pNNpS2Wn3nmGZKTk6mrq+Pvf/8bH3/8iTAOJ0+eZMOGDdx000384he/EOmeiooKdu3axciRCcyaNYtTp07x2muv8cEHH4jrmM1mCgoKqKqq4o477mD58rtxOBy88sorvPXWW1y4cAGXy8XOnTtxOBzcd999jBs3jsmTJ7F37x7xLLu7u9m5c6coNZV4OF8FUspKqhyprKwU33lyTiTYbDZaWlrEZmWe8ByPV5LgljDQOyE5ijU1NX3a4Lmil5xTtVpNQEAA7e3twiH0JH1Kx3d1dQktis+DRObs6ekR26V78iwkx1Eqobz11ltJSUkRAl6HDh264jOQ2m80Gvv0i3S+/pouRqNRRMI+D5Kj1NHRIfrACy/+U/jWOxBXgjTBXwmeL7mEgbQXBqrx9oxKeB4zUL5aClF75u4H2k7cc8LxDJV6ts2zDZ732NraytatW6moqKCzs5OSkhKOHj2K1WqltLSUsrIy3nnnHfbs2UNpaWmfMKjD4aC6upr6+nqOHj3KmDFjyMjIIC8vj+rqatRqNe+++w61tXV0d3dz7NgxHn30UXx9fUV4tqysTKxAf//737N+/Xp0Op2oepEY+ufOnaOmpgaNRsPRo0cxm80cO3asjzPX2NjIM888g9PppL29HbvdTklJCU888SQhISFigrXZbCJM72mcJIGwEydO0N3dTWtrKzabjbKyMoqKiti4cSPHjx8XaRqn00lVVRXPPvssGzZsQK1WC7JtS0sLNTU1xMTEUFtbR3FxsVBD9CSxSUayvLyc999/n4KCAnbv3i2qRSQho/z8fFpaWhgzZgxnzpyhtfUSu7//eOn/rL8s+pddeo6rr6Ok2jN64Dn+B6oSku7JMzIkGXJJzjwqKorGxkZSU1PJysqisLBQODme7/JA79uVeCKe15KOl+6/Pz8I3KmL5ORkurq6+OCDD/o4Xlc6t6eTIP09kMhV/37qP5d4LlD685A8v/PCi28SMsA76r7lkEoaJRa5RLSUydzaF35+fheJZeYvOBOigsFkMgkF0YCAAJHW+TqY31J5pUajEaJHA6WcvgqBEC6Vs2o0GpHb9vPzE07HQIqeX9TeS6WlV16RymQyQVL1dDL6R40kVUJPB8TzHJ6fXQ2jMZAz+p+CSqUiMDAQrVYrHMP+q/pvop0KhXuTrYCAAMGf+Ko6C1913HrhxX8bvA7Edxj/7kTmWab5de2k6tm2gaJA/y48DbS0ClSr1ahUKqGvcTXK3zyN8pUEwfof7+lIXCla9m03RAOlKD4vqnC12+LZnqshfueFF/9L8DoQ32FIRurfVay7GivWK4W7v254OhNflZQIl/pSOsdAYWpJFMszujDQeT7vfvun0L7N8Iy4SMRZifj6n7p3b/TACy8uwetAeOHF/xC+Sw6EF1548d8NrwPhhRdeeOGFF158aVxey+iFF1544YUXXnjxBfA6EF544YUXXnjhxZeG14HwwgsvvPDCCy++NLwOhBdeeOGFF1548aXhdSC88MILL7zwwosvDa8D4YUXXnjhhRdefGl4HQgvvPDCCy+88OJLw+tAeOGFF1544YUXXxpeB8ILL7zwwgsvvPjS+M5u5+3F1wdpcygJV2MzKi+88MILL/674HUgvPi34LlD4RdtFOWFF1544cW3B14Hwot/C5LzIEUhrrTttBdXH/+pvvdu6uWFF99NKIBf/6cb8U3Bc6Xscrm+U8ZOJpMRHBzMmDFjiIuLo7OzE5vNJiIInv98fHQkJiYyalQaDoeDnp6ePv3W/7wymYzIyEgmT57MsGFD0etbsFh6xfdyuZyQkBAyMzOJiIigu7sbh8PR51z9n4XkkAQGBjJmzBhiYmJEm6W2KBQKVCoVQ4cOJSMjA6VSSXd39+dula1UKpHJZERHRzNp0iRCQ0NpbW3F4XBc8TdS2+RyOWq1GofDMeBY6t9H0u8+b5xptVpSU1PJzMzEZDJiMPRcdoxcLsflchEQEMDEiRPx8/PDYDB86W3Y+7dHaqfUbs/PJKhUSuLi4sjJmYSfnx+tra1iq/Ivus6VvpP66qvgq/7ufwGeY+2bup7n//fvW885YaDffF1t6H/+79K8/L+O75QDAX0nTWli/i5AqVSSkpLCY489xpQpU9i/fz/t7e2XvawymYzw8AiWLVvKvffeS2NjI6WlpSgUCuByA+NyudDpdNx44408++yzxMbGkp+fT1dXlzDYGo2GtLQ0Hn/8cdLT0yksLBSGXqFQEB8fT05ODh0dHZhMJuRyOQqFArlczujRo3nuuefIyMhg586dGI1GVCqVOHdwcDDLli3joYcewmw2U1hYKJyBgSYnpVKJXC5n/Pjx/PnPfyY+Pp5du3ZhMpmu2HcymQx/f3+mTZtGZmYmDQ0N9Pb2IpfLcTgcwrGQnBpPB0P6/ZXGWVhYGD/84Q+5//77KS09TWVl5YDH6XQ6Zs+ezQsvvIBOp+P48ePodDqGDh1KTEw0kZGRREdHExUVRXR0dJ9/kZGR+Pv743DY+zh2AAqF4ooTuNuZ9GX+/Pn84Q8votVq2bFjx+c6LjKZDF9fX+Li4oiPjycyMhKtVovFYhF9pVAoxHW/TLpLLpcLB1D63bfF4Hg6cd/E/Xg6vtLz8HSApecjHSP99+tqm+e7ONB334Zn+l3AdyaFIZPJCAwMJCwsjO7ubjo6OrDZbP/pZn1jkMlkaDQaQkJCUKlUqNVq5HL5ZRO4y+XCYrGgVmsIDQ0VRnKgFbpMJkOtVjNmzBhuueUWLBYL7777Lnq9nhkzZqBWq/nss89wOp3odDrCwsL6GPfk5GSmTp3KddddR1xcHM8//zvWrXtP8Cj8/f0ZPXo0CQkJVFZW0traisvlEgbM6XQSHh5OZmYmWq2Wqqoqent7+9xL/3uzWq2o1WrAvfr38/Pr41R6GiaXy4VKpWLkyJHceuutLFu2jMbGRqqqqjhy5AhOpxO1Ws3IkSPJzs5Gq9Uil8twONztdzgc6PV6Tpw4QVVV1YDPRaFQEBgYiE6nE06aZ/9KE+348eP52c9+hp+fH3V1ddhsNqZPn87dd99NeHg4LpfUbvllk6/FYqGwsJB//vN1KivPMm7cOKZPn45WqxXGWHKoZTLo6Ohk//79FBQUXHzGGnx9fent7aW3t/ey80v9FxAQwKRJk5gxYwZjxowhJCQEq9VKbW0te/ftZftn2zlz5gwOh+MLoxgDwel0YrVaB7z2/zpkMhk6nQ61WkVvrxWj0XjFqNDXeU1gwPfb829PJ+Lrao/L5RKOtnR+jUYDgNVq/dY81287vvUOhPSSBAYGsmLFCubPn8+JEyf4/e9/T0NDw3+4dd8cXC4XJpOJ3l4LSqVSTMRBQUEEBgaiVqtRKpUolUoiIsKJiopCo9UQGxdLRkYGTqcTlUqFzWaju7ub1tZWTCYTgwYNYvHixaSlpfHmm2+Sl5dHaGgojz32GDqdjq6uLgoKCnC5XLhcLrRaLaNHj2b27NksXryYUaNG0dHRwZYtW6iqqhbtldIekyZNwmg08uGHH2K320XUSKVSoVQqSU5OIjExkc7OTpRKJZmZmcJAORwOLBYLer2enp7LUwOSA6BSqcTfntePiopi5syZLFmyhKysLJqbm1mzZg3l5eVigtPpdGRlZbFy5UpCQ0NxOBxoNBqcTid2u53z58/z4osvXtGBkJ6Ny+W6zKGV7jMjI4OHH36YpKQk3njjDT744AOxmrfZbOLfJUegr4E3my0YDAaMRiMajYaUlBQWLVpEUFCQ6FNPA9HY2EhTUxOHDx8G3A5Ib28vra2tol0DYdCgQTz00ENkZ2dTX1+PwWAgNDSUhIQEsrKySByZyF/+8hfOnDnzpYm2SqWSyMhI0tLSiIiIwGg00tXVRUtLCzU1NXR3d/dJS/6vGCBfX19SU1NJT08nOjoauVxOXl4ehw4duqppVilC5u/vz7hx4xg+fDhWq1W85+5ru5/9qVPFnDp1asAFx78Dl8uFr68vSUlJZGRk4OPjw+HDhzl69OjXdg0vri6+9Q6Ey+VCLpcTFxfHnDlzmDRpEoMGDWLr1q00NTVdMff9bYFcLiciIoKIiAiSkpIICgoW6YyAAH9GjkzkwQd/THBwCGq1WhghPz8/tFot9624j6XfWypCx2azmerqalatWsXhw4dZuPA2cnNz2bhxI2+88S+6urqw2+2sW7eO//u//2PlypU88cQTwliPHz+eIUOGEBoaSmdnJ2vWrOHjjz+msrISvV4vjlm+fDkJCQkkJyejUqn4+c9/zv3334/T6aChoYH33/+AM2fOkJk5hkGDBhEbG8vvfvc7HA4Hvb29wkFqbLzA6tVvsmHDhj5GRTLOarW6z6pWLpcTHh7O5MmTWbRoEVOnTkWtVrFhwwb++te/UlJSgslk6hfm90Emk7Fu3Try8vLw9/dHqVRyzz33EBUVhVarxd/fX0QYJIfFYrGgUChEOsTHR4dWq0Wj0WAymXC5XCQmJvLII48wbdo0Pv30U/7617/S0tKCRqMhPz+fkydPiijRlcLMEo+lvb0dgC1btlBcXCwMhdQfLpcTp9P9X6PRxLBhw/Dz8yM+Ph6lUkl4eDhJSUmo1Srs9ksOTHNzM11dXSiVSqqrq9m0aROHDh3CarUSEhLCNddcw/e+9z2mTLmG/fv3i0jRlzHysbGx/PCHPyQ8PJw9e/YwaNAgFi5ciNXayyuv/I0jR46IY/+XnAiVSkVAQAChoSEMGzaMyMhIkTK02+1X7R5cLhdOp5OEhATuueceurq6yM/PJycnh7S0NDZv3kxLSwvTpk1n+PARVFZWfm6a799BYGAgubm5BAUFUVFRcVWu4cXVwTfuQPSf4K52yZ9MJkOr1ZKZmUlqaiomk4moqEiuueYadu7c+a12IGQyGREREaxcuZI777wTHx8fEbJ/8803sVqtHDp0iM7OLjQaLXa7nd7eXhQKBb6+vqhUKux2O1arFbvdjs1mxeFwoNPpCAgIYOnSpTz44EpMJhMGg4EZM2bi7++HSqVi0KDBOBwOpk2bxoIFCzh58qTIj58/f56NGzeybds2YQAfeOABIiIiWL16NdHR0UyePBl/f3/q6uqQy+UEBwfj5+dHREQE6emjOXDgIGazmaysLMBFbW2tmHDtdjtms5nBgwcRHx/HkSNHUalUWK3WPgRMhUIhjpfL5YSFhZGTk8Ott97K9OnT8fHxoaioiH/+83U2btxEV1eX6FdPSOc8c+YM27ZtQ6vVEhwczLRp0y4SEHOYM2cO4eHhHit+hBEeNmwoYWFhPPzwz1m6dBnNzc28+eabmEwmHn/8ca677jo2b97Mo48+SmdnJ9HR0TQ1NaHX69Hr9V96XNTW1lJbW9tnnHgaqtDQUO666y5WrFhBWFgYfn5+aDQa7r33Xr7//e+Llajdbqe8vJyXX36Zjz/+mLNnz/Lss8+i1+tFqkMul9Pa2kpSUhJTp04lOjoapVLZJ9U0EKQ+dXNywvn+97/PqFGjePjhhykrKyM4OBi9Xs+0adMICQn5RvkDXye6u7s5cOAApaWlTJ8+nXnz5qFSqa4qWVRKV6nVamJiYqiurmb16tV0dHQQGxtLdHQ0p06d4sCBAxgMBqZOncqQIUMoLy9HLpd/afLulaBQKLBYLJw8eZKUlBSmTJkiuBhSVM6L/2584w7Ef2JghIaGct1112G32/nkk4+ZPDmXa6+9lr/97W/U19d/o235JuFyueju7qasrIy8vDwCAgLIyclBrVazf/9+mpqayMvLY+fOnWi1WpxOJzabjaioKB544AGmT5/OK6+8wvr160VeUjK6/v7+PProo0RHRwPw+OOP97m2w+EQREopXG6xWNixYwe//vWvKSgoEJEOtVrN8OHDycrKYteuXTidTgwGAx988AEvvfQSdrtdGJOf/vQn3HHHnWg0GsaOHUtcXByrVr3Kq6++Snt7OwqFHJcLfHx8WLlyJUuWLBETsuQ4gDskLk1WksOyfPlyRo8ejVKppLi4mHXr1vHee++JMfJ5E5s7h61Fq9XicDiEE+bn58fQoUMZM2YMERHhmExmYRw8z6XVahk1ahQul4uamhpaW1sZM2YMkyZNYsuWLTzyyM+xWCw89NBKxo4dx3PPPcehQ4f6XP/LGB3p2gPdj8PhoK2tjdOnT+Pr60t0dDQpKSnU1dVx8uRJQkJC8PHxISoqivDwcAIDAwEwm83U19f3MeZKpRKn00l3dzc2mzvS43Q6PzdK4Mn+VyqVZGVlMXv2bF555RVOnz6NUqmkq6uLffv2odVqUavVaDQazGZzn/v7X4DEOTIYDJjNZhExhc8n3/6713Q6nfj5+eHv7095eTnl5eWEh4djs9nEe261WikpKSE4OBgfHx/x268T0j06HHbBi/AcH178d+Nbn8KQDERycjLl5eWsXbuOoKBgcnNzycnJ4cMPP7wiQVDy1KUoiUT88hRNGuiF8swpSy+D53n6T/RfVELY//fSdaXPpesMBJPJxFtvvcWaNWsYPTqd5557DoVCyY9+9KM+HBDP1bVKpRKRhp6eHtra2vq0XSIjSn3X1NRESUkJPT09OBwO7HY7RqOR3t5e7rrrLu6//z4yMzPx8fGhtVVPS0uLuI/u7m58fX3x8fGhpaWFuro6EhMT0el0mM1mrFYrPT09InrR1dWNVqslMTGR9PR0DAYDW7Zs4fz586KPpP9KvAhpQvScmKXnYzab0el0XHvttWRmZnL48GE2btzIp59+SlVVlfid1CdXelYOhwOj0YTZbBaTn1wup62tjffeW8fjjz8ueBsBAQHIZDK6u7tRqVR873vfY+7cuTz//PPs3bsHl8tFREQkCQkJbNjwIY8//gTNzc1ce+21/OhHP6auru4ywqU0+X4d6Ozs5J133uGdd95Bq9Vy44038tJLL7FmzRp++9vfAhAREcE999zDggULRL96OliekUZfX18iIiJwuaCnp0dEiq5kjDwJdoMGDWLWrJlYLGYOHz6MTCYTK+DOzk7KysoICgrJbyY8AAAgAElEQVREpVJiNv/vOA4SLo1FJw6HvU8q6mpB6qPOzk62bduKzWYXc4j72TjF8zl79iwNDQ1i4fB1Qbo/aX50OBxYrZfSWv9rz/G7iqvmQAy0wlCr1YIwo1AoOHr0KKWlpYA7nPVVmNlXgmREVCoVubm5xMTEsHnzZvbv309qagrZ2dncdNNNvP/+++I3kq7A4MGDWbRoEYsXL2b48OHYbDZMJhPPPPMM77zzDm+//TajRo3i17/+NW+//ba4X4kU9Ktf/Yof/vCH/Pa3v2XVqlU8/PDPuOGGG1m9ejU6nY5ly5YRFRWFxWKhqKiIhx9+mBMnTogwu1Q2OG/ePO68806uueYa8d358+d56qmnyM/PZ9myZaxYsYLNmzfz0ksv0dzc/Ll9olSq0Gg0KJUqQkNDaWpqQqFQMGjQIAICArDb7aIqwNfXF7vdTnR0NKNGjbp4/V7a2tppbm7GZDJx8OBBuro6CQx0RxeklIdSqSQoKAidTsfRo0cpKCigubmZxx9/nLFjx3H77bdTXFwsDE9aWhqTJk2iqKgIvV5PRESEMP4KhUKEvCWmto+PD8nJyURGRpCXt52SkhJxbP/Vi1wuR6vVoFarRSmhUqkU3AeZTEZtbS3PPvssq1evpri4mK6uLmHApFWwdC7PMjfP0tb+TqGnQe/uNlBcXCzO51npERERgcFgwGQyUV1dRVHRqYu8ivO0tbXR1tZGS0sLiYmJ/OIXv8BoNPLWW2/R1dXFzTff3KcEz+l0YrFYRHmcp8CXw+HAbDbT1dXJkCFDUalUojrGYDCgVqvFuaxWK+3t7RQWFtLR0UFwcDBAn9C1O3fv36fPPZ1YyQCFh4dzww03kJWVxalTpzh69KjQH/kiLQmZzK0vkpKSSkVFJefPn+9zjZ6eHuFU9P+d9D5LZFMp9C79Xq1Wi/LWc+fOiZW39Jwlnor0ufR7KYolRVakMST9PZAT119nQ/onlbS6x5ochUI5YCWOZ0mldH7pnBIPpT+B1HNxId2XdB7p/sxmM62tbX3aeWk8XTqXxH3oX/buucDyrOjo3w7pXj25On0htbdvSbHUFslx719W6sV/HlfNgfB8wNJLnZOTw/PPP8+ECRNwOp2UlZVx9913i5K4rxPSNUNCQsjNzaWnp4eCggK6u7vZs2cvS5cuY/z48SQkJAjijsvlIjIykqeeeorZs2fz6aef8tRTTxESEiIqDaxWK7t372bmzJmMHz+eTZs2CQa4QqFgxIgRzJkzB4vFQl5eHgBBQcEMHjyYpUuX0tDQwMsvv0x9fT3z58/nrrvu4tVXX+WOO+6gsrISmUxGWFgYK1bcy733rqClpYXf/OY3FBYWMnLkSCZPnoyPjw6NRk18fBxDhgwhPj4enU73//VM5HL3CxkUFERqairh4eE88sgjJCUlYbe7V0AqlYqQkBA0Gg0PPvggy5cvx+Fw4OPjw7Fjx7jjjjuQyWQkJCTwk5/8lOuvv77P5AtgNBoJCPDn7NlzPProo5SWlrJt2zYSExN5/PHHxSrU39+f3t5eGhsb2bx5syBSSgS/3t5e7Ha7mNBdLhcGg4Ht27dz+vRpkpKSWLlyJTt27ODgwYOCYyBB0j6IiopiyZIlZGRkYLPZiIyMxMfHh7S0NF544fe0tbWjUqm48cYb+xhlz5JD6R6lSa68vJxt27YBboMk5XHdzzzo4qrbhUajYfTo0SxcuJCamhrWrl2LyWQShiggIOCi0b/kkBiNRk6cOAFAVFQU99xzD+PGjWPjxo0cOHCApUuX8tOf/vQLV6rSytLhcFBaWkpBQQFTpkwhLi5O8IMAETWSVprl5eU88cQTFBYWEhgY2MdYKhQKNBoNvr5+gJsMKkHqe0nfY8mSu/je95ZSV1fH66+/TklJyWURtStBcuZjYmLEsx0InkbKz8+P5ORkcnJyGDx4sKgsaGhoIC8vj7NnzxIWFsa8eXO5664lmEwmCgsLGTx4MO3t7RQVFTF06FCGDh1KUVER69e/R3NzC06nk8DAQCZNmkR2djZ+fn7YbDZqa2vZvXs3lZWVKJVKkpKSyM7OJioqCr1ej9VqJT09Ha1WS2NjIzt37qSgoICenp4+48oz2tj/mXqWNY8bN47s7GyCgoLEb8vKyti2bRvNzc2oVCpGjRrFwoULSUpKorm5mW3btlFYeIyxY8dyww03EhQUxKFDh1i//j1qa+sGcMAuvT+ejonD4SAwMJCJEyeSk5ODj4/PxWfi4tSpU2zZslWkLaVnPGzYMKZOncrQoUOFE2EwGCgsLCQvL+/i793XlMaOTqdj4sSJLF68mOjoaE6fPs3GjRtFys7rPPz34BtJYbhcbhW9+fPnM27cWJxOB3a7g8TERFasWCEY1F/nwJAG69ixY8nKyuLIkSOUl5fjcDgoKyujqOgkN9xwI/PmzaOiokIoDMbExJCZmcGePbt58sknaWxsRCaT8eGHH5KQkIDVamXnzp3cfffd5ObmMmrUKA4ePChC/+PHj2fEiBGsWbOG48ePExISArjFlurr63jiiSc5fvw4ALt27UKtVjN//nymTp1KZWUlGo2GWbNmcccdd3Ly5El+/etfcfJkEQA7duxg1apV4oV+7bXXOX26jPLy8s/lckgrdylXHRsbK/gL27Zt46OPPmL+/Pnk5uayZcsWjh8/jlKpxOFwv9wA48eP54YbbriodSAXzoa/vz8Gg4H333//YhpBhtVqQ6VScf3115OSkkJ4eDgABw8ewGg0EhISgkKhuKjH4KKlRU91dTUnTpzoY1QiIiJIS0uju7tbGIe4uDjkcjkdHR0cP36cxMREbr/9dhITE2ltbRVEL/d4cmI0Grlw4QIqlYrs7GxmzJiBy+VCqVTi6+uLzWZj/vzrxUpHo9Hg7++PxWLBYrGIc/U3dj09PbhcLnbt2gVASEgIK1as4LbbbhOrJZ1Ox4ULF4RexZQpU1CpVJw9e5Y9e/b0CeVLq9j+aamgoCBuvfVWlixZQmtrKxs2bKCsrIzPPvuMpqami/fpWUnhIiwsjJtvvhm1Ws3GjRupr69DqVSh1+s5f/48mzdvRqFQEB4ezn33rSAwMJDXX/8nRUVFwhE2mUyUlpaiVCrx9/cXDoTULrlcjkajEaWyEqR7iY2N5cc//jGLFy/mxIkT/OUvf2Hbtm3Cwfsi50F6RgEBAajVKjo7O8VY7j9PSOdSqVSMGzeOxx9/jLKyMv75z3/R2tpKWloat956K4MHD2bVqlXU19dTVHSK5cvVDBo0iB07dmCz2bjllltITU1l165dGAwGZs+eTXl5Gbt25RMUFMT8+fOZMWMGu3bt4vDhQ8TFxXPDDTeQmDiS1157XSxEEhMTufPOOykrK2PLli1s374djUZDdnY2y5Ytw+l0snfv3gGdh/7vrQSdTsd1113Hfffdx4EDB3j77bcxGo1MnTqF+fPn4ePjwzvvvIPFYqG8vJytW7eSnJxMQEAAlZWV1NXVo1KpGTNmLAaDgU8++YSGhguXXWug1JLUNn9/fxYsWMCCBQvYs2cP7777LjabjXnz5rFw4SLkcgXr168XAnEJCQncdtttKBQK3nvvPQwGA5MmTWLhwoWEhoaSn58/oBaPlLa02+1UVlaydu1asbjyHB9e/OdxVVMYUljTHZL1ISwsTKyyVCr3JBITEwN8/QPCZrMRGBjI7Nmz8fX15fDhw5w7dw5w8wK2bfuMmTNnccMNN/DPf/5ThMjdOXwHYWHhDBkST2dnJ2azmY6ODlGfXFdXx969e1m0aBHjxo3jyJEjOBwO1Go1ubm59Pb2smnTJlwuFzqdFpvNTkdHB1u3buPEiRPC2ejt7aWwsJAFCxaItI5U0qRQKFi7dg0nTxaJlapktKVJtKKi4nPLniTewJgxYxg/fjyTJ08mISGBgIAAAIqLi8nPz2fv3r00NjaSkpJCRUUFL730Up8XOzAwkMDAQIxGIzt27sBsNouVqs1mo6mpie3bt3P48GGhJxEQEEB6epqIbMTHx7Ns2ffp6urib3/7W590i1arZeTIkURGRlJdXY1cLicwMJAbb7yRiRMn9tEqiIiIwOl0YLPZMJvN7N+/X5DsfvSjH/HMM88Iw+pwOEXe/dy5c6xatYpPP/0Up9NJeno6y5cvp66ujn/84x90dnai0WhITk5mwYIFtLW1sXnzZurq6ujt7e0TppXCzM3NzXR2diKXy0UZ3JEjR1AqFSgUSubPn38xFWSjvLycvXv3snDhQqZNm0Zh4TG6urovcieMfcLT0iQeEhLC9ddfz3333Yevry9VVVXU19fT09NDXl6eiHD1x8iRI5kwYQL+/v688cYblJSUXHaMXC4nOzsbf/8ATp4s4s03V9PY2HTZ+BkyZAjR0dEiQuH5nULpTl9I/SM5Pn5+vkydOoUFCxZQXFzMiy++SH5+vri//99oo1wuQ6lUYLc7+pTaSk6Nr6+viBBJOhgS1+KTTz7l5MmTF8eBg9GjRzN6tFtrQRLi6urqoqfHwNq1axk2bBiZmZnU1NTw/vvvk5mZSUxMDP7+br7KuHHjuPPOO/noo4944403AKiqqkahULB8+XJmzJhOVdV5Tpw4QXh4ONdddx3Hjx/n9ddfR6/Xo1AoqK2t5cEHH2Tu3LmUlpYKXQ3PZ97fgEt/u4XYQmlpaWHz5s0UFxcDoNFoGDduHKmpqYSEhNDQ0IDZbKa0tJTt27eTlZWFn5+fOLarq4sDBw5QWVnZ55lJz0XqT6ezbxvA/Z4GBQVSV1fH1q1bxdxz5MgRcnJySEpKEhozarU7QhoZGcGuXfkimlZfX09zczPx8fEDitiBW08kMzOTkpISNm3a9J3S6/lfw1VNYXiujLq7uykqKqK9vV2UXTkcDvLz84GvlwMhOS8xMTFMnjwZi8WCRqth2rRp4jsfHx/a2toYMyaT6dOn89FHH6FUKmlqauLQoUMsXLiQ5577HZ999hkHDhzg9OnT4oU3Go3s3r2bm2666SK7PgK9Xs+oUaOYMGECJSUlHDhw4GIfuCc8i8VCe3u7WHFIL2tzczMulxONRoNcLmfQoEEkJSVx4cIFSkpKxcpUygN+GfltyeDef//9Iq2i0WgoLy/nhRdeYM+ePbS1uXOg586do6qqilmzZrFlyxaOHDkirj1q1ChuueUWzp07xycff3LZNYYMiecnP3mIlhY9Go1GaBuMHz8ep9NdkRAaGsL48eNoa2vH39+f5uZmdDodqampzJ49m1mzZlFaWsoLL7wgxk5HR4dYFbtc7nLLsWPHXlRedP997tw5Vq9eTVxcHHPnzuXs2bOsWrVKjCl3tMSG0WgUqz6NRkNnZydLly6lubmZTZs20dzcLELQ8fHxJCUlcfZsJR9+uOFzDV5QUBBOpzvSkZeXxz/+8Q+Ai88xkXHjxiGXK+jo6ODgwQPMnDmDadOmsW3bNvbv3y9+259rERwczPXXX8+Pf/xjYmJiMBgM+Pj4COflSlUMnjluKe0jfSbB5XIRGhrKrFmz8PPz49ChQ9hsdmbOnIndbqegoACj0SiiPkOHDsVsNlNXVyfOp1AoUCouyUpL/AA3D8iPpKRkVColu3btZP/+/V9J9dXlcjuBQJ8UnVarJSMjg+nTpxMfH09LSwu7d+9m3759HDx4kOrqahobG8nIyCAkJESQqJXKS7oXUoTSZDJjs9lEv5rNZux2u6juAPD39yctLY3g4GBKSkrEd06nUwiUJSQk4OPjQ0+Pu98sFgv19fXo9Xox17W0tNDc3ExcXBxRUVGXCXNJHISBIhFGo5HNm7dw7FghXV1dZGRkEBAQQEpKCvHxQ/qU5YLbaT579ixZWVmkp6dTXl7O8OHD0el0wiBLTmv/sXElw97V1cWmTR8TFBSEw+Fg3LhxhISEMHp0OhER4WKBJjl0BkMPCoWSKVOm0NHRQVlZGc3NzRw8eJCioqIBx8TgwYNJSkpiyJAhrF+/nqamJi/n4b8Y31gVhslkYsuWLURHRwtDvn//ftasWXNVrqdUKsnNzSUlJQWlUsmPHvgRK+5d0YdEFRQUBMAtt9zC5s2bsVqtNDY28re//Y2Ojg6mT5/OypUrueOOO9i7d69Q0bPb7Zw6dYqioiIyMjJISkqis7OTa665hpCQEF599VXa2tpEWNyToNUfEnlIMh4+Pj74+vrS2NgoyGbSBA2XWMv9J5krnd9oNLJnzx7OVJyhx9DDkiVLxJ4RFy5cEMTRxsZGtm7dyv33309OTg5FRUX09vYSEhLC7bffTmRkJP/61784e/Zsn2u6HRsnvb3uFaKkwWC1WjGbzahU/hfvUw7IxMp60qRJzJkzh1mzZjJkyFDa2to8nC43ByA/fxd//vPLojxPqVSycuVKbrnllj59c+LECdasWcOzzz7L8uXLOXDgABUVFaICQ1pN9Q+BOp1O4ZxJ39XU1LBz504yMzO44447qaiopKysrE8e2DN3LU2WngZdis5Ixk8ul9Hb20tZWTlFRaeYM2cOubm5FBYWXrwvxcVn6xC/T0pK4vbbb8fHx4c1a9aITbS+Dn0ApVLJkCFDmDZtGo2NjeTn5xMdHc3y5ctRq9X89re/5fjx48hkl+Tf29vbRRhZclAkp9+TOCgRVAMDA+no6KSh4UKf8sovA7vdTldXFxaL5WIqEMGLOXfuHGlpacycOVNEmIxGI3a7nYSEBO677z4CAwNpbGwUFUZuLZNLhEPPVIonV0R6BuB+3wICAhg6dCghISHMmDGDtLQ0QcINCwtDoVDQ0dHZZ5xJ1UhSH4E7KmqxWPD397+MsyS1SaFU9BlL0udSWH/8+HFMnrwYp9Nd7uvm6bgrJySuhEzmrlSp/n/snXd4lFXa/z/TJ5VJ74QQEgIp9BakSw0g4gJioVhYlBXeVX+uCq66i+tiXbG+CsgqqOguIqj0UGSpARJISGghvZdJnz6/P4bnMBMCgm33ded7XVwkmec5c55zznPu9r3vU1BASUkJSUmJnD6dgL+/PyUlJRQXF3dYqlrqe0e0GuldMxqN9OzZkz59emMymSgrK0Or9UAqoS4Je5PJxJkzZ9i+fTtTpkzhySefpK6ujhMnTrBr1y5OnTrlpKjYATuhoaGkpaUREBBAW1sbOp3uezk+bvx78YspEHa7IyXopZdWsHbtWpRKBaWlZcIC/ikzMOx2R5XByZMnA7B161by8vLQaDRC65U2hlmzZjFkyBBSUlLIyMjAbDaTk5PDiy++yIYNGxg+fDjTp0/n/vvvx9PTk9///vfo9XpKSko4cOAADz/8MAMGDKC8vJzRo0dRUVHBrl27kMkc50RIL9P1Gec4CR0rRqNBnFUhhQnaP5/jvisvbEdxZZvNRk1NDX//+99RqVT06JHA1KlT8PDwRKPRuLC4Gxsb2b17N+PGjeWOO+4gKyuLo0ePMnPmTG6//XZOnDjBp59+CkgufMdLb7PZKCgo4N133xUcBrlcjoeHB8888wyjR4+67C0wY7NZSUxM5C9/+Qvh4eHExMRQWFjImjVr2LlzJzk5OTQ1NQlvTEtLK3q9nubmZtRqNR4eHrS0tLiQLM1mM1arlW3bthEfH4+/vz9VVZUiRu/43itZD+3Hx2g0CqEhhRP279/P4MGDmTJlCgsXLuSFF15w4Zi4brZXuAuAODzMaXYxmy1YLBaqq6v59ttvqamp4ejRo8KS12o9LvfHMa9Wq5WmpiZyc3P58ssvOXbsGMnJyXh7e/8kZGNfX1+GDRtG165dWbNmDadOnSIyMoKiokJuu20agwcPJi8vT3if/P39OXHiBOXl5S7WspSGK6XZStZzXV0dn3zyCenp6Rw/ftzlno5i7NeCwWAgPz+fmpoaunfvjp+fH/X19VgsFiorK8nNzaWkpIT8/HyKiopEyumCBQs4dOgQH3/8MSUlJWi1WlFS23nunAmfzgx/aU6lQ9uk3+vr6zly5AglJcWXvSMO633Tpk3o9Xqxl0mcIykzoz1HRQpJtofdbsduu3ps7HY7wcHBzJ49m7S0NPbv3y/Ca5LFLhEfpb1AJpNRU1PDxYsXGTlyJKmpQzGZTOTm5nZY1v36+5NjzAICArj77ru55ZZb2LFjB7t27aKiooKePXuSkJBwVWaSFAY8deoUffr0EQXVRowYwbp16/jiiy+EYSRlbhUVFfGvfx1gwICBTJw4kTNnzlBQUHDNvrnx78UvWgfCarVSU1Prkjok4ad0USkUCnr37sXgwYPJz8/nz3/+M1lZWS6CRHLjJiQk0LdvX4YPH05GRoboS3NzM6dPnyY39wwnT57g3XffIy0tjTfeeIPMzEyMRiNHjhzhjjvuYODAgZhMJrp1i2Pbtm2cPXvWpT/fr0Vf4YvU1NRQUlJCcnIKUVFR5OXliRoEzsJDegZhuVxWQNqPoxT6kNjOVqvNxYqWrBar1cqFCxfYsuVrfv/737Nw4UIGDx7Mvfc6mOp/+ctfKCkpEWRTB7nSsQmHhoYKHofFYsHT0xO5XEbPnj1RKJQilKNSqenatStBQUEcO3aMtWvXsnXrVoqKiggICECpVLikHzo2pCvsbGnTd05PlFBbW8vKlSuRy+VUVlai0+kuK2GKq8ZImmNJ0ZTaViqVmM1miouL+eSTTy4TNGchk8n485//TEVFBZ6enrS0tLisJWl+JWWmtbWVTp06YTKZXCy9lpYWdu/ezb59+6ivrxfM+isC1tGOxWLh7NmzvP7669TW1hIWFnZVet/NQpprKW137NixVFZWsmXLFiwWCxUVlezdu4/UVEeWQXr6btraDAwaNAibzXZVFoQUIrFYLIJEKT1HU1MT+/btc1FupfV9s+95dXU1x48fZ8SIEcTExNDU1CSsdyldVSJcBgcHk5aWBsDatWuF5yg8PFzMtaSYS14U53RISbA7h4nkckf4oLS0lN69e1NTU8Pp09nieRQKhSiGplAoxBqQ+EoSJINCq9WK1Fzp79KYOGohmMTZJs6ega5du5KWlkZxcTFr164VCm1wcLAYA6ktyaPW1tZGfn4+I0aMYPTo0Rw5coSysrKrUk2d58TxfTKX/kvvRkJCArfeeitZWVls2PAZ1dU1QpF0Vh7kcjmenp5ERkaiVCrJyckhPz+fHTt20KNHD+bOncusWbO4dOmSyKywWm2CW5Genk59vZ7p06czbtw41qxZI/r5a64c/H8Rv8pCUmq1mtmz70Kn07Ft2zaysrIwmUwiJi6ldtXW1rJx40YGDx7M5MmTWbduHV5eXgQEBJCRkSHc3y0trZc3HZlwx9psNs6cOcPRo0cZP3483bp1w2KxsHnzZhf3+s1UVbPZHC/Rjh07GTRoMA8//DDFxcXk5eUBCCa3xWLh6NGj9O7dmwkTJ3DyxEnBJL8enN20ZrP5KouwpaWFL7/8ks6dO/PQQw8xbdo0SkpKePLJJ0lPTxchAanSoiQ8JQVCYupLG6EkRKXvllLm3n77bTZv3oxerxcZCv/zP/9DYmIir732GgaDgdZWR1Emg8EolCDpWOj2h0VJ4ysVvJIsQ4k8Jp1UKV3rrHh5e3vj5eVFfX09drud6OhoIiMjKS4u5tVXX2XZsmXceeedhIWF8dprr3Hw4EEhjJw3M09PT4YNGya8D56ensTFdXPKNrniWWg/J5Jgdk6fMxqNFBUVYbPZRLVP52e9GTh7rEJDQ7n77rvp0aMHn332GVlZWYSEhJCSkkJ8fDzgiOcnJiYBMHjwYIqLi9m7d69QwgAR/pHWudS+xWIhKCiI2267jaioKLZs2SIU8x+CiooKvv32W8aOHcttt93GiRMnaG5uFiRkyeNlNpvx9vYmNDSUgoICCgoKXMZKehelTB6z2SwKn8GV8IazYu0YO0TGzx133MGoUaM4evSoGFOdTkdqaioajYb09HTq6urEeSzO75ZcLic8PJzOnTuTlZVFeXm56JuzEuGsPDv/LSAggICAAA4dOkRZ2ZXsCSkLRqlUEhoaipeXlzgSXjrMrbi4mF69evGvf/3L5d72kMKZDu+LUvTBZrOhVqvo0iUaX19fysvL0esbxLiazWbx3gcGBhIcHExDQwN9+vQhMjKSyspK6urqaGlp4fjx40RERHDvvfcSEREhFBap1k5zczM1NTWkp6eTnJzMjBkzuHDhglh/bj7EfxZ+dQqETCZDp9Nxyy23YDab2bx5s8gakGKSEkwmE1u2bOGJJ56gb98+9OvXDz8/P/76179y7NgxNm3aJM586Nq1K6+++ir5+fnAlXK/Bw4cYNKkSfTo0YNNmzaRkZEhtHJpc+qIGHWtvhuNRr755htiY2NZtGgRmzdvZsOGDeTn55OcnMydd97Ja6+9Rl5eHrNnz+bhhx9m165dnDlzRpCYrgXHZmAV6YPOm7+zB8NkMl4+0ltNZWWlIHtJYyj1VdropJBPRkbG5ZLFZtRqNcuXL2f8+PEu452Tk8OuXTupr69Hq9WKzUDaAL29vUXWRVhYGImJiaIIklqtJiwsDLPZIhQzqU/tLRO1Wk1kZKQLB0IaA2kTMpvN6PV6GhoaCA8PZ8aMGdx77z1UVVXzzDPPsHPnToxGIy+99BKTJ0+md+/erF+/no8++oi8vDyXOfXx8WHu3LnMnTtXbKqAKFIkZd44E0Lbz73UnrPF7tzv9tff6EYql8vFSat9+/Zl+vTphIeHM3fuXObNm4evr69LTL6uro677roLlUqJv78///znPykoKHBRHqVaEFe8WwhhnpCQwAsvvIBGoyEiIoJnn32WsrKyq57pRmC1WsnMzOSTTz7hwQcfJD8/n48//pjg4GBGjBhBp06dqKmpQSaTodfrKSgooG/fvqSmprJv3z7Cw8MZO3Ysw4cPx2az0b9/f+Lj48nOzhanpkpjBIi1p9FohPCUFPbPPvuMmTNn0tzczLZt2/Dw8GDIkCGEhYXx+eefU19fL6z18PBwJk6cSHZ2NgcPHjgRh9oAACAASURBVKRbt27Mv28+ZrOZLVu2iDXhPCZyuVx4SJwP0pLqWBQXFzNkyBD69u3LqVOn6NYtlt/8xnGYXXFxMUOHptLQ0MiFCxfEGtPr9WRnZxMZGcnZs2c7PBDLOazjrCBKfXR45ixcuHCR+vo6cXpnQUEBCQkJzJw5kz59emOxmBk7diwtLS1s2rRJhJRkMhl///vfBYE0KSmJ0tJSYaQBgnwtGXcFBQV89tlnLFu2jHvvvZfc3DNUVFS6hHrdysS/H786BUKhUNCnTx8SEhLIzMzk2DFH6qVzpThn12BZWRkbNmzgnnvuYcyYMaxZs4YtW7YwdepU0tLSMBqNnDlzhoULF4qqk9J5BxaLhdOnT5OdnY2Xlxd79uyhra1NbAhSqKCtrfVyXrMr2Q4cQlWqOSC9EPX19fz1r38lJyeHhx56iMWLF+Ph4SFi4v/85z8xGo2cOHGCI0eOcPToURobG685Js6lhp3HyRkajYbJkyfzyCOPCKuzsLCQlJRkVq9ezYcffsg777wjlAmpr5JlV1lZ6RKrDAgIcCIbXknlDQoKwte3E2Vl5cKb4+/vT2RkpCDDxcZ2JTw8nIcffpgFCx5ELleItE0vLy8uXLgg5rEj/odM5shZj46OxmAwuCg9znFuhUJBbGwsb7zxBoMGDaRnz0Sam5vJzc0VHpA9e/awcOFvWbp0GWlpaTz++ONMmTKFf/zjH2zatInCwkLAwXo/efIkZ8+evdy2nMGDB2Oz2YWnxzkV0bmvN0KMlJ61ow3TOTNH8go4W7DOVmJOTg7fffcdqamptLW1odfXU1lZxdmzZykoKKBTJ1+GDnWk+0ZHR5OXl8emTZuEW7qtrQ2lUklAQAC+vr7C6+Ps2dHr9YL1X15eLtJUfyhqa2tZvXo1TU1N3HnnnaSlpdHa2kpxcTHLli0jKyuLtrY2Wltbeemll1i8eDHLli1j1qxZyOUySkvL+Oabbxg5ciSDBg3iyy+/ZODAgURHO9K0p02bhre3N0lJDq/LhAkTGDRoEHFxcUycOJGLFy9y+vRp3n//ferq6pg/fz7z588XHrW1a9dy7tw5F8JjdXU1bW1tTJo0ifvuuw9PT0/Onz/Py6teFh4Cu91O586dmTFjBklJSURERBAeHs6sWbPo178fOdk5bN68merqanJyclixYgWLFi3ipZdWUF5egcFg4MyZM3z++eeMHz+OPn368NZbbwslTxK01dXVZGZmkpeXJxQk57Ukk8mIjY1l9uzZTJw4EX9/f+bNm49W68GuXbuEd+HYsWOsXPkm8+fP56WXXqK2tlZwxjZs+JyxY8fS2trGm2++KVKbCwouiYMMJd5ZZWUl69at49KlS+h0Om699VamTJlCeHg406dPp7GxUXhNfHx86NGjB8uXv8B7773HsWPHRJ9vlEjuxs8HGQ423H8V2rPxb/Ze58WbkpLCypUr8fb25v777+fkyZOigqEE5w2+PQlNImpJFsNP+RJIQjsxMZHY2FhiY7ty771zKC0tZeHChZSUlBAWFsawYcO46667GD58OPX19WzcuJF3332X6upq7rrrLh5++GG6du1KWVmZOH779OnThIWFsnz5C0RERPDoo4+SlZVFamoqvr6+aDQa/vCHP6DVannooYdoamriT3/6E927x/PZZ5+Rl3dWjGFSUhJz584lJyeHJUuWEB8fz1//+le0Wq2w4CVCquRVeOqpp/jnP/+JTqdj/PjxhIeHYzAYMJsdRaymTXOQAffs2cNjjz1Gfn6+4G94eXkxb948li9fLg4JqqqqYvv27WzatIm9e/eKwkUSOnXqxMyZM1mwYAH9+vXDbDZz9OhRXnzxRWJiYrjvvvt49913WLVqNXK5nJCQEJ588kn69evHSy+t4Ouvv8HLy4v+/fvTpUs0NpsdpVJBt26OjIGioiIeffRR0tPTr9oYe/Towfvvv4+/vz9z5szh+PHjwvMSEBDAxIkTCQ0NpaWlBY1GQ2pqqohVL1r0MLm5eS5C43przNfXl7S0NP7f//t/hIaG8vrrr/Pmm2/StWtXlixZIrgbI0eOIDIyirVr1/L2229TXV3twjWRvEdHjhwR1Ql/7CmOkmfAObupfWlk5ywRKZwkVYp19po5v8fOlmx7jkx7K7f9584/SwTJcePGibL37733Hr6+vhgMBlF8TOqn8zO1F4jSftA+g0sKM0hppG1tbS7luiXPl9SWdJy6r68vW7d+S1VVdYeWuzQuEi9E+u6OLH2VSoWXlxdyuZy2tjZhCEies/Zjp1Ao8PBwHFVvMplEtozklZNI03Al1OQ8ps7j7Py5M9zKw78HvzoPxI3A2QNxM2j/cvj6+jJ8+HCio6PZsGEDly7luygIzi/etTain1ppaN9fDw8PJk+ezKJFi1Cr1ZjNZrZt20Z9fT2jRo1i2bJl9O7dm9bWVnbs2MHatWvZuXOniNW/8847ZGZmsmDBAiZMmMCjjz7K6NGjefrpp4VbWxJOOp2O3//+9wwZMkRYpVLBmaamJr755hu6devGo48+itVqQ6GQY7E4PDnFxcV8+ukn5Ofn06VLF2pra9m3bx8rV67EZDKiUDgIcwsXLmTatGlCGHl4eDBy5Ehx6qZ0TLRMJuPQoUN89NFHXLx4UShsdrujDkRUVBRyuZyioiLS09NZv349R44ccSmW5IyGhgaRLTJ9+nQGDBjAd999x+HDh2lubmbLli2cPesorGOz2aivr+d///d/0Wg0FBYWYrPZ0Gq1jBo1it/+9rcEBARcLrijorraEfOVzstoL2Sutz4kN/rs2bPFpm6xWCgtLWXHjh3k519qF9Pv+PRLyX3epUsXxowZg7+/P+vWreOjjz7CaDTSqVMnxowZI6qKSkW89uzZI/gj0j+bzUZRUZE4iv2nyrCSBOb1IFndEjegvXJwvQPRfipI4R1PT09sNps4ct357AipTxLp9npw9pxJns/21T+d68R4eXmRmprKyJEjxemomZmZ1NTUXtPtLyks0nvV0V4lQQr9te9jR/dJ7TY1Nbnwf6R+mEymDj1zHbXt/PuPMQLd+OnwX6lAwA9fdFL8V6lUkpjYk/Hjx1NbW8v27dtpaHCEEa5V/vhalszPASl22drayr59+0T1yfz8fLZt20ZdXR2FhYVcunSJS5cu8eWXX7J7927q6upc2jEajezZs4djx44xevRoRo8eTU1Njajyt337doKDg6mpqUGv1/PWW2+Rnp6OwWCgoaGBo0ePivj3p59+ypkzZ4iKihKETEe6ZguFhYVkZ2eLLIivv/6arKwsqqqqxKam0Wj4+uuvxbXgsC7XrVvHyZMnL8dqTSJme/z4cVH5U7LOZDIZ9fX1rFu3DqvVysGDB9m2bZtQPK5XZtlqtVJQUMDf/vY3cYZEa2srBw4c4PDhwy68DMm97IyGhgY+/fRTLl68iE6nE9ZibW0NR44cEYJGmj9wrI+GhgYOHDiAv7+/sKalMamrq2P9+vWcPHlSeGmsVivl5eXs3bsXo9H4vemTktBva2ujsLCAzZs3k52dzddfbxHZAhcuXGDx4sUEBgYCDsJtTk4OFy9e7JDPISnQP9br8GNxrWe+EeXsZqFWq+nevTsDBw6krq6Ozp07M2zYLZcLc7UKBeBafbke2offJDgrmxKfQiZzZJ6MHj2a/PyLbNiwgayszOsSun/oODjzJ9q342yoORtf7fvt/P+N9MftffjPwX9lCOOHQqFQ4OPjw8SJE+nVqxcJCQlERkby4Ycf8tFHHwkNu31lt45+/qUgbebe3t5YrVaRAy5tOAEBASL18fsgxcFlMhlNTU3IZI58d8nyv551dyPnH0h9lYoRSW1KFltHbdwokcr5XskS9Pb2vsqSutE2pO+Gjg+Oa58y3NH97XEt74NSqcTf3+9ypdTKn6QWxPW+Wxp/6WhySRBc63v/r5HZfg7rVVLYQ0JCCAsLw2AwoFDIaWpqpqSkxOUE0vb8g2uhvffyeuPsvO4UCgW+vr6EhYViNDqK432fl+PH4npj2v6z9mGjH4v/S2vv1wa3AnGT8PT0ZNGiRQwZMoSqqioOHDjA9u3bXaxHN9xwww0JzgLzWiGka+GnEI4/h7fFDTfArUDcFKTCOX5+fqhUKgwGA0ajUVSadL+gbrjhBnQcp7/e/tCRC/+HWuntv/vn8Fi54Qa4FYibgsT+7ujvzkQ1N9xww40fi5/Kze/2QLjxc8GtQPwE+L8WA3bDDTf+c/BTExvdcOOXgluBcMMNN9xwww03bho//mxgN9xwww033HDjvw5uBcINN9xwww033LhpuBUIN9xwww033HDjpuFWINxwww033HDDjZuGW4Fwww033HDDDTduGm4Fwg033HDDDTfcuGm4FQg33HDDDTfccOOm4VYg3HDDDTfccMONm4ZbgXDDDTfccMMNN24abgXiVwSZTIZKpRLHVX/ftUql8qbb/zFwvv/7+tce0vUKhQKFQvGD+yKXy8X97Q8d+qGQjiH/MbiR+52PT1cqlT/6O91www03fgzcO9CvCHK5HKvVilKpRKFQfO+1Fovle9uUlBJw1OZv364k0G8E0gmDMpnsew8e6+h0QpVKhc1mu+kzAhQKhXgGm82G1WpFLpejVCp/EgVCOkjthwh0mUyGQqG44XulcbNYLO7D29xww41/K9xnYfwKIQl9k8l0Q9d9nzBSKBTYbDYUCsU1lY6bPVDsRq6XlBPpOaT+2u12rFbrDxagzl4Ms9n8owWx5M2xWCwolUrMZvNNj4dcLkelUmG1Wr9XsZOu/Sn67oYD7gPx3HDj5qEAnvt3d8KNHw7JolcoFPTo0YNly5YRFhZKRsZxccx4e/j6+vLII48wc+ZMDhw4gMFguG77crmc/v3788Ybb5CQkEBGRgZms1lco1Kp6Nu3L48//jiBgYHk5uaK75XJZKjVarRarfA8+Pr6MnDgQIxGI62trYBDKHp5eeHj44PVahXeipiYGBYvXsy8efM4ffo0NTU14jNfX1+0Wq24/lqQy+WEh4dx333zGTduHOXl5VRVVV33Pskz4RyecA57OP8LCAjgwQcf5M477+TUqVM0NjaK7+3o+o7GNywsjLS0NHQ6HWVlZVcdGy8979SpU5k/fz7l5eWUl5df85mdx16lUgmFSVI4fgrPy38yrjVX1wpb/SeNx08VWnPDjZ8bNxcE/z8GhUIhNmLppbTb7cLV/58CuVxOYGAg3t7eVFdX09TUdMP3ShuNXC4nMjKSO+64Ay8vL9as+fCa13t4eDBu3Dji4+N4/vnr648KhYKwsDAef/xxRo8eTV5eHm1tbWi1WhQKBW1tbcjlMvz9/Rk/fjwqlYpPP/1UWNNRUVEMHDiQiIhwtm7dSlFRMRMnTmTZsmWcOXOGP//5z5w/fx6tVss999zDLbfcwt///nf27t2L2WxGo9Ewfvw4QkPDePfdd8nPz0ej0RAVFcWCBQtQqVS89957nDt3TghIpVJJUFAQZrNZhF169+7DlClTMRgM7Ny5k06dOonxkMIPMpkMq9WKwWDAZDKhUCgIDAyka9euInwiCWBnxSMoKIgxY8YQFxfHwYMHKSoqQqFQoFarrxpPi8VCeXk5Fy5cEOOrUChITk7iqaeeIi8vj7q6OnJycvD29sbDw4Pm5maMRiOenp4MGDCASZMmsXfvXjIzMzucM6VSiY+PD5GRkXTv3p3Q0FBaW1soLCwiJyeHysrKH2Vty+Vy7Hb7VW38p1jxEs/FWUF0fv8lOH8m4Zd+hpsN6f0njK8bbkj4VSsQVqsVlUpFXFw3YmK6CqFnMploamrizJkz32vF/RLw8vLi0ccepWePnrz99tts3779hu91tpCtVqsQgs5WjCTMpM1HqVRiMBhobm5BrdZ02KYEHx8f7rxzFrfeeitbtmzhnXfeJjq6MzNmzKSyspKNGzcKYatSqTAajWi1Wjp37kxqaiozZsygd+/eXLhwgdzcPC5ezOfChfNkZmYybdo0QkNDWb58OadPn0alUjFo0CACAwORyWTs3bsXi8UiQhgSVyA8PJx58+Zx9913c+rUKXQ6neBhaDQaRo0axYIFC7BarZhMJpRKJREREcTGxlJdXc3jjz8OgMFgcAmLGAwG8vPz+eKLLzhz5gxqtZp+/frx5JN/ICQkVCgQ7YWnQqHAz88PHx8fVqxYQVtb2zXnq7W1lR07drBixQr0ej0WiwVfX1969eqNj48PZ8+epbi4GG9vb2677TamTZvGnj17WLVqFTabDZPJdM0whzTnkZGR3H///UyePJmIiAi8vb0BqK6uZuvWrXz44YecOHHCxYt0M5AUFJVKRVtbm+jT94XMfglI3jgPDw8hmBUKBUqlUoS+jEYjRqPRRYHQaDRoNBqUSiV+fn54eHhQWFhIQ0PDL9JfiRwLriE26X02mUwYDIYfPGduuPFz4FerQEgu39/85jfMmjWLvn374uGhBcBoNNHY2MiqVat48cUX/+3eCKVSSUL3BPr160doaOhN3y9ZTZKAlTZGlUpFdHQ0w4YNw8fHB4vFgtVqxcvLi5iYGIKDg5k7dy719fWiLZvNRmVlJUeOHKGpqYlRo0YxZ85cMjMzWbFiBRUVlaSkpDB27K106qSjrq6OHTt2CM+OFHIYN24cvXv3pqGhge3bt7NlyxYR+sjMzOJPf/oTDQ0N/OY3v+GPf/wjv/vdIj777DMCAwN54IEHWLRoEXV1dbS2tmCzOZ7HYrHg4+PDzJkzufvuuzl79iwrV67kxIkT4vsdCmMcEyZM4NKlS5SVlaJWq7FYzOTm5qJUKgkNDUUm47IyIClYKqKju5Cfn8/BgwfJy8vDYrFw4cIFVq1ajaen52XexdXci06dOpGWNpmYmBg+/HANZWVl15wri8VCcXGJC68jKCiI1NQh6PV6jh49Sn19PcHBwcTFxZGYmEh6erqLwnAtkqzdbketVhMfH8+0adMwGo1s3boVvV5PSEgIAwcOZObMmfj4+PDCCy+Qm5sr7rvRdebj40O/fv3o06ePUKjkcjn5+fls374do9F4Q239XJDGoFevFEaOHEVQUBD19XWUlZULZa21tZWTJ0+SmZkp+CpSWK1Xr1706NEDs9nMG2+8QWZm5s9q9dtsNtRqNUlJSUycOBH/AH+qq6upr6vHbrfj4eFBly5dqK6u5uOPP6agoOBn64sbbtwsfrUKhFqtZv78+SxZsgSVSsWBAwe4cOECLS0thISEEBsbi4+Pj0uYoyN05DqUrH7n+67n+rxWG85/M5vNWK1WYWFILnWbzSaubS+4FAoFMTExDBs2DH9/f7p06YKHh5aEhAQWLFiAj48PXl5ezJ8/n4CAAKFAAOh0nbDb4bHHHnOJDZtMJg4fPkxrayv+/v489NBDqNVqVq9eTUVFBYGBgbS1tXH48BEeeOAB7rprNhcvXgQc1v/YsWMZOHAgdXV1rF+/nt27d3Px4kW8vLwICAigqakJm81Gfn4+b7zxBvX1dXTqpKO2tlZskr6+vvTs2ZOQkBCKiopcwlD+/v4MHjyYiooK3nnnHXbv3o3ZbBYpqZKVWV9fzxtvvMG2bdtQq9XCopMIoc7jKZfLiYiIYOHChQQHBwsPjt1u59y5c5w7dw6NRkNiYiKpqalCWZHg7e2DVqu9HD5R4e3t4zJPZrOZiooKMjIyKCkpcfnMw8OD3r17k5SUzJEjR8jMPHnZYxJOYmIiDQ0NFBQU4O3tLax+uVyOj48POp0OjUYj1oler8dqtVJeXsa6devYt28fBQUFtLW1odPpmDRpEr/73e9ITU2lf//+nD179oZJmDKZDC8vL0aPHs0dd9xBbm4uhw4dIjAwkEmTJtG7d29yc3M5f/78DbX3c8JkMlFZWYWnpydpaWl89dUmjh7dhMlkpnv37owaNYoRI0awevVq9uzZg0KhwGg0Ul5ejk6no0uXLvj5+aHRXO2d+zlgNptpbW0lLCyMwYMH849//IMjRw5jNJrw8/PD39+PESNGUFlZyQcffCA4QP8p4QznvtxoSMaNXwd+tQqEh4fHZSHqzfPP/4mvv/6ayspKLBYLXl5eBAYGIpfLhcB2dtt3FDd15k9IQqr935wFsbNyca32pL9JLnFnT4KzkLpW6qIk+GbPvpOePRMvCxZfUlJSCAoKwm63s2XLZtasWYOnp6ewGLUeWqZOmUpwcDAff/wxLS0ton2r1UpZWSk+Pj48+OCDYuO6++67mTlzpggDhYeH4+/vz7Bhw5kyZQoFBQVYrVYKCgr4+OOP2bdvL7m5Dr5EbGwsDz74IHa7nddff52amhqMRiP5+fm89dbbqFRKSkpKUSgUFBYW8sEHHxAcHExeXh5BQUHC2pbJZFRXV/Phhw5+hxTikMZIGj+z2Yynpydjxoyhc+fOqNVqURtDLpe7pFxK9/n7+xMTE4PRaBTXOK8JDw8PxowZw3PPPUdubi51dXXiM41GQ3R0Zzw9PZk4cQKtrVdCGEqlEn9/f/R6PS+++CJlZWUufdXpdIwcORJPT09OnjxJSUkpWq2G7t0T6NWrFzqdjv/5n//hgQceQC6XEx8fT2hoKA88cD9TpkwRylFNTQ3r16/n8OHDnD9/gQ8//JCqqirxDE1NTezZs4fRo0eTmppKQEAAdrtdZI1cDxKnoHv37sycOZOioiJWr15NdXU1Go2GpqYmpk6dSmRk5FUKREfpuD8FrteuxWKhqqqKgoICqquryc+/RHZ2Dmazmby8PEpKSli6dCmzZs3iwIEDmEwOj2RGRgZFRUUEBATQv3//7yUyXq8P1yNCdmRI1NXVUVJSQl1dLefPnycr65RY27m5uUybVkhISIjg4kgZRDeDm5kL573q+wjKAQEB+Pv7U1ZWRmtr6zU5Mm78+vCrVSA0Gg1hYWGcP3+ejRs3UlpaKj6zWCzU19d3mKXQnmTV/nNnzVr6rKO/dWQhOLfn/JlEOJTqCQAuyo0EKVVQgtVq5cyZM7zwwl/w9fUlOTmZRx99lKysLJ599lk0Gg35+flUV1e7KEpBQUHEx8ULN21FRYX4zOFdkREREUFJSQkFBQVYLBYCAwNpbGzEbDbT2NhIWVkZx48fp0+fPkybNo1t27ZhMBjYs2cP7733niCCenh4EBoaSmJiIi0tLXTv3p177rkHi8XCJ598IgiHOp2OWbNmMXbsWEwmE1qtFrvdhk6nIzExEU9PT1asWEFlZeVlhUBGWloa+/fv55tvvkGv17tkpKjVanr27CkUEMkDIZe3z4JwKBVqtZqgoCCKiopceA5Se1LbtbW1vPvuu+zdu1e0ERQUxMKFC+nWrRvLli1zWWudOnVi2rRp3HrrrS71HqT/Y2JiGDFiBGazmfr6eqxWK5066ejVqxdeXl7U1NTg6ekpvGW+vr4olUqCg0NQKJSiTYkca7fbMRqNgt9x5TkdcX61Wo3JZEKv17tkZFxvs7fb7fj6+jJixAgiIyNZuXIlVVVVKBQKDAYD2dnZxMV165A06qwsS8/9UwiXa7XrzAmSfler1Wg0GvF7cXExZ86cYdiwYcTExHDu3DmhNEp8hJstsgbfT3R0Nh7aX6tUKlGpVMhkcsAu5hSgtraWL7/8kpCQEBeyb0dGz4325fueQ1K27Xb7ddOKZTJHplSfPn3YuXOn2C/cysN/B342BeLfyRqWyRx5+VLKYHx8vNjUnd1rHYUuAgMDGTp0KImJiXh4eFBdXc3x48c5duyYi3U7ePBgUlKS+de/DtLY2MCwYcOJjY2lsbGB8+cvsHHjxqueXfIYjB49mqSkJOx2O0VFRXz++eciY0Dqn4+PDwMGDCAuLo5//etfZGdnX1WHwWazUVNTw/79+1EqlTQ3N2M2mykpKeHAgQPXHB+DwSCsyoaGhg4tmcLCIl555RU++ugjmpqa0Ov1tLS0iHGVQhxpaZMIDg6msrIShULhYtlKfQ0KCiIkJISsrCw6derEqFGj6NevH/379+eZZ54hNzcXjUZDcnIykydPpqCggNbWVtRqNQaDgcLCQjQaDUFBQQQHB2MwGPDw8GDgwIEYDAbBwbiiAMmpra3lpZdWsH37DpfNuD2kvnbt2pVFixYRHR3d4bxJc+/t7c348ePp2bOn+NzLy4uUlBQCAgKYO3euSxaNRqMhLq6bIMJJQsputxMQEMDtt08jPj6ewsJCLBYLarWa7t3jGTx4EAUFBSxfvpzMzEzhJZk/fz6TJk3ilVdeYceOHS4CxXku2z+vp6cnycnJdO/enbKyMrKyssTzf59larfbCQoKYtiwYRQVFQlegCTEqqqq2Ljxy2uut/ZKubOn7scoEx21Cwhl3G6/4rmTlHNJMW9qakKtVtOpUydxjRSWlObp+/rV0ec/9LmcibFW6xVuSXBwMDqdjgsXLlBbW3vNffVaGSbf199rPZfVar0hbphOpyM5OZkuXbq4ZCm58d+Bn02BcLYGJJdbYGAg9913H1OnTkWlUrFx40beeustjEajcMn9FAqHTCajvr6eXbt2MW3aNJYuXYrNZmP//v0uoQKpGI+E8PBwnn32WW6//XYqKyupr68nJiYGgL/97W+88sorwiKdMGECd955JwMGDCQ4OBhfX1+MRiO9evVCLpeTnJzM8uXLBUlLqVQyatQoli5dSnJyMsXFxTQ2NjJv3jzmzp2LXC67TNBzbMohISEsXryYUaNG8dZbb7F06dKrLAGpmqL0dyk+LtV1kDgSd999N1qtFpPJhFwhx9/Pj759+6LVannuueccVSmtFvR6PVmZWezevVuw1MeNG0fnzp1RqVSC2W42mzGbzahUKoqLi/nkk09QKpW0tbUxdeoUgoODqaurQ6vVClKfTqdj3bp1bN26lcrKSp599lmRJfCXv/yFQ4cOiRDIM888Q3p6Op6eni6hHKVSgUzm2OQTExN5+umn8fHxceEjSBu3Wq2mS5cYEhISI/YOvAAAIABJREFUUKvVovRze6tNWptRUVEEBga6CA5nxUG6VqlUEhYWipeX52VrEbRaLYGBgeh0OuLj413WsFKpJDAwEL1eL7I9pLFLTExk3rz5YsO22Wx4e3vTv/8AOneOZvv27WRmZoqwh8FgoL6+HpPJREVFhfActV/7zoqU1WpFo9EwcOBA7r//fjw8PNi4cSPnz5+/KnYtjUlHypafnx/dunXjm2++EURJaTwtFosgjiqVSiF4NBoNsbGxxMbGolarqa+vF2mkCoUCrVZL7969SU5Opr6+ntzcXPz8/Lh06RINDQ0kJiai1WrJy8ujtLRUWMVXMld6ERwcjF6vJzc3l4qKCvG5Ywwc82OxWFz2lk6dOhETE0NlZSWFhYVXCX1nrpDzuDpnO3l6etK1a1eioqJQq9VUV1eTk5NDQ0MDMpkMrVZLeHi4IGSaTCZKS0tpaGigR48e6HQ68V0nT550qtNhxWIxY7FY0Gg0JCQkkJKSIix7T09PunXrRteuXTEYDLS1tXH+/Hlqa2uJiYkhJiZGKJPZ2dm0tLSIuQoJCaFHjx506tSJsrIyTp065ZIx5OHhgb+/PwAtLS1ERkYSExNDS0sL586do7i42KWtwYMHM2nSJIYNG0ZlZSXl5eVUVFTQ3NxMdvZpioqKr1pHbvy68LOGMJzdwEqlkttvv53HH39cLNLk5GQaGvS8++57N1wO+UYgk8kwGAw888wzdOvWjZEjR5KSksK6dev4+OOPycvLc0k5k+oGLF26lKlTp/L+++/z9ttvU1VVxZAhQ3j++ed5+umnOXHiBOnp6eI7QkKCGTp0KF988QVvvrmSiopKxo4dy6uvvsrvfvc79u7dK0haffv25YknniA8PJzHHnuMf/7zn7S0tJCSksKLL77IqFEjuXgxH4XCkW7W2NhISUkJRUVFIq7cnrgppfVJ/WloaBAWblBQEA8++CDNzc088MADhIeHA2C1WjCbLdjtDkvhoYcWXhauDnf0li1bOHHiBFVVVQQEBDB9+nSioqKoq6vDZDKJQk9SKt/x48dZv349J06c4KmnnmLJkiX07t0bDw8P0ZeioiLWrl3LV199RVNTE/v372fOnDm8/PLLDB8+XHhDVCoVBoOBuro6amtrqa2t7XB+HS784MsZGjaXUIO07gICAvjjH/94U+vGYrEIy1waXymzIygoiG3btnHy5ElOnz7tkrkSFhbGU089Rc+ePZkzZ45LFoZCoSAkJIRu3bqRn58vlJKQkBDmzJmDh4cHRUVFYgwiIiIYOjQVg8FARkaG8MRI1r7kWnfm0DgT15wVZClrZdy4cTz99NOEhTlqaXz00UdCsDi3dS1IdTd8fX1d0hol5U7ySkmQy+V07dqVe+65h759+5KdnU1NTQ1paWkoFApWr17Nd999h0ajYcCAATzxxBNUVVVRWFhIcHAwbW1tFBYWEhAQQHx8PBkZGSxcuFAoxr169WL+/PlERIRz9uw5OneOQqlUsWrVKtLT011CBFarldbWVvGeeHt7M2HCBPr168eqVauEMnMjHgebzYZKpaR3717ce+8cIiIiOHXqFCaTiblz51JXV8ff/vY3cnJysNvtLuGrgwcP8tprr6HX64mKimLJksVotR787W9/48yZM+K9VipVJCUl09zcgkajYeTIkSiVCpF5Y7fbCQ0N5ZFHHiEpKYkNGzbw+uuvY7VaCQkJ4YknniAkJISXX36ZU6dOifDTmDFjuP3222lubqa6uop58+ZRW1vLypUrycrKwt/fnzvuuIN7772X2tpa8vPz6dKlC3K5nKCgIJqbm3jhhRfYt2+/WIcWi4Xz588TEhKCl5cXnp6e6HS6y+/irzY67oYTfrFZ7ty5MyNHjhTKAzgEwezZd/H++x/8pKmU0mZ7/vx5br/9dv7whz9wxx138Mgjj3D77bezavUqVq9ykMCk3OuhQ4cyY8YMvvjiC/7617/S1NSEQqHg8OHDrFy5klWrVjFnzhyhQBgMBiwWK9u3b2fFihXU1NQAsHfvHjZs+IxHH32McePGsXfvXjrpOjFz1kx69erFSy+9xCeffCLKHmdmZrJo0SK+/fZb/Pz8LsdBHW7hRx55xCVs0Z7w5uzdkdLQNBoNd911F5MmTcJsNjNnzhxuueUWnnvuOVJSUnj22WfZs2cPWq0Gm81GS0srPj7eLFiwgIcfXsTp06fR6/WifavVyqZNX3Lfffe7bMrh4eE8//zzREVFYTQa8fb2xmg08thjj5GbmyvS5SS35pUNUimKKT355JMkJyezfft2fHx80Ov1+Pn5MXr0aHx8fETMXqGQC2tSElrx8fF07tyZS5cuifFx9kTU1tby5ptv8vXXX4vDp5zbgSulsVUqFT4+Pjz88MN4eXmJz6R7evTowcsvv0JKSorgzkgeDelnKW6enZ3topza7XZaW1spKiriq6++4u9//zs2m42pU6cyceJEjh8/ztmzZxk7dqyw5L/++hu8vb359ttvqa+vd7HqnatiOqO9JwEcYYshQ4bw3HPP4efnx2uvvcYHH7xPQ0OjUDKcvTLXEqBarVakF0sKxNXhgiv3+vv7M2XKFG677TaWL1/OP/7xDwDi4uJ47LHHmDx5MidOnKChoYF9+/Zxxx13UFVVxdKlS+ncuTOLFy+mtLSUP/7xj9x6663ce++9JCUlcejQIbp168bcuXPR6/X88Y9/pLGxkbCwMBYsWMCSJUuorq4mOztbeAwCAwMZO3YsSqUSDw8PBgwYQFhYGO+99x7r168Xyoazd+96ClVkZBR33jmb7t278/zzz3P48GEABg8ezLJly5gyZQrZ2dkYjUaysrJYuXIlTU1N1NY6yJGNjY0cPXqUzZu3UFhYwEcffQxARETEZe9WGMOGDSM6Oho/Pz/i4+M5evQo4FAILRYLBw4cwMPDg+nTp3P06FEqKioEAXnz5s3U19fz4YcfIpfL8fX1Zfjw4UycOJFt27bxxRdfYDabSUpKYunSpTz++OMsWrSI+vp6Dhw4QK9evRg9ejQFBQU8/fTT5ObmMnDgQJYtW8Zdd93NqVMO5bmkpITi4mJOnz6Nr68vgYGBfPrppxQWFl5z7Nz49eEXUyDa2tpoampyOS9ALpdTWVn5s9VhkDgGS5Ys4csvNzJ//nzGj5/A0qeX0iOhB0uXPk1JiaNOQGJiIjKZjIsXLxIdHS0sOomcZrVaiYuLE0V5FAo5er2ezMxMEZt0bERWzp+/gEKhIDQ0FKVSia6TjqjIKAoKCvjuu++EUDWbzWi1Wmpra8nKymTo0KEu51JIbUrnVbQvUCSTyejRowezZ89m9OjRxMXF4ePjQ11dHQcOHGDLli0cOnQIpVLJoUOHGDJkCHFxcezcuZPa2iuuTT8/RzZFTU0N+/bto6WlRbC9rVYr/v4BwhqRXMQREREEBQWJ0MbAgQN5/fXX2bJlC48//jh1dXVCCMfHx9G7dx8KCws5dOiQIP4VFRWJDUd6zsjISJ544gmxJjoSapK1aDKZaG5uEUqVpDhKfayqqnLJlnBeF1LYABy59p07R9PQ0ICnp6eLBW+1ytDrGzhy5DB1dXUYDAaUSsXl9asQJbiTkpLw8/MjIyNDCFm73S4qecbFxdGlSzQeHlqRnldTU8Obb75JUFAQ48aNQyaTodfr+eqrr0R6ppQtJFm0vr6+qFQqdDodOp0OrVYrPjcYDDQ1NQmhHhAQwIwZMwgMDOCDD1bxwQfv09jYdE0y3/XIf0qlEqvNisF4pey5SqXCz0+Hn58/Xl5eWK1WqqqqaGpqori4mAMHDlBYWOgSamtubhaZI9IcG41GcnJyyM/PJzg4mMLCQjIyMqivr8NqtYhaCT4+PgwaNIi4uDhef/11mpqaxB6yZ88ebrnlFkaNGsWZM2fE+2s2m0Xop7S0lFOnTpGfn09BQYEg10qK1I2c8mowGLh48SJNTU1UVlYKz5fRaKS2ttYl9dNms1FRUcGFCxfo378fCQkJZGZmEhkZiVar5fDhIy5r0mKxUFBQwFtvvcXXX3+Nn58f06ffTvfu3V3mwmg0cvHiRWpra0WdkNLSUoKCgvD19WX37t1ibsPCwkhNTcVkMnHy5EnsdjsajYbz58+zdetWHnroIVJTU/n2228F+TYjI4M1a9Zw9uxZlEoljY2N1NTU4O/vj7e3t/C+OXu/lEolWq1G7BHSu+jmRPy68YsoEHa7nerqanbu3ElqaipxcXHIZFBeXs66det+tu+EK6TJ3bvTOXkykwkTJrB48WJuv/129Pp6HnvscRQKBUlJSfj4+PDb3/6W++67T2xuNpsNLy8vYUV4eHhgNptFBcfruT59fHwEkTM4OJjGxkYaGxuFteMc4lGp1MhkV6zB61l4EhQKBZGREYwcOZKgoCCKi4vx8vJi69atzJs3z2UscnJyKC0tYdy4cWzfvp0zZ84AjrjnpEmTGDBgAO+//z7Hjh0T90nM/SFDhrB+/frLm4RWKH+hoaGcPn3ahagmPY+Pjw9xcXGMHTuW2267jaioKNavX8/Zs2epra3Fz8+PGTNmoNfXs3nzFlHboLKykjVr1pCRkXHV0dvO/YqNjWX69OkirdQ5gwUcMfsnnniCxx57DHC44SWF0Pk6k8kkhLVWqyU/P194F+x2O1qtFovFwqpVq9FqtRgMbZf7IHlEbAQFBfHww4tITEzklVdeIT8/XyiJHh4e3HLLLTz44IP4+nYiIiKSiooKvv32WyorK9m1a5dIcdVqtSQnJ/PAAw/QtWtXJ9KlY12o1Y6YuJ+fH7///e+ZOXOm8CCYTCZOnTrFBx98ILgAOp2OqKgoGhubyMvLo7m5xeXdcP75WmtY4mzU1taiVqmJjIgUc+zh4cGQIanMmTOH/v37c+zYMd555x3S09PZuHEj6enpREZGMn36dPz9/QkNDSUlJcXFZe9Q+GRivJ2zkKTPJYXTx8eH+Ph4MV+dO3cWyqKUgRIZGelC8Gxububw4cNs2LDBZf04k0+l53TOHmj/zknrr7y8nFWrVuHv7090dDQDBgwQnIpu3bpx7tw5cb3dbqe5uZmLFy+SkpJCfHw8BQUFREdH09zcLDgFzmtb4oaoVCqam5s5deo0JpMZs9ki3gOr1UptbS0VFRWkpKQQExODwWAgISGB+vp6srKyxLV+fn6EhobS1NSIRqMmODjYxXOm1WqJjY0VY261WmlpaRFeNOcsES8vT9RqVYdrxHGd+/yO/zb8Yh4Is9nM7t27USgUDB06FJVKxf79+9m6dStwxR3/U8OZFFZbW8vnn39OS0sLL7/8Mmlpk1m58k0qKiqEdfTuu++Snp6ORqNxEd6SlSLlOUukt2v12bHhq8VmJZfLBflMastZ4EopcFJ7ksV2vTGxWq3k5Z1lxYoVlJeX0717d1599VWXa6RxPXfuHAcO/Iu5c+cydepUiouLaWtrIzGxJ/fffz9FRUVs3rz5qkqCFouF3NxcPvjgA1Ea3GazEhgYRFpa2lXfFRAQwPDhwxk1ahQTJ04gLi6e8vJyNm3axPbt22lpaRHKx+LFi7FYzBw8eIiW1hZMZhP19fUcOnSIb7755prPrVarGTRoEGPGjBHWrPOYNDQ0UFRUxI4dOygpKUEul6PRaAgMDCQ8PJyammqqqqrFXNix4+PtQ1JSkjh3QiI0jh8/nvvvvw+t1gOVSolKpRbCR2L6KxSO6paenp4sX77chZciuZEjIiKIioqie/fuZGZm8tZbb7F27Vp0Op0Im4AjXODn50dwcDA2m1Uw8iViqESU9fT0xN/fXwhXk8kkvBPSdxuNRk6dyqK0tJSysrIOBeL14v7SZ0ajkZKSEtra2kSBJbPZTHNzM/v27SM6OpqwsDD+8Y9/sGvXLpRKJV26dGHGjBkkJCRQUlLCxYsXyM3NJSoq6vL6dyZ7KlzSBiWlQuqn5ClwlJnWERkZydChQ+nZs6dQ9ry8vMjKyiIrK8vFeFCpVCI+bzKZxPsgZRl8n8fBeSwk6z05OZnbbruNkJAQSkqKyc3NIzs7m549e6JWq1wUXpPJRGFhIdXV1SQkJFBZWSm4E1I2VEcZFVK2iOSZaX/gnURITUlJoWfPnjQ0NBAcHERubp7LdVJp7vDwcCZMmEBbm0F4hPz8/EhPTycvL0+MvzOh1HmdXO4ZkpJwLbKtG/9d+EWZLvX19WzYsIHPP/8ctVrtIqx+TleXs1VjsVg4fvw4lZWV9OzZk86dO1NSUiI4DE1NTS5EOmdIgl6tVnd4JkJH10vZCa2trfj6+goXp7MSAqBWS8dUW25qU6uoqKCsrExYnO3PSZAsFr1ez86dOxk5ciQzZswgIyODsrIyli17hvDwcJ555hlOnDhx1bg5+Apl7N+/XxAwlUolkZGR9O/fn+DgYDEGGo2GMWPGkJqair+/P2fPnuWdd95h165dZGaeRK93uPY9PDxITOyJv78/58+fp7KyEm9vb2Q4TrYcP368KJrjXDtBglwup0uXLoSEhHDp0iWhQGi1WgYOHCC4GPn5+fj5+VFSUkJ1dTUjRoxgwYIFlJdXsHr1aoqKikR7np6epKamcssttxAXFyc2+IqKCo4ePYaXl1SI6+qKpD4+PgwePBh/f39Onz7tkjHgyAbpgpeXF5WVlRw+fIicnBxqamqwWCwoFAo8PR2E07a2Nk6cOMHSpUsv18G4YpHb7XYCAwOZP38+o0eP5o033mDnzp1ijABaWpqprq4R/SoqKmLlyjeRy+XU1dW5KMJSm9dbW87rp7y8nPz8fGJiYggMDBREUSl00tLSQmNjo2Doz5s3T2QQbdu2Db1eT2RkBElJiZcrdV5NAnX9XjngyKRwPsvCYDCKWP/Zs2fFfZLAdeafSCEMZ3d6e6X/ZgShXC4nNjaW+++/n8DAQP73f/+XgwcP0traSlJSEuPGjUMuv6LMSt9ZWVnJuXNnGT16jKhkeuHChWvuH9K8S+nSra2tqFQqkXIqEZoLCgqoqakmKSnpMt/ILvYuZ25HY2MjFy5c4PPPv6C6ulqE1iwWi1CWpXuc5729V89mc4T8rg137Yf/NvxbqLJ2u12kbn4f8/mHQCLZJSYmcvLkSWpra0WGgrTZBwYGUltbS2lpKRaLhYyMDGbPns3QoUPZunUrpaWlouiOXC7H399ftOH8HB0pPpLnQvIg1NXVcf78eSZNmsSgQYM4c+aMk/JkJyUlmdjYbpezG1RiTIKDg/H29qakpKTDMwYkV61kOUjKjbQhOhfKcpxBkcnnn3/OkiVL+MMf/kBTUxMjRoxg3bp1fPbZZ5jNZhdrXhI2/fsP4NVXXxVkPimsExcXJ8pYS+OuVCo5deoUO3Zs58iRo2RnZyOXyxk6dCgKhYIDBw4gl8vp3t2RXnn06FEMBgNeXl5YLGZ0Oh3Tpk1jzJgxInzRfpOXsjs6dfIV3yuTyQgPD+eRRxajUCh4+OGHGD58BIsXL2bDhg2sWbOGqqoqDAYDd955Jx4eHrz77jsUFRUTEBBAaGgodXV1+Pj4cN9992E0Gvnyyy8vV3Y8T+/evcUGLmVnSK5gPz8/YmJi8PHx5vz58+Tl5QkhrtFosFgs4qTOl19+hcrKSvEsEmNdEhhGo5FLly51uK4bGhqorKzEYDBQWlraIWHNeZycXfntK2teDx2FOGprazl48CATJkygR48eQoFwKJnmywLLcU9UVBRjxowhM/MkGzduFKXG7XaEAqZSKUVxLEk5kPrvbAnLZFfSho1GIzU1NQ5ekU53VQpi586dMZvNFBQUXFbeFaK9a72r0jNK1zkX5nK2ygFxZkVSUhJbtmxh7969WK1Wl+wfu90uSLXNzc3IZDJaWlq4eDGfCRMmMnz4cL766iuReSONobPl72zwSHPXpUsXUlNTOXbsGLW1tYJvcvbsOSZPnoxGo2HXrl2Ulpa6tNXc3Ex9fZ0IPTQ1NYnn8fb2JjY2lpaWFpEqbLdf6YsE6b0GmYsCLc3ZlUPeHGvY09OT4OAgWlpaBU/k59jn3fj349+aa/NzLSqFQkGvXr1YsWIFp06d4ty5cxQUFGC32+nWrRsjRowgLCyM1atXc+nSJWw2GwcPHuTgwYOMHz+eqqoq1q1bR2FhIdHRnenTpy8jRozgqaeeEtkZ0sYmbZ7OKZZKpVK4Xu12O3q9nr179zJ69GgeeughkS5ptVoZNmwYS5YsQafTuZAxAwMDefDBB0W62TfffHPVBugcApG8F85j6szcl7IBduzYzogRw0lLm4xCoSAjI4PXXnsVvV4vXMXgyu1obGwUKYhSXF6KrTqjra2NQ4cO8cILL1BSUiLCPbGxscyaNQtPT0/Onz9PQ0OD2Li++26/mDObzWFdffrppxw7dkyUoJaew5kPER0dzYwZM1y4Bv3792fAgAHs2rWL5uYWAgICxLkGRqOR/9/emQc3dd17/HuvpKur3ZI3bOMlYDBObIOxIYUHBGjyyKNkStr3/uhk+SPtTDNNl5eZNkn/65Ck0yl/dJr6ZZIZ0vQNfWlIoHHI1oQCGUOgGMsCG4yxDQYLbONFsmTt23l/yOfmSpa8xRvmfGY8CdLRPb97z73n/O5vO62trairq8OvfvUrPProozh+/Dhu3+7F6tWr8dJLL+H06dM4d+4cNm/ejGeffRYOhwMnTpxAVlYWfvjDZ1Befr90fegYU7lMJhNEUY1nnnlG2p2ULkg6nQ4KBZ9Qj4D+lioN8cXi6wVUnpIJpM66oPcYtRLI/fc8z2PdunX46U9/ClEU8de//hWffvqpVCNhus+e0+nEiRMnsG7dOuzatQvNzc1wOBxj6bxGqYqifDxEUSMFGNJ0wOLi4rHMiXxkZ2fD5XJJ26fLg4up8k3/PxQKweVywWq1YtOmTVKw5MDAAARBQHl5ObZt24ZTp05JZdV9Pr8UfOz3+xMW1mR3DlW26BjRt3OqoNPFnKYbU9dJ3IrEY9myXGRlZaGzs1M6z7Nnz0pjQ1Oy8/LycOPGDcmVJ7eMUAtKMBhMyLbKysrCzp07UVRUhPr6euk8RkdH0d3dDUEQkJeXh+7u7gQLUywWw8DAADo6OrFjxw5s3boFAwMD8Hg8UjG8ysoKfPjhUcnaSJWARMtDTFLi5BYeuXJH3URAPOOutrYWZ8+eTVCWGUuPJZmsG4vFN2vq6+vDzp07sHv37oQb326344033sDrr/8PAoEAVCoVuru78ac/vYaf//wXeOKJJ7B7924MDw9Dr9dDq9Wivb09YUGm5XFVKmHcZEwnBlGku38GcerUKbz55pv40Y9+hFdeeQXPPfccfD4fDAYD/vWvf0GpVKC4uERaGPR6PTZs2IAtW7bgzJkz+PTTTyc972g0UcGQKzYKhQKFhYX4/vf/E1VVaxEKhaDValBSUoy9ex/HO++8g76+voQJE4i/DbW3t+P3v/893G63FAdRXFwMjUaDwsLChMWQWltovQJq4s/Pz0MsFi/eVVJSgurqang8Hly92iG5ejgunoVAy1Oni4sRBAEbN27Eww8/LMlqMBiwc+dORCIR/POfxxL893S76VgsBqvVildffVWKRaCFrmpra9HS0oKTJ08iNzcXP/nJT/DjH/94LF2tB3/4wx9gNJoSFneKxWLBD37wA5SWlqKurg52u11qQ4s47dmzR7KcJFtTgsGAFAswFbdYun/LFY74fiV5eOihh6BUKmGz2fDZZ59NePxUn9OxoUGa77zzf3jqqafxm9/8BqdPnx4b23x89NFHUgDhjRs38Le//Q179uzBL3/5S7S3tyMvLw95eXmwWCxYvXo1OI5Dc3MzLBYzVqxYgb6+PlRWVuLBBx9EdXU1+vr60NPTg+rqaqxcuQIbN25EU1MTbDYb6uvrsWfPHvzud7/DjRs3oFarodfr0djYiM7OTmi1WqxdW4WtW7eMLWbxqqdtbW3w+XzjzpGme65evRqFhYXYsGEDysvLsWPHDmmPh66uLoRCIVy8eBFnzpzB9u3b4Q/40Xu7FwUFBcjNzYUoinjkkUeg0Whw7ty5BLfMyMgIrFYreJ5PcF9wHAedTos1a8pQVVWFlStXYvv27VLwak5ODh56aBtqazfgyJEjkpuIxrjcvHkT7e3tCAaDsNvtCdYD+jydPHkSZrMZjz/+PWzatBm9vb3QarVQKhX44otj6OnpgdlsRnV1NWpra6HTxa/frVu3QAjBmjVrUFZWBpVKhU2bNuHYsWNwu90AgKGhIZw7dw5r1qzBL37x87EgZBUuXLggWciY9WHpsiQVCJ7nYbVa8fTTT6OiogKFhcuhVMZTIUdHR9HS0oL29nbprYRq+ydPfonOzi6sW7d2LMI7/vbU09ODS5daEQqFJJ/vZ599hs7ODjQ3W6WUNPpG0tTUhJdffhnt7e1SJUqHw4G3334bVqsVlZUV0Gp1iMVisNvtaGhoQG1tLYqKCqWtqfv7+7F//3689957OH36tKQETGSKTWehyMvLw+7du/HUU0+hpqYGnZ2dkp/9pZdewr59+/Doo4/i8OHDqK+vx507d2RR8EAoFMTAwICkjNCYAZpiSPm6SqNOisMQRRElJSUoKFgOm82GYDCI8vJymM1m2Gw2yeQKDlCqlJLrJ943l6BEfK3YJAYB6vV6VFQ8gB07duD69es4fvyENE6xWAwFBQWwWOLbJEejUTQ3N0vlmLOzs7Ft21aEw/FgN6fTiQ8//BAajQYajQYulwsul1tKuaMKgDzOpKCgAA8//DCKiorQ2NiYEEuiUChgs9mkfH2PxzNujGKx9H74ZL90cvwCVVTksRJA3BpktTbj4MGDyMzMxMmTJ6UxolaIZDlSIR8Pt9uNjz/+BB0dndiwYQPMZjOcTicOHjyIrq4u6V4fGhrCG2+8AavVilWrVklxKF9+eRKEANXV1QgEAmhubkZ5eTnq6uowPDwMURRx7do1vPvuuxgcHITRaMCVK1dw58408VXwAAAPUElEQVQdDA0NSXuDHDp0CE1NTaiurobJZILX60VbWxva2tokd5goatDWdgVtbW1wudxSPRH5edL7KZ7KbEZxcTGMRiOsVitaWloQDAZRXFyMWCwKu90Oj8eDrq4u/PGPf0RNTQ1ycnKg1WrR1taGo0ePwmIxY/36GvT396OhoUG6foQQKfj4SvuVhPiRuEIugOfjNWfOn2+Ez+dHfn4+eD5exOzq1Q6cP9+Er776KuGZiMViuHXrFt566y0pU0Z+3wBx12VHRwfeeusAmprOo7S0FADQ1jaAlpYWdHd3IxqNQhAE+P0+fP7552MB5V4pDiccDuP999+X6lDQ5wKIp7V+9dVXGBkZQVVVFSKRMDo6OnHhwgWEQiHmvrgHIPfqn0KhICqValrteZ4nAAjHcRO2EwSBKBQKwnEcEQSBqFQqwnEc4ThOOka6P47jiEqlIiqVigiCQHiel34n/y3P86SkpIS8/PLL5OOPPyYtLS1kdHSUvP32n4lKpSIbNmwg+/btIzZbM/H5fGRkxEkOHDhA1q1bR3ieJ2q1mnz72zvJkSNHSCQSIYFAgFy+fJns27ePlJSUkM2bN5NLly6R9957j6hUKnL//feTgwcPkn/84x/kwgUbcblc5NChd0lZ2Wry4IMbSVNTE/H5fKSjo4O0trYSm81GWltbye3bt0lfXx958cUXyPLly8lvf/tb4nA4yP79+wnP80QQBJKbm0vq6urIxYsXyY4dOwjHcUSpVBKe50lGRgZ5/vnnycmTJ8gHH3xA/v73vxOr1UoGBwfJgQMHSHFxMdm2bRupq/sT2bt3LwFAlEolqampIefOnSNOp5OcOnWKfPDBB+To0aOkvr6e1NfXk2PHjpHLly8Tl8tFvvjiC1JZWSldV4PBQAwGA1GpVEShUEj3ilKpJCUlJeSFF14ghw8fJm+++SY5dOgQsdvtpLGxkaxfv14aQzpWPM9Lv6X3AP2zWCzkxRdfJNeudZEnn3wi4bfydjzPk9zcHPLqq6+QlpYWsmvXrrT3Er03eZ4nGo2G6PV6olQq5+QZoveqIAjS+U3Wfqb9JH/G8zxRKpWT9kuv4UTf0zGaSjs6NhPJyHEcEUWR5OfnkRUrVpCKigry3HPPkccee4yIojjj65B8PqnmhcXwJ7+HF1oW9jd3f0vSApEKuf+T/hsYv6EWN5b6JQ8mpG958qyJdFq13MdKYw9o3QS6FwKAhFoDcrmoL5L+Rn7cVNA37F27diEcDqG9/Sr+8pf/hSAI2Lp1K379619LG069/vrraGhokPa5CIVCaGg4hcbG83j88cfx7LPPoqqqCpWVlQkFiugbrsPhQHZ2FrZvfwg+nx82mw3vv38YPT129Pffwf79+/Hkk0/igQcekAIuo9EoWlou4vPPv8CRI4cRjUZhNBrhcDikkr/0PKgfnO6cSN+yOI6DyWTCli1bpfOORCK4dOkSPvroI/T39+PmzZtoaGiQrlkkEkFXVxdee+01/OxnP0NpaSkqKirGAvbi2RQ05fPYsWPYv38/WltbpWudytRNxzQcDiM3Nxff/e53pe8GBwdx+PBhqfiOPCZBnrFDx5q+RdL7Lb4r6NfblqeCkPhfOl++XE7ab3LxsW8KlZf2Q3346XZglJvU5c8FtabJr9NEpGqTKo1aHgyZfJ1o+mbysej38mDKyfpNdW5AooUqNzcXzz//3/jOd/bAZrPh+PHjaGxsHBcQTQNJ5UGU6erLJI/5ZC4veR/J10R+DeWfTzQmk1kUkseasbThENckljxy07fcV0wf2GTlYio3f6p29Lh0kk2uLJlsgk71oKVbQOh38kmT7iRZUlIiba1Myy2r1Wrs3bsXfX19aGhokNIGqStCHrsAxDcZWru2Cnfu3EF7+1VotVpUVFQgEAhIxX9oHQL5BlPJ10E+WUUiEcm1QxcPlUqFoqIiKUceiLs6ampqsHLlSnz55Zfo6elJWGxzcnJQXV0NGuXu8XjQ39+Pa9euSSZ5mh1BffZUARIEAXq9DgAnuTXkE7R8jJKzUOTQvgkhKCgoQFlZmZSme/v2bXR2do7bMTX52sj904TEq2DW1NSgtLQUZ86cwdWrV8dF51NEUURVVRVWrVqFhoYGKQ01XV+LkeQFdzFDZU0OdpysPRA/P7PZjO3bt2Pz5s2w2+345JNPpAybu2mBnaq7S97+bjk3xjfjnlEg5BO3/DP5g/xNbvp0D1mqt8WJFISpMJUHOHkho8itCnLkpYVpO/lkSZUCaoWZybVKtrikk5Gew3T6kCsbCoVC8scnK1y0Lf1vcuXDqfST7vy5sYBD2ne6Nsmk2uMEGK9ApFI0k5WT+Zq4p6MIJJ8zHRcuKXtkMZBqnqAkPzfJyiAwfuxmWt8mvRVq/q9VqpcuBgO4hxWIVG+Xs3H86RxvMpnSwR7g9HzTRXQi5W42rns6q1WqhWky5SCdMjjXTKTUpGsrV6Llpv/kYyz0vZ0sG5BoLUzXVn5uqdrORA75f+WyzNU1mkj26Yw5497hnlMgKIvlIZjuhMPMg/PLfEycU1Egktst5IQ+k77TneN0jjFfTGeumKqyNx+yzDVs7mEkc88oEAwGg8FgMGaPaWVh5K6pQkbJKkRDQUT8PgRHR+DutcPrGJwr+RgMBoPBYCxCpmyBMOUXIX/95pTfBd0jGO5qg6u3J+X3DAaDwWAwlhZTViBKd+6BSqufsE3Y58Vo7034XQ6EvB6EvB7Eoqmj7BkMBoPBYNy9TEmBMOTkY/nGbTPqIBoKIuRxY6TnGkZu3ZjRMRgMBoPBYCwupqRA5FdtgKlo5TfuzO8YgP38aUTDockbMxgMBoPBWLRMqXqONit3VjrTWHJQvGkHuCkW7WEwGAwGg7E4mXQlV4maSWMfpoPaaMbymn+bteMxGAwGg8GYfyZVILSW7FnvVJ9bgPy1G2f9uAwGg8FgMOaHSetAaDIy56RjU+EKqDRa9LdaEfSOzkkfDAaDwWAw5oZJgyhLNu2EJjNnToXwDw8g5PMgGgpO3jgJEosiOOpGwO1E0MMUEQaDwWAw5oNJLRAqnWHOhdBk5syKkhL2eeCyX4fPMQjvMKuOyWAwGAzGXDGhAqFQCVCKmvmS5Ruj0uqRVVYl/TvkcSPs8yDs8yLs9yLk9cAz1I9Ymi2kGQwGg8FgTI0JFQjRaJovOeYEQW+EoDeO+3y09yb6L9sQCQYWQCoGg8FYPKj1Rqj1Rgg6PTieR9Djhmegn1URngN4hRJaS1bCZ5FgAAH3yAJJ9M2YUIFQ6+9uBSIdhvxiaLPycOdS04z27+AVCohGM3hl/PKF/T4EPe7ZFpPBYDDmDENuPpZV1kIpasd9Fw0FMdx5GcPdHQsg2dJDn70M5uJS6JctT9sm6HYiMDKMaDiMsM+DgHsEPufwPEo5fSYMosyrqEFGyap5FGf+Ge3tQf8lKyKTBHAqVAKMy5ZDn5uf9iYI+zzwDd3B8PV2FtDJYDAWJYJWj5w1lTDkF0/a1mW/jt6LjfMg1dJDqVbDkJMP831lUBsz5qSPWCSM0KgbhMSm1D7odiIWjU7YRm0wgVeqJjkSQcjrmViBKP7Wdmizlk1JsLuZaCiI0d4euPvsUjaIoDNA0OkhGjMgmizQZuWC4xVTPubQ1VYMX7/KzIAMBmNRoFSLyF51PzJKVk/rd46uNtxpb5kjqRYPar0B+px86LKWQZeTl7JNyOOWsgVjkTCCo65xbTiOhzYrd86UhsXEhApE6c7HoNLq5lGcpUU0FMTQ1VZ4BvsQ8nln7bhKQQ2tJQuxaBSiMQMKQf31l4TAM9gP7/DArPXHYDDuHpRqEab8IikAXqXRQtAZoDZZZnzM/ouNcNqvz5aIiwpdZg4yV66BLid/oUW560irQPAKBcr+47/mWZx7j6DbKWWFRAI+hP2+cW04nofaYALHK6CcYmlxEo3C7xjE8PV2eAb7Z11uBoMxHq05C6LRBJVGB3Cc9HnY5x2zbobgdznmpO+5XggHLjfPSUwEr1AgY/l9MBYUQ5NU+TgWCSPsHUUsGkXI44bfOQSfc2hSF7FSrYbWnA1CYtCYLOAU463HKo0WoskyL6UKlippFQiNyYySrbvmWRzGXBDyuOEbugPPQB9GB3rnpA/RYEqZ8ktiUfhHHJP63ZJRqkXoMnMgmswQjeaUE8BMCXlHxxctIwRhvxfBUTe8DlZDhDE9LMUrkbnqgZQBiekIeVyIhhJ3Jo4E/Aj7vfHnxumA1zEwadq5uXAFzPetgtponpHs08HvGMRQ5+VZeSlRqkVkriiDqXBFohV1GkQCfkSDASjU6mlde8bskFaByFhegrx135pncRjzTSwSRsjjRmDEgRF795TfjhQqAbrMHOhzlkG/rHDSCSDoHon3RRfvsQU7HPBD0Ooh6AyIRSMQdAaIGZYFnQwiAT+Guy7DcaNrwWRYCHSZOcgoXAExwwKVVifF/EQCPvgdgxixdzNrVhIqUYuC6m/NebXeaDCAsM+bECzHK1UL5mcnsSiC7hGQ2NfyhH1e+EeGEfKOIhYJj8sgUIlaCDo91AZTfO7IK5xvsRmzTFoFIqesApmrKuZZHMZCE/Z54ulELicCSRMEx/FQG4zQZS+7J4Jr/Y5B3LadTelWWkoo1SLyKmsnTDGjkGgU7ts34B3qR8A1sqD72GjNmdCYM6E2ZEBIMkPHFzgXXLdvzpnLwFK8Etnl66YQsc5gLE3SKhDL12+aUpoPg7GUiUXCGLxyAY6b1xZalDnBlF+E3IqaGZuQZ4NoMIAQVUQIQcDlBCExyWLFcTxUWj14pRIcz0M0WSCm8WunIhLwITDiwGj/LYzcujFjORUqFdR6I7SWbBgLSu6JKHsGYyLSKhD3bXkE4hztxMlg3G0EXU6M2K/D7xxC0Dsq+aUFrR6iKQOxSARaSxY05qy0wa4kGkXI40LA5YTfOQyfY3BKb/AKlQCtJQvasQAzQauHQi0mtImGgvFFmBAE3E54hwYmrG0iGkzIKV97T0aeU3daOniFEmrT3McTMBh3O2kViNX//j0oBGGexWEw7i2ioSBCoy4ER0fGBZoKOgPUBtOMo8TDPi9CHhdCHjcIIeA4DiqtHoLeAGGJVpllMBjzR0oFQqkWseqRvQsgDoPBYDAYjLsBPtWH6hQbUDEYDAaDwWBQUioQIgsOYjAYDAaDMQGpLRBMgWAwGAwGgzEBqRUIAwuwYjAYDAaDkZ6UCoTAYiAYDAaDwWBMwP8DRSX0lXKUGqsAAAAASUVORK5CYII=;" parent="1" vertex="1">
          <mxGeometry x="1520" y="-240" width="528" height="362" as="geometry" />
        </mxCell>
        <mxCell id="C4zlomJ-OiE5PHFrh7Xk-1" value="URougeAbilitySourceInterface" style="rounded=0;whiteSpace=wrap;html=1;" vertex="1" parent="1">
          <mxGeometry x="-310" y="520" width="360" height="60" as="geometry" />
        </mxCell>
        <mxCell id="C4zlomJ-OiE5PHFrh7Xk-2" value="UInterface" style="rounded=0;whiteSpace=wrap;html=1;" vertex="1" parent="1">
          <mxGeometry x="-310" y="360" width="360" height="60" as="geometry" />
        </mxCell>
        <mxCell id="C4zlomJ-OiE5PHFrh7Xk-3" value="Extends" style="endArrow=block;endSize=16;endFill=0;html=1;rounded=0;exitX=0.5;exitY=0;exitDx=0;exitDy=0;entryX=0.5;entryY=1;entryDx=0;entryDy=0;" edge="1" parent="1" source="C4zlomJ-OiE5PHFrh7Xk-1" target="C4zlomJ-OiE5PHFrh7Xk-2">
          <mxGeometry width="160" relative="1" as="geometry">
            <mxPoint x="-200" y="500" as="sourcePoint" />
            <mxPoint x="-40" y="500" as="targetPoint" />
          </mxGeometry>
        </mxCell>
        <mxCell id="C4zlomJ-OiE5PHFrh7Xk-4" value="Text" style="text;html=1;strokeColor=none;fillColor=none;align=center;verticalAlign=middle;whiteSpace=wrap;rounded=0;" vertex="1" parent="1">
          <mxGeometry x="-443" y="540" width="60" height="30" as="geometry" />
        </mxCell>
        <mxCell id="C4zlomJ-OiE5PHFrh7Xk-5" value="URougeAbilitySystemComponent" style="whiteSpace=wrap;html=1;" vertex="1" parent="1">
          <mxGeometry x="-170" y="710" width="260" height="60" as="geometry" />
        </mxCell>
        <mxCell id="C4zlomJ-OiE5PHFrh7Xk-6" value="" style="endArrow=open;endFill=1;endSize=12;html=1;rounded=0;exitX=1;exitY=0.5;exitDx=0;exitDy=0;entryX=0;entryY=0.5;entryDx=0;entryDy=0;" edge="1" parent="1" source="C4zlomJ-OiE5PHFrh7Xk-5" target="cDjMF4OTFLS3c3BJaFkV-1">
          <mxGeometry width="160" relative="1" as="geometry">
            <mxPoint x="180" y="730" as="sourcePoint" />
            <mxPoint x="340" y="730" as="targetPoint" />
          </mxGeometry>
        </mxCell>
        <mxCell id="C4zlomJ-OiE5PHFrh7Xk-7" value="ARougePlayerController" style="shape=umlLifeline;perimeter=lifelinePerimeter;whiteSpace=wrap;html=1;container=1;dropTarget=0;collapsible=0;recursiveResize=0;outlineConnect=0;portConstraint=eastwest;newEdgeStyle={&quot;curved&quot;:0,&quot;rounded&quot;:0};" vertex="1" parent="1">
          <mxGeometry x="-110" y="1430" width="220" height="960" as="geometry" />
        </mxCell>
        <mxCell id="C4zlomJ-OiE5PHFrh7Xk-12" value="" style="html=1;points=[[0,0,0,0,5],[0,1,0,0,-5],[1,0,0,0,5],[1,1,0,0,-5]];perimeter=orthogonalPerimeter;outlineConnect=0;targetShapes=umlLifeline;portConstraint=eastwest;newEdgeStyle={&quot;curved&quot;:0,&quot;rounded&quot;:0};" vertex="1" parent="C4zlomJ-OiE5PHFrh7Xk-7">
          <mxGeometry x="105" y="100" width="10" height="110" as="geometry" />
        </mxCell>
        <mxCell id="C4zlomJ-OiE5PHFrh7Xk-19" value="" style="html=1;points=[[0,0,0,0,5],[0,1,0,0,-5],[1,0,0,0,5],[1,1,0,0,-5]];perimeter=orthogonalPerimeter;outlineConnect=0;targetShapes=umlLifeline;portConstraint=eastwest;newEdgeStyle={&quot;curved&quot;:0,&quot;rounded&quot;:0};" vertex="1" parent="C4zlomJ-OiE5PHFrh7Xk-7">
          <mxGeometry x="105" y="260" width="10" height="80" as="geometry" />
        </mxCell>
        <mxCell id="C4zlomJ-OiE5PHFrh7Xk-21" value="" style="html=1;points=[[0,0,0,0,5],[0,1,0,0,-5],[1,0,0,0,5],[1,1,0,0,-5]];perimeter=orthogonalPerimeter;outlineConnect=0;targetShapes=umlLifeline;portConstraint=eastwest;newEdgeStyle={&quot;curved&quot;:0,&quot;rounded&quot;:0};" vertex="1" parent="C4zlomJ-OiE5PHFrh7Xk-7">
          <mxGeometry x="105" y="390" width="10" height="40" as="geometry" />
        </mxCell>
        <mxCell id="C4zlomJ-OiE5PHFrh7Xk-22" value="CreateLevelUpUI()" style="html=1;align=left;spacingLeft=2;endArrow=block;rounded=0;edgeStyle=orthogonalEdgeStyle;curved=0;rounded=0;" edge="1" target="C4zlomJ-OiE5PHFrh7Xk-21" parent="C4zlomJ-OiE5PHFrh7Xk-7" source="C4zlomJ-OiE5PHFrh7Xk-19">
          <mxGeometry relative="1" as="geometry">
            <mxPoint x="110" y="370" as="sourcePoint" />
            <Array as="points">
              <mxPoint x="140" y="320" />
              <mxPoint x="140" y="400" />
            </Array>
          </mxGeometry>
        </mxCell>
        <mxCell id="C4zlomJ-OiE5PHFrh7Xk-23" value="" style="html=1;points=[[0,0,0,0,5],[0,1,0,0,-5],[1,0,0,0,5],[1,1,0,0,-5]];perimeter=orthogonalPerimeter;outlineConnect=0;targetShapes=umlLifeline;portConstraint=eastwest;newEdgeStyle={&quot;curved&quot;:0,&quot;rounded&quot;:0};" vertex="1" parent="C4zlomJ-OiE5PHFrh7Xk-7">
          <mxGeometry x="105" y="480" width="10" height="200" as="geometry" />
        </mxCell>
        <mxCell id="C4zlomJ-OiE5PHFrh7Xk-24" value="PrepareLevelUp()" style="html=1;align=left;spacingLeft=2;endArrow=block;rounded=0;edgeStyle=orthogonalEdgeStyle;curved=0;rounded=0;" edge="1" target="C4zlomJ-OiE5PHFrh7Xk-23" parent="C4zlomJ-OiE5PHFrh7Xk-7" source="C4zlomJ-OiE5PHFrh7Xk-21">
          <mxGeometry relative="1" as="geometry">
            <mxPoint x="110" y="460" as="sourcePoint" />
            <Array as="points">
              <mxPoint x="140" y="410" />
              <mxPoint x="140" y="490" />
            </Array>
          </mxGeometry>
        </mxCell>
        <mxCell id="C4zlomJ-OiE5PHFrh7Xk-32" value="" style="html=1;points=[[0,0,0,0,5],[0,1,0,0,-5],[1,0,0,0,5],[1,1,0,0,-5]];perimeter=orthogonalPerimeter;outlineConnect=0;targetShapes=umlLifeline;portConstraint=eastwest;newEdgeStyle={&quot;curved&quot;:0,&quot;rounded&quot;:0};" vertex="1" parent="C4zlomJ-OiE5PHFrh7Xk-7">
          <mxGeometry x="105" y="730" width="10" height="40" as="geometry" />
        </mxCell>
        <mxCell id="C4zlomJ-OiE5PHFrh7Xk-33" value="ProcessLevelUp()" style="html=1;align=left;spacingLeft=2;endArrow=block;rounded=0;edgeStyle=orthogonalEdgeStyle;curved=0;rounded=0;" edge="1" target="C4zlomJ-OiE5PHFrh7Xk-32" parent="C4zlomJ-OiE5PHFrh7Xk-7" source="C4zlomJ-OiE5PHFrh7Xk-23">
          <mxGeometry relative="1" as="geometry">
            <mxPoint x="110" y="710" as="sourcePoint" />
            <Array as="points">
              <mxPoint x="140" y="640" />
              <mxPoint x="140" y="740" />
            </Array>
          </mxGeometry>
        </mxCell>
        <mxCell id="C4zlomJ-OiE5PHFrh7Xk-35" value="" style="html=1;points=[[0,0,0,0,5],[0,1,0,0,-5],[1,0,0,0,5],[1,1,0,0,-5]];perimeter=orthogonalPerimeter;outlineConnect=0;targetShapes=umlLifeline;portConstraint=eastwest;newEdgeStyle={&quot;curved&quot;:0,&quot;rounded&quot;:0};" vertex="1" parent="C4zlomJ-OiE5PHFrh7Xk-7">
          <mxGeometry x="105" y="810" width="10" height="90" as="geometry" />
        </mxCell>
        <mxCell id="C4zlomJ-OiE5PHFrh7Xk-36" value="AssignAbility()" style="html=1;align=left;spacingLeft=2;endArrow=block;rounded=0;edgeStyle=orthogonalEdgeStyle;curved=0;rounded=0;" edge="1" target="C4zlomJ-OiE5PHFrh7Xk-35" parent="C4zlomJ-OiE5PHFrh7Xk-7" source="C4zlomJ-OiE5PHFrh7Xk-32">
          <mxGeometry relative="1" as="geometry">
            <mxPoint x="110" y="790" as="sourcePoint" />
            <Array as="points">
              <mxPoint x="140" y="760" />
              <mxPoint x="140" y="820" />
            </Array>
          </mxGeometry>
        </mxCell>
        <mxCell id="C4zlomJ-OiE5PHFrh7Xk-8" value="Actor" style="shape=umlActor;verticalLabelPosition=bottom;verticalAlign=top;html=1;" vertex="1" parent="1">
          <mxGeometry x="-480" y="1530" width="30" height="60" as="geometry" />
        </mxCell>
        <mxCell id="C4zlomJ-OiE5PHFrh7Xk-9" value="TestAction" style="html=1;whiteSpace=wrap;" vertex="1" parent="1">
          <mxGeometry x="-360" y="1535" width="110" height="50" as="geometry" />
        </mxCell>
        <mxCell id="C4zlomJ-OiE5PHFrh7Xk-10" value="" style="endArrow=open;endFill=1;endSize=12;html=1;rounded=0;exitX=0.5;exitY=0.5;exitDx=0;exitDy=0;exitPerimeter=0;entryX=0;entryY=0.5;entryDx=0;entryDy=0;" edge="1" parent="1" source="C4zlomJ-OiE5PHFrh7Xk-8" target="C4zlomJ-OiE5PHFrh7Xk-9">
          <mxGeometry width="160" relative="1" as="geometry">
            <mxPoint x="-410" y="1650" as="sourcePoint" />
            <mxPoint x="-250" y="1650" as="targetPoint" />
          </mxGeometry>
        </mxCell>
        <mxCell id="C4zlomJ-OiE5PHFrh7Xk-11" value="Input" style="edgeLabel;html=1;align=center;verticalAlign=middle;resizable=0;points=[];" vertex="1" connectable="0" parent="C4zlomJ-OiE5PHFrh7Xk-10">
          <mxGeometry x="-0.0667" y="2" relative="1" as="geometry">
            <mxPoint as="offset" />
          </mxGeometry>
        </mxCell>
        <mxCell id="C4zlomJ-OiE5PHFrh7Xk-13" value="" style="endArrow=open;endFill=1;endSize=12;html=1;rounded=0;exitX=1;exitY=0.5;exitDx=0;exitDy=0;" edge="1" parent="1" source="C4zlomJ-OiE5PHFrh7Xk-9" target="C4zlomJ-OiE5PHFrh7Xk-12">
          <mxGeometry width="160" relative="1" as="geometry">
            <mxPoint x="-140" y="1559.76" as="sourcePoint" />
            <mxPoint x="-35" y="1559.76" as="targetPoint" />
          </mxGeometry>
        </mxCell>
        <mxCell id="C4zlomJ-OiE5PHFrh7Xk-14" value="Input" style="edgeLabel;html=1;align=center;verticalAlign=middle;resizable=0;points=[];" vertex="1" connectable="0" parent="C4zlomJ-OiE5PHFrh7Xk-13">
          <mxGeometry x="-0.0667" y="2" relative="1" as="geometry">
            <mxPoint as="offset" />
          </mxGeometry>
        </mxCell>
        <mxCell id="C4zlomJ-OiE5PHFrh7Xk-15" value="AGameManager" style="shape=umlLifeline;perimeter=lifelinePerimeter;whiteSpace=wrap;html=1;container=1;dropTarget=0;collapsible=0;recursiveResize=0;outlineConnect=0;portConstraint=eastwest;newEdgeStyle={&quot;curved&quot;:0,&quot;rounded&quot;:0};" vertex="1" parent="1">
          <mxGeometry x="330" y="1420" width="220" height="480" as="geometry" />
        </mxCell>
        <mxCell id="C4zlomJ-OiE5PHFrh7Xk-16" value="" style="html=1;points=[[0,0,0,0,5],[0,1,0,0,-5],[1,0,0,0,5],[1,1,0,0,-5]];perimeter=orthogonalPerimeter;outlineConnect=0;targetShapes=umlLifeline;portConstraint=eastwest;newEdgeStyle={&quot;curved&quot;:0,&quot;rounded&quot;:0};" vertex="1" parent="C4zlomJ-OiE5PHFrh7Xk-15">
          <mxGeometry x="105" y="120" width="10" height="200" as="geometry" />
        </mxCell>
        <mxCell id="C4zlomJ-OiE5PHFrh7Xk-17" value="UpdateCharactersXP()" style="html=1;verticalAlign=bottom;endArrow=block;curved=0;rounded=0;" edge="1" parent="1">
          <mxGeometry width="80" relative="1" as="geometry">
            <mxPoint x="5" y="1574" as="sourcePoint" />
            <mxPoint x="435" y="1574" as="targetPoint" />
          </mxGeometry>
        </mxCell>
        <mxCell id="C4zlomJ-OiE5PHFrh7Xk-18" value="PrepareLevelUp()" style="html=1;verticalAlign=bottom;endArrow=block;curved=0;rounded=0;" edge="1" parent="1">
          <mxGeometry width="80" relative="1" as="geometry">
            <mxPoint x="5" y="1601" as="sourcePoint" />
            <mxPoint x="435" y="1601" as="targetPoint" />
          </mxGeometry>
        </mxCell>
        <mxCell id="C4zlomJ-OiE5PHFrh7Xk-20" value="OnLevelUp()" style="html=1;verticalAlign=bottom;endArrow=block;curved=0;rounded=0;" edge="1" parent="1">
          <mxGeometry width="80" relative="1" as="geometry">
            <mxPoint x="435" y="1717" as="sourcePoint" />
            <mxPoint x="5" y="1717" as="targetPoint" />
          </mxGeometry>
        </mxCell>
        <mxCell id="C4zlomJ-OiE5PHFrh7Xk-25" value="ULevelMasterWidget" style="shape=umlLifeline;perimeter=lifelinePerimeter;whiteSpace=wrap;html=1;container=1;dropTarget=0;collapsible=0;recursiveResize=0;outlineConnect=0;portConstraint=eastwest;newEdgeStyle={&quot;curved&quot;:0,&quot;rounded&quot;:0};" vertex="1" parent="1">
          <mxGeometry x="730" y="1420" width="220" height="790" as="geometry" />
        </mxCell>
        <mxCell id="C4zlomJ-OiE5PHFrh7Xk-26" value="" style="html=1;points=[[0,0,0,0,5],[0,1,0,0,-5],[1,0,0,0,5],[1,1,0,0,-5]];perimeter=orthogonalPerimeter;outlineConnect=0;targetShapes=umlLifeline;portConstraint=eastwest;newEdgeStyle={&quot;curved&quot;:0,&quot;rounded&quot;:0};" vertex="1" parent="C4zlomJ-OiE5PHFrh7Xk-25">
          <mxGeometry x="105" y="450" width="10" height="270" as="geometry" />
        </mxCell>
        <mxCell id="C4zlomJ-OiE5PHFrh7Xk-27" value="AddSelection()" style="html=1;verticalAlign=bottom;endArrow=block;curved=0;rounded=0;" edge="1" parent="1" source="C4zlomJ-OiE5PHFrh7Xk-23" target="C4zlomJ-OiE5PHFrh7Xk-26">
          <mxGeometry width="80" relative="1" as="geometry">
            <mxPoint x="210" y="1980" as="sourcePoint" />
            <mxPoint x="290" y="1980" as="targetPoint" />
            <Array as="points">
              <mxPoint x="380" y="2030" />
            </Array>
          </mxGeometry>
        </mxCell>
        <mxCell id="C4zlomJ-OiE5PHFrh7Xk-28" value="Bind OnReadyDelegate() 绑定ExecuteLevelUp用来添加Card" style="html=1;verticalAlign=bottom;endArrow=block;curved=0;rounded=0;" edge="1" parent="1" source="C4zlomJ-OiE5PHFrh7Xk-23" target="C4zlomJ-OiE5PHFrh7Xk-26">
          <mxGeometry width="80" relative="1" as="geometry">
            <mxPoint y="1960" as="sourcePoint" />
            <mxPoint x="830" y="1960" as="targetPoint" />
            <Array as="points">
              <mxPoint x="375" y="1960" />
            </Array>
          </mxGeometry>
        </mxCell>
        <mxCell id="C4zlomJ-OiE5PHFrh7Xk-29" value="Bind&amp;nbsp;OnCloseDelegate() 绑定当点击选择后，UI关闭" style="html=1;verticalAlign=bottom;endArrow=block;curved=0;rounded=0;" edge="1" parent="1" source="C4zlomJ-OiE5PHFrh7Xk-23" target="C4zlomJ-OiE5PHFrh7Xk-26">
          <mxGeometry x="-0.0003" width="80" relative="1" as="geometry">
            <mxPoint y="1990" as="sourcePoint" />
            <mxPoint x="830" y="1990" as="targetPoint" />
            <Array as="points">
              <mxPoint x="375" y="1990" />
            </Array>
            <mxPoint as="offset" />
          </mxGeometry>
        </mxCell>
        <mxCell id="C4zlomJ-OiE5PHFrh7Xk-37" value="绑定按键" style="text;html=1;align=center;verticalAlign=middle;resizable=0;points=[];autosize=1;strokeColor=none;fillColor=none;" vertex="1" parent="1">
          <mxGeometry x="125" y="2208" width="70" height="30" as="geometry" />
        </mxCell>
      </root>
    </mxGraphModel>
  </diagram>
</mxfile>
